<svg width="33" height="21" viewBox="0 0 33 21" fill="none" xmlns="http://www.w3.org/2000/svg">
<g clip-path="url(#clip0_1808_962)">
<path d="M21.7459 0.691407C19.8414 0.690522 17.9799 1.24385 16.3996 2.28062C16.2908 2.35316 15.5389 2.87708 15.5058 2.90261C14.2567 3.81879 13.418 3.97731 12.2695 3.69654C12.1992 3.67908 11.8701 3.56892 11.7668 3.52996C10.694 3.13597 9.54001 2.99893 8.40169 3.13034C7.26336 3.26176 6.17401 3.6578 5.22518 4.28518C4.27636 4.91256 3.49579 5.75294 2.94907 6.7357C2.40235 7.71845 2.10547 8.81487 2.08336 9.93279C2.06126 11.0507 2.31459 12.1575 2.82205 13.1601C3.32952 14.1627 4.07629 15.0318 4.99961 15.6944C5.92293 16.357 6.99582 16.7937 8.1281 16.9678C9.26039 17.1419 10.419 17.0484 11.5065 16.6951C13.2197 16.1953 14.1493 16.3323 15.2249 17.0725C15.4397 17.2203 15.9576 17.5441 16.065 17.6206C17.2892 18.4969 18.7088 19.0777 20.2075 19.3154C21.7063 19.5531 23.2414 19.4409 24.6872 18.9881C26.1329 18.5353 27.448 17.7547 28.5247 16.7103C29.6014 15.666 30.409 14.3875 30.8814 12.9799C31.3538 11.5722 31.4774 10.0754 31.2422 8.61215C31.0069 7.14889 30.4196 5.76083 29.5282 4.56178C28.6367 3.36273 27.4667 2.38682 26.114 1.71406C24.7612 1.04129 23.2643 0.690834 21.7459 0.691407V0.691407Z" fill="#007858"/>
<path d="M18.2795 11.5137C18.006 11.7763 17.6493 11.9408 17.2677 11.9803C16.886 12.0198 16.5019 11.9321 16.1779 11.7314L15.5403 12.7187C16.0928 13.0593 16.7469 13.2079 17.3967 13.1406C18.0466 13.0734 18.6541 12.7941 19.121 12.348L18.2795 11.5137ZM17.131 7.49166C16.6043 7.4835 16.0853 7.61525 15.6296 7.8728C15.1738 8.13035 14.7985 8.50399 14.5438 8.9537C14.2891 9.40341 14.1646 9.91224 14.1836 10.4257C14.2027 10.9391 14.3646 11.4378 14.652 11.8684L19.9101 9.67599C19.7621 9.06213 19.4085 8.51396 18.9051 8.11831C18.4017 7.72266 17.7773 7.50213 17.131 7.49166V7.49166ZM15.3888 10.4981C15.3491 10.1433 15.4273 9.78547 15.6119 9.47733C15.7965 9.1692 16.0778 8.92712 16.4143 8.78682C16.7507 8.64651 17.1245 8.61541 17.4804 8.69811C17.8364 8.78081 18.1556 8.97293 18.3911 9.24611L15.3888 10.4981ZM21.5614 6.2168V11.683L22.5336 12.0766L22.075 13.1513L21.111 12.7617C20.9169 12.6807 20.752 12.5451 20.6373 12.3721C20.5092 12.1709 20.4445 11.9373 20.4513 11.7005V6.2168H21.5614ZM13.0944 6.2168V11.683L14.0585 12.0766L13.5999 13.1513L12.6358 12.7617C12.4482 12.6801 12.2889 12.5471 12.1772 12.3789C12.0486 12.1777 11.9835 11.9441 11.9899 11.7072V6.2168H13.0944Z" fill="white"/>
<path d="M26.3455 8.82023C26.5476 8.91528 26.7284 9.04823 26.8778 9.21149C27.0271 9.37474 27.1421 9.5651 27.216 9.77169C27.2899 9.97827 27.3214 10.197 27.3086 10.4155C27.2958 10.634 27.2391 10.8478 27.1415 11.0449L28.2171 11.5486C28.5082 10.9563 28.5793 10.2837 28.418 9.64602C28.2567 9.00828 27.8732 8.44507 27.333 8.05282C26.7929 7.66057 26.1298 7.46367 25.4572 7.49583C24.7846 7.528 24.1444 7.78723 23.6462 8.22914L24.4505 9.09025C24.7024 8.86548 25.0177 8.71959 25.3555 8.67145C25.6933 8.62332 26.0382 8.67514 26.3455 8.82023V8.82023Z" fill="#C7D540"/>
<path d="M24.8651 11.8253C24.4569 11.6335 24.1433 11.2915 23.9933 10.8744C23.8433 10.4574 23.8691 9.99924 24.065 9.60068L22.9894 9.09557C22.7012 9.68708 22.632 10.3578 22.7937 10.9934C22.9554 11.6291 23.338 12.1904 23.8763 12.5818C24.4147 12.9732 25.0754 13.1705 25.7461 13.1401C26.4168 13.1097 27.056 12.8535 27.5548 12.4151L26.7505 11.5553C26.4992 11.7778 26.1857 11.9223 25.85 11.9704C25.5142 12.0185 25.1714 11.968 24.8651 11.8253V11.8253ZM10.8909 11.9046V10.3221C10.8909 9.76411 10.7212 9.21868 10.4035 8.75475C10.0857 8.29083 9.63399 7.92924 9.10553 7.71572C8.57707 7.5022 7.99557 7.44633 7.43456 7.55518C6.87355 7.66404 6.35823 7.93272 5.95376 8.32726C5.5493 8.72179 5.27385 9.22446 5.16226 9.7717C5.05067 10.3189 5.10794 10.8862 5.32684 11.4017C5.54573 11.9171 5.91642 12.3577 6.39202 12.6677C6.86762 12.9777 7.42677 13.1432 7.99877 13.1432C8.44714 13.1432 8.88939 13.0416 9.29057 12.8463L8.82508 11.785C8.56446 11.9256 8.27073 11.9973 7.97295 11.9932C7.67517 11.989 7.38366 11.9091 7.12726 11.7613C6.87086 11.6136 6.65847 11.403 6.51108 11.1506C6.3637 10.8982 6.28643 10.6126 6.28694 10.3221C6.28538 10.0492 6.35303 9.78011 6.48387 9.53888C6.59904 9.32837 6.75901 9.1443 6.95307 8.99903C7.14712 8.85376 7.37078 8.75064 7.60903 8.69658C7.73539 8.66739 7.86479 8.65251 7.99464 8.65225C8.44914 8.65189 8.88519 8.82758 9.20696 9.14069C9.52873 9.4538 9.70988 9.87873 9.71061 10.3221V11.8911C9.70378 12.128 9.76843 12.3615 9.89653 12.5628C10.012 12.735 10.1767 12.8705 10.3703 12.9524L10.9129 13.162L11.3729 12.0873L10.8909 11.9046Z" fill="white"/>
</g>
<defs>
<clipPath id="clip0_1808_962">
<rect width="32.36" height="20" fill="white" transform="translate(0.640137 0.691406)"/>
</clipPath>
</defs>
</svg>
