<svg width="33" height="21" viewBox="0 0 33 21" fill="none" xmlns="http://www.w3.org/2000/svg">
<path fill-rule="evenodd" clip-rule="evenodd" d="M1.45287 20.4917H1.35142C1.35142 20.4586 1.32601 20.4087 1.32601 20.3919C1.32601 20.3754 1.32601 20.3423 1.24978 20.3423H1.09732V20.4917H1.0211V20.1427H1.24978C1.35142 20.1427 1.42746 20.1595 1.42746 20.2257C1.42746 20.2756 1.40206 20.2924 1.37683 20.3088C1.40224 20.3255 1.42746 20.3422 1.42746 20.3754V20.4418C1.42746 20.4586 1.42747 20.4586 1.45287 20.4586V20.4917ZM1.35142 20.2425C1.35142 20.1926 1.3006 20.1926 1.27519 20.1926H1.09732V20.2924H1.24978C1.3006 20.2924 1.35142 20.2756 1.35142 20.2425V20.2425ZM1.7832 20.3089C1.7832 20.1096 1.52929 19.9431 1.19896 19.9431C0.894232 19.9431 0.640137 20.1096 0.640137 20.3089C0.640137 20.525 0.894232 20.6914 1.19896 20.6914C1.5291 20.6913 1.7832 20.525 1.7832 20.3089ZM1.70697 20.3089C1.70697 20.4918 1.47847 20.6248 1.19896 20.6248C0.919458 20.6248 0.716365 20.4917 0.716365 20.3089C0.716365 20.1427 0.919642 19.993 1.19896 19.993C1.47828 19.993 1.70697 20.1427 1.70697 20.3089ZM33.0001 13.5925C33.0001 14.0913 32.5175 14.3238 31.6538 14.3238H30.0031V13.825H31.6538C31.8063 13.825 31.9333 13.8085 31.9843 13.7753C32.0349 13.7419 32.0858 13.692 32.0858 13.6256C32.0858 13.559 32.0351 13.4926 31.9843 13.4594C31.9333 13.4261 31.8319 13.4096 31.6794 13.4096C30.8922 13.3928 29.9015 13.4261 29.9015 12.6947C29.9015 12.362 30.2316 11.9963 31.1206 11.9963H32.8223V12.4951H31.2474C31.0953 12.4951 30.9935 12.4951 30.9173 12.5282C30.8411 12.5781 30.7904 12.628 30.7904 12.7112C30.7904 12.7943 30.8667 12.8442 30.9681 12.8776C31.0699 12.8941 31.1716 12.9107 31.2986 12.9107H31.7556C32.2382 12.9107 32.5431 12.9771 32.7464 13.0937C32.8985 13.21 33.0001 13.3598 33.0001 13.5925V13.5925ZM29.4187 13.0937C29.2154 12.9771 28.9105 12.9107 28.4279 12.9107H27.9709C27.844 12.9107 27.7422 12.894 27.6407 12.8776C27.5389 12.8442 27.4631 12.7943 27.4631 12.7112C27.4631 12.628 27.4883 12.5781 27.5899 12.5282C27.6662 12.4951 27.7676 12.4951 27.9201 12.4951H29.4949V11.9963H27.7932C26.8786 11.9963 26.5737 12.362 26.5737 12.6947C26.5737 13.4259 27.5645 13.3928 28.352 13.4096C28.5041 13.4096 28.6059 13.4261 28.6566 13.4594C28.7072 13.4926 28.7584 13.559 28.7584 13.6256C28.7584 13.692 28.7074 13.7419 28.6566 13.7753C28.5803 13.8085 28.4789 13.825 28.3264 13.825H26.6754V14.3238H28.3264C29.1898 14.3238 29.6726 14.0912 29.6726 13.5925C29.6726 13.3598 29.5711 13.21 29.4187 13.0937V13.0937ZM26.1674 13.8418H24.1611V13.3763H26.1167V12.911H24.1611V12.4786H26.1674V11.9965H23.3228V14.3239H26.1674V13.8418ZM22.4082 12.1129C22.1287 12.0132 21.7986 11.9964 21.3668 11.9964H19.4112V14.3238H20.2746V13.476H21.1891C21.4937 13.476 21.6717 13.4927 21.7988 13.5757C21.9512 13.692 21.9512 13.8916 21.9512 14.0413V14.3238H22.7892V13.8749C22.7892 13.6588 22.764 13.559 22.6623 13.4427C22.5861 13.376 22.434 13.293 22.2307 13.2431C22.459 13.1935 22.8404 12.9939 22.8404 12.628C22.8402 12.3622 22.6877 12.2125 22.4082 12.1129V12.1129ZM17.5822 11.9964H14.8643L13.7721 12.7612L12.7307 11.9964H9.30167V14.3238H12.68L13.7723 13.559L14.8137 14.3238H16.4648V13.5426H17.5316C18.2681 13.5426 19.005 13.4096 19.005 12.7612C19.0048 12.1294 18.2427 11.9964 17.5822 11.9964ZM21.7223 12.9608C21.5955 12.9939 21.4684 12.9939 21.316 12.9939L20.2746 13.0106V12.4785H21.316C21.4684 12.4785 21.6209 12.4785 21.7223 12.5283C21.8242 12.5617 21.9 12.6281 21.9 12.7279C21.9 12.8277 21.8242 12.9109 21.7223 12.9608V12.9608ZM17.5822 13.0771H16.4646V12.4785H17.5822C17.8872 12.4785 18.0902 12.5617 18.0902 12.7612C18.0902 12.9608 17.887 13.0771 17.5822 13.0771ZM14.3055 13.1601L15.6263 12.2459V14.1244L14.3055 13.1601ZM12.2481 13.8418H10.1398V13.3763H12.0194V12.911H10.1398V12.4786H12.2735L13.2133 13.1602L12.2481 13.8418V13.8418ZM30.6378 10.3173H29.4187L27.8184 8.57161V10.3173H26.0915L25.761 9.80183H23.9831L23.6529 10.3173H22.6621C22.2558 10.3173 21.7223 10.2507 21.4178 10.0512C21.1383 9.85172 20.9858 9.58574 20.9858 9.17009C20.9858 8.82096 21.0621 8.50509 21.4428 8.25575C21.6967 8.0728 22.1541 7.98977 22.7382 7.98977H23.5509V8.48858H22.7382C22.4336 8.48858 22.2556 8.52184 22.0779 8.62163C21.9254 8.72141 21.8492 8.90423 21.8492 9.15358C21.8492 9.40292 21.9254 9.58586 22.0779 9.70228C22.2048 9.78532 22.4336 9.81858 22.6619 9.81858H23.0431L24.2622 7.98989H25.5323L26.9547 10.1843V7.98977H28.2756L29.7742 9.60238V7.98977H30.6376V10.3173H30.6378V10.3173ZM20.5541 7.98977H19.6907V10.3173H20.5541V7.98977V7.98977ZM18.7505 8.08956C18.471 7.98977 18.1665 7.98977 17.7347 7.98977H15.7787V10.3173H16.6169V9.46933H17.5312C17.8362 9.46933 18.0394 9.48596 18.1663 9.56911C18.3187 9.68553 18.2932 9.8851 18.2932 10.018V10.3173H19.1565V9.85172C19.1565 9.65227 19.1313 9.55248 19.0044 9.43607C18.9282 9.36954 18.7758 9.28639 18.5981 9.23661C18.8264 9.17009 19.2077 8.98727 19.2077 8.62151C19.2079 8.35553 19.0298 8.20585 18.7505 8.08956ZM15.1691 9.83521H13.1879V9.36966H15.1437V8.8876H13.1879V8.47195H15.1691V7.98989H12.3243V10.3174H15.1691V9.83521ZM11.6892 7.98977H10.2923L9.25085 9.56911L8.1332 7.98977H6.76163V10.1842L5.31384 7.98977H4.04391L2.51989 10.3173H3.43427L3.76441 9.80183H5.54234L5.87248 10.3173H7.59978V8.48858L8.8443 10.3173H9.58081L10.8255 8.48858V10.3173H11.6891V7.98977H11.6892ZM25.4564 9.30314L24.872 8.38879L24.288 9.30314H25.4564ZM18.0902 8.9375C17.9634 8.98739 17.8363 8.98739 17.6585 8.98739H16.6169V8.47207H17.6583C17.8107 8.47207 17.9882 8.47207 18.0901 8.50533C18.1915 8.55522 18.2425 8.62175 18.2425 8.72141C18.2425 8.82108 18.1917 8.90411 18.0902 8.9375V8.9375ZM4.06914 9.30314L4.65337 8.38879L5.23761 9.30314H4.06914V9.30314ZM32.797 0.691406H2.4943V9.07042L3.53572 7.52434H5.74543L6.05035 7.90674V7.52434H8.6412L9.22544 8.35553L9.78427 7.52434H18.0394C18.4202 7.52434 18.7503 7.57424 19.0046 7.70716V7.52434H21.2652V7.70716C21.6459 7.57411 22.1285 7.52434 22.6875 7.52434H25.9641L26.269 7.90674V7.52434H28.682L29.0377 7.90674V7.52434H31.3997V10.7828H29.0123L28.5553 10.2841V10.7828H25.5833L25.2532 10.2509H24.5163L24.1862 10.7828H22.6369C22.0273 10.7828 21.5699 10.683 21.2653 10.5834V10.7828H17.5822V10.0347C17.5822 9.93488 17.5568 9.91824 17.4552 9.91824H17.3283V10.7827H10.216V10.367L9.96213 10.7827H8.46352L8.20961 10.3837V10.7827H5.33925L5.03452 10.2507H4.29783L3.96769 10.7827H2.4943V20.6081H32.797V14.6396C32.4669 14.7394 32.0095 14.7893 31.5523 14.7893H29.3424V14.5898C29.0885 14.7229 28.6312 14.7893 28.1996 14.7893H21.2397V14.0413C21.2397 13.9415 21.2145 13.9415 21.0873 13.9415H20.9604V14.7893H18.6743V13.9082C18.2935 14.0245 17.8616 14.0245 17.4806 14.0245H17.2265V14.7893H14.4326L13.7723 14.2905L13.0358 14.7893H8.53957V11.531H13.1116L13.7721 12.0295L14.4834 11.531H17.5568C17.9122 11.531 18.4966 11.5641 18.7505 11.7303V11.531H21.4937C21.7732 11.531 22.3068 11.5641 22.6621 11.7303V11.531H26.8024V11.7304C27.0311 11.5974 27.4631 11.5311 27.8438 11.5311H30.1552V11.7304C30.4095 11.6141 30.7648 11.5311 31.2222 11.5311H32.797V0.691406V0.691406Z" fill="#9E9E9E"/>
</svg>
