<svg width="33" height="21" viewBox="0 0 33 21" fill="none" xmlns="http://www.w3.org/2000/svg">
<path d="M1.60149 4.04359V0.753082H2.59636C2.79526 0.753082 2.96101 0.783919 3.07722 0.845595C3.20153 0.91755 3.30098 1.02034 3.36747 1.1542C3.44205 1.29811 3.4752 1.44202 3.4752 1.58616C3.4752 1.73007 3.44205 1.8637 3.38404 1.98705C3.31774 2.1104 3.22676 2.21319 3.10208 2.28515C3.25955 2.34705 3.38404 2.44984 3.4752 2.58347C3.55808 2.72738 3.59952 2.89208 3.59952 3.08739C3.60043 3.23641 3.57496 3.38386 3.52493 3.51934C3.46692 3.64269 3.4089 3.74549 3.32585 3.81767C3.24025 3.89862 3.14114 3.95481 3.03578 3.98214C2.91976 4.02325 2.77869 4.04381 2.61293 4.04381L1.60149 4.04359V4.04359ZM1.94975 2.13096H2.52177C2.67923 2.13096 2.78697 2.12068 2.86156 2.08961C2.94462 2.05878 3.01092 2.00738 3.06064 1.92515C3.10208 1.85319 3.12695 1.76045 3.12695 1.6371C3.12695 1.5343 3.10208 1.43151 3.06064 1.34928C3.01921 1.26704 2.96119 1.21565 2.88661 1.18481C2.80373 1.15397 2.67113 1.13341 2.48033 1.13341H1.94975V2.13096V2.13096ZM1.94975 3.65297H2.6133C2.72104 3.65297 2.80392 3.64269 2.84535 3.63241C2.92823 3.61186 2.99453 3.5913 3.05254 3.5399C3.10227 3.49878 3.15199 3.43711 3.18514 3.36515C3.21829 3.28292 3.23505 3.19041 3.23505 3.08761C3.23505 2.96404 3.21019 2.85096 3.16046 2.76873C3.11074 2.67622 3.04444 2.61454 2.95328 2.57342C2.86193 2.54259 2.72933 2.52203 2.56358 2.52203H1.95012V3.65297H1.94975V3.65297ZM8.21751 4.04359L9.23724 0.753082H9.61865L10.6964 4.04359H10.2984L9.99159 3.04604H8.88069L8.59045 4.04359H8.21751V4.04359ZM8.98033 2.68627H9.88404L9.60208 1.77118C9.53377 1.54818 9.47295 1.32177 9.41975 1.09253C9.3866 1.30839 9.33687 1.5142 9.27057 1.71979L8.98033 2.68627V2.68627ZM15.4055 4.04359V0.753082H15.7621L17.155 3.33409V0.753082H17.4953V4.04359H17.1303L15.7372 1.4523V4.04359H15.4055ZM24.4006 2.8818L24.7491 2.99487C24.6749 3.35487 24.5419 3.62214 24.3513 3.81767C24.1609 4.0027 23.9282 4.09521 23.6551 4.09521C23.3649 4.09521 23.1328 4.02325 22.9505 3.87935C22.7765 3.73544 22.6354 3.52962 22.5441 3.25208C22.4505 2.97167 22.4025 2.6711 22.4028 2.36761C22.4028 2.02839 22.4608 1.73007 22.5601 1.47286C22.668 1.21588 22.8172 1.02034 23.0164 0.886712C23.2071 0.753082 23.4225 0.691406 23.6551 0.691406C23.92 0.691406 24.1441 0.77364 24.3266 0.948388C24.5087 1.11286 24.6334 1.34951 24.7076 1.64761L24.3594 1.7504C24.2933 1.51398 24.21 1.339 24.094 1.22593C23.9782 1.12313 23.8292 1.06146 23.6465 1.06146C23.4476 1.06146 23.2735 1.12336 23.1408 1.24694C22.9997 1.37052 22.9087 1.53476 22.8505 1.7303C22.7944 1.93558 22.7664 2.15108 22.7678 2.36784C22.7678 2.64538 22.8011 2.89231 22.8671 3.09789C22.9336 3.30348 23.0328 3.46818 23.1739 3.57097C23.3152 3.67376 23.4641 3.72516 23.622 3.72516C23.8209 3.72516 23.9864 3.6532 24.1194 3.50929C24.2601 3.37543 24.3513 3.15934 24.4006 2.8818V2.8818ZM29.4997 2.43956C29.4997 1.89454 29.6159 1.46258 29.8564 1.1542C30.0888 0.845595 30.3956 0.691406 30.7686 0.691406C31.0172 0.691406 31.2329 0.763361 31.432 0.90727C31.6275 1.04825 31.7836 1.25992 31.8795 1.51398C31.9874 1.77096 32.0369 2.06928 32.0369 2.39845C32.0369 2.72715 31.987 3.02571 31.8712 3.2932C31.7636 3.56046 31.6143 3.75599 31.4154 3.88962C31.2165 4.02325 31.0006 4.09521 30.7686 4.09521C30.5194 4.09521 30.296 4.02326 30.0971 3.86907C29.9065 3.72516 29.7571 3.51934 29.6492 3.26236C29.5494 2.99487 29.4997 2.72738 29.4997 2.43956V2.43956ZM29.8641 2.43956C29.8641 2.84068 29.9472 3.14906 30.1212 3.37543C30.2953 3.61186 30.5107 3.72493 30.768 3.72493C31.033 3.72493 31.2489 3.61186 31.4148 3.37543C31.5889 3.14906 31.6719 2.82013 31.6719 2.39845C31.6719 2.13119 31.6386 1.89454 31.5644 1.699C31.497 1.5079 31.3879 1.34401 31.2493 1.22593C31.1041 1.11783 30.9379 1.06096 30.7686 1.06146C30.5194 1.06146 30.3122 1.17476 30.1299 1.38035C29.9478 1.59621 29.8641 1.94593 29.8641 2.43956V2.43956ZM6.16975 14.7895L6.21966 14.7998L6.2611 14.8309L6.30254 14.8514L6.33569 14.8825L6.37731 14.9238L6.41046 14.9649L6.44361 15.0063L6.46847 15.0579L6.49333 15.1093L6.50991 15.1609L6.52648 15.2126L6.53477 15.2745L6.54306 15.3364L6.55135 15.3983L6.54306 15.4602L6.53477 15.5221L6.52648 15.5739L6.50991 15.6356L6.49333 15.6875L6.46847 15.7389L6.44361 15.7804L6.41046 15.8318L6.37731 15.8732L6.33569 15.9042L6.30254 15.9454L6.2611 15.9659L6.21966 15.997L6.16975 16.0075L6.11984 16.0281L6.06183 16.0383H5.21614V14.7632H6.06183L6.11984 14.7735L6.16975 14.7895ZM6.16975 9.87421L6.21966 9.89476L6.2611 9.91532L6.30254 9.94616L6.33569 9.977L6.37731 10.0181L6.41046 10.0592L6.44361 10.1003L6.46847 10.1517L6.49333 10.2031L6.50991 10.2545L6.52648 10.3062L6.53477 10.3678L6.54306 10.4295L6.55135 10.4912L6.54306 10.5531L6.53477 10.615L6.52648 10.6664L6.50991 10.7281L6.49333 10.7797L6.46847 10.8313L6.44361 10.8727L6.41046 10.9241L6.37731 10.9656L6.33569 10.9965L6.30254 11.0273L6.2611 11.0586L6.21966 11.0792L6.16975 11.0997L6.11984 11.11L6.06183 11.1203H5.21614V9.85547H6.06183L6.11984 9.86575L6.16975 9.87421V9.87421ZM6.06183 15.2932L6.07012 15.3035H6.07822L6.08651 15.314H6.0948V15.3245L6.10308 15.3345L6.11137 15.3448L6.11966 15.3553V15.4376H6.11137V15.4481L6.10308 15.4584L6.0948 15.4689V15.4791H6.08651L6.07822 15.4894H6.07012L6.06183 15.4997H5.63898V15.2941H6.06183V15.2932V15.2932ZM6.06183 10.3884H6.07012L6.07822 10.3987H6.08651L6.0948 10.409V10.4192L6.10308 10.4293H6.11137V10.4396L6.11966 10.4498V10.522L6.11137 10.5321V10.5424L6.10308 10.5526V10.5629H6.0948L6.08651 10.5732L6.07822 10.5835H6.06183V10.5938H5.63898V10.3779H6.03697L6.05354 10.3882L6.06183 10.3884V10.3884ZM4.78519 14.2344H6.10327C6.59242 14.2863 6.97383 14.7897 6.97383 15.3964C6.97383 16.0032 6.5926 16.5068 6.10327 16.5484V16.5587H4.785L4.78519 14.2344V14.2344ZM4.78519 9.32941H6.10327C6.59242 9.3808 6.97383 9.87443 6.97383 10.4912C6.97383 11.0979 6.5926 11.6018 6.10327 11.6429V11.6532H4.785L4.78519 9.32941V9.32941ZM29.135 11.3757H29.1102L29.0602 11.3549L29.0105 11.3448L28.9606 11.3238L28.9109 11.3135L28.8612 11.293L28.8113 11.2724H28.803L28.7781 11.2621L28.712 11.2311L28.6785 11.2208L28.6453 11.2103L28.6122 11.2L28.5705 11.1897L28.5372 11.1794L28.5037 11.1692L28.4705 11.1589H28.4374L28.396 11.1486H28.3626L28.3289 11.1381H28.2543L28.2129 11.1278H28.188L28.0884 11.1381H28.0057L27.9144 11.1589L27.8317 11.1692L27.7569 11.1897L27.6742 11.2208L27.5994 11.2413L27.525 11.2827L27.4587 11.3135L27.3928 11.3549L27.3267 11.3962L27.2602 11.4476L27.2024 11.4995L27.1444 11.5513L27.0867 11.613L27.0289 11.6747L26.979 11.7366L26.9293 11.7985L26.8878 11.87L26.8381 11.9522L26.7959 12.0239L26.7545 12.1062L26.7213 12.1987L26.6882 12.2805L26.6547 12.373L26.6296 12.4755L26.6048 12.5681L26.5797 12.6708L26.5631 12.7839L26.5466 12.897L26.53 13.0101V13.1231L26.5217 13.2467V13.3493L26.53 13.4624L26.5383 13.5651L26.5548 13.6679L26.5714 13.76L26.5963 13.8525L26.6213 13.945L26.6467 14.0375L26.6799 14.1198L26.713 14.2018L26.7545 14.2838L26.7959 14.3658L26.8458 14.4377L26.8873 14.5097L26.9372 14.5714L26.9952 14.6333L27.0451 14.6949L27.1026 14.7466L27.169 14.7982L27.2269 14.8498L27.293 14.8912L27.3595 14.922L27.4337 14.9633L27.5083 14.9942L27.5827 15.015L27.6574 15.0355L27.7236 15.0458L27.6239 14.9432L27.533 14.8197L27.4582 14.686L27.3838 14.5421L27.3261 14.3877L27.2762 14.2333L27.2429 14.0688L27.2263 13.8936L27.218 13.7495V13.0724L27.2263 12.918L27.2429 12.7535L27.2762 12.5886L27.3261 12.4241L27.3838 12.2697L27.4582 12.1361L27.533 12.0025L27.6239 11.8791L27.7236 11.766L27.8315 11.6733L27.939 11.5812L28.0635 11.5093L28.1963 11.4474L28.3287 11.406L28.4617 11.3855L28.5862 11.3752L29.135 11.3757V11.3757ZM28.182 6.50124C28.8453 6.50124 29.4831 6.64538 30.0722 6.90236L30.064 6.91264C30.3352 7.0423 30.5683 7.27094 30.7326 7.56837C30.8969 7.8658 30.9845 8.21804 30.9841 8.57856C30.9841 9.56583 30.3288 10.3678 29.5334 10.3678C29.3571 10.3697 29.1823 10.3278 29.0194 10.2445V10.2548C28.7499 10.1395 28.467 10.0804 28.182 10.08C26.8051 10.08 25.7609 11.2934 25.6778 13.0724C25.5948 14.8409 26.6891 16.2704 28.1737 16.1059C28.5219 16.0954 28.8284 16.0032 29.1019 15.8487V14.3884H28.6046C28.3144 14.3884 28.0656 14.0901 28.0656 13.7198V13.0928C28.0656 12.7328 28.3144 12.4241 28.6046 12.4241H31.0671C31.2108 12.424 31.3531 12.4591 31.4859 12.5272C31.6187 12.5954 31.7393 12.6954 31.8409 12.8215C31.9425 12.9475 32.0231 13.0972 32.078 13.2619C32.1329 13.4267 32.1611 13.6032 32.1609 13.7815V17.3493C32.1609 18.5529 31.3318 19.1801 30.4612 19.4371C29.5825 19.6943 28.5792 19.6322 28.1814 19.6322C25.1552 19.6322 22.6844 16.6809 22.6844 13.0715C22.6848 9.45276 25.1555 6.50124 28.182 6.50124V6.50124ZM23.2984 17.6794C23.2984 18.6975 22.6188 19.5404 21.7897 19.5404C21.0517 19.5404 20.4298 18.8615 20.3136 17.9875L19.4511 13.8431L18.5644 17.71C18.4981 18.0083 18.4397 18.2239 18.3152 18.4912C18.0253 19.1082 17.4202 19.5404 16.7317 19.5404C16.0269 19.5404 15.4135 19.0881 15.1234 18.4402C15.0157 18.1935 14.9659 17.9466 14.9079 17.6691L14.0457 13.9361L13.2083 18.1111H13.2C13.1216 18.518 12.9349 18.8803 12.6702 19.1396C12.4055 19.3989 12.0781 19.5401 11.7408 19.5404C10.92 19.5404 10.2404 18.6975 10.2404 17.6794C10.2404 17.5044 10.257 17.3708 10.2901 17.2065L11.8156 8.43511H11.8239C11.8985 7.43757 12.7607 6.65611 13.8053 6.65611C14.6923 6.65611 15.4551 7.2217 15.7041 7.99287C15.7704 8.18818 15.8037 8.41455 15.8534 8.60986L16.7323 12.4557L17.5946 8.71265C17.6522 8.476 17.7025 8.2293 17.7769 7.99287C18.0259 7.2217 18.7799 6.65611 19.6672 6.65611C20.4714 6.65611 21.1678 7.11868 21.4829 7.77701C21.5243 7.86952 21.5571 7.96226 21.5825 8.05455C21.6567 8.31153 21.6984 8.5893 21.7481 8.85679L23.1905 16.8164C23.2404 17.1341 23.2984 17.3708 23.2984 17.6794V17.6794ZM7.51288 6.53231H2.2481C2.04824 6.53315 1.85677 6.632 1.71545 6.80728C1.57412 6.98256 1.49443 7.22006 1.49375 7.46795V18.5636C1.49443 18.8115 1.57411 19.0491 1.71542 19.2244C1.85673 19.3998 2.04821 19.4987 2.2481 19.4997H7.77808C9.20409 19.4997 10.3647 17.9261 10.3647 16.0032C10.3647 14.5428 9.70134 13.2883 8.76467 12.7638C9.32012 12.1366 9.67666 11.1185 9.67666 9.96672C9.67666 8.07465 8.70666 6.53231 7.51288 6.53231V6.53231ZM20.8692 20.3529L20.7783 20.3012L20.6869 20.2496L20.5959 20.1879L20.5129 20.116L20.4302 20.0443L20.3471 19.9725L20.2644 19.8905L20.1897 19.8083L20.1237 19.7261L20.0495 19.6338L19.983 19.5413L19.9252 19.4385L19.8674 19.3359L19.8094 19.2329L19.7517 19.12L19.7101 19.0173L19.6602 18.8939L19.6187 18.7808L19.5854 18.6575L19.5521 18.5444L19.5186 18.4108L19.4937 18.2872V18.2666L19.411 17.876L19.3778 18.0097L19.3696 18.0611L19.353 18.123L19.3443 18.1744L19.3278 18.2363L19.3112 18.2982L19.2944 18.3601L19.2778 18.422L19.2611 18.4839L19.2362 18.5556L19.2196 18.6175L19.1948 18.6794L19.1696 18.7514L19.1447 18.8229L19.1115 18.8848L19.0782 18.9565L19.0449 19.0284L19.0031 19.1205L18.9533 19.2027L18.9119 19.2953L18.8541 19.3773L18.8042 19.449L18.7463 19.5312L18.6889 19.6032L18.6307 19.6852L18.5646 19.7569L18.4981 19.8188L18.432 19.8807L18.366 19.9524L18.2997 20.0043L18.2253 20.066L18.1588 20.1178L18.0844 20.1694L18.0014 20.2208L17.9272 20.2725L17.8528 20.3138L17.7699 20.3549L17.6955 20.386L17.6124 20.4273L17.5297 20.4582L17.4384 20.489L17.3557 20.5098L17.2726 20.5304L17.1817 20.5511L17.0988 20.5614L17.0078 20.582H16.9165L16.8251 20.5923H16.6426L16.5514 20.582H16.4603L16.3691 20.5614L16.2779 20.5511L16.1868 20.5304L16.1039 20.5098L16.0127 20.4787L15.9299 20.4479L15.8387 20.4171L15.7558 20.3757L15.673 20.3447L15.5901 20.293L15.5155 20.2519L15.4326 20.2003L15.358 20.1487L15.2834 20.097L15.2089 20.0351L15.1343 19.9732L15.068 19.9113L15.0017 19.8494L14.9354 19.7779L14.8691 19.706L14.8028 19.6342L14.7448 19.5522L14.6867 19.4805L14.6287 19.3983L14.579 19.3058L14.521 19.2238L14.4796 19.1315L14.4296 19.0387L14.3882 18.9464L14.3551 18.8747L14.3219 18.8028L14.297 18.7313L14.2722 18.6593L14.2556 18.5874L14.2307 18.5257L14.2142 18.4638L14.1976 18.392L14.181 18.3304L14.1644 18.2785L14.1479 18.2168L14.1396 18.165L14.123 18.1033L14.1147 18.0617L14.1064 18.0103L14.0236 18.401L13.9738 18.596L13.9407 18.7196L13.9075 18.8222L13.8661 18.9355L13.8247 19.0486L13.7747 19.1513L13.725 19.2539L13.667 19.3464L13.609 19.449L13.551 19.5415L13.493 19.6338L13.4267 19.716L13.3521 19.7983L13.2858 19.8803L13.2112 19.952L13.1366 20.0237L13.0537 20.0957L12.9709 20.1576L12.888 20.2195L12.8051 20.2814L12.7139 20.333L12.6311 20.3741L12.5316 20.426L12.4405 20.4568L12.3493 20.4982L12.2497 20.529L12.15 20.5498L12.0506 20.5703L11.9511 20.5806L11.8517 20.5909H11.6279L11.5036 20.5806L11.3876 20.5601L11.2716 20.529L11.1555 20.4982L11.0445 20.4557L10.9367 20.4146L10.829 20.3627L10.7213 20.3008L10.6216 20.2389L10.5222 20.1672L10.431 20.0954L10.3398 20.0134L10.2487 19.9209L10.1658 19.8284L10.0829 19.7359L10.0083 19.6331L9.93376 19.5408L9.85917 19.6228L9.72657 19.7464L9.58568 19.8695L9.4448 19.9828L9.29544 20.0854L9.13797 20.1779L8.98051 20.2601L8.82305 20.3421L8.6573 20.404L8.48326 20.4554L8.30922 20.4968L8.13518 20.5279L7.96115 20.5484H2.08235L1.92489 20.5176L1.76742 20.4657L1.62635 20.394L1.48546 20.312L1.35286 20.2092L1.22855 20.0961L1.11253 19.9728L1.01308 19.8286L0.921912 19.6744L0.839037 19.5097L0.772737 19.3348L0.714725 19.1495L0.673287 18.964L0.648424 18.7587L0.640137 18.5835V7.43711L0.648424 7.26236L0.673287 7.06706L0.714725 6.87198L0.772737 6.6865L0.839037 6.51175L0.921912 6.34728L1.01308 6.20337L1.11253 6.05946L1.22855 5.92583L1.35286 5.81276L1.48546 5.72024L1.62635 5.62773L1.76742 5.56606L1.92489 5.51466L2.08235 5.48382L2.22324 5.47354H7.52946L7.67863 5.48382L7.84438 5.50438L8.00185 5.53522L8.15931 5.57634L8.31677 5.63801L8.46613 5.69923L8.61549 5.78146L8.75638 5.87398L8.89745 5.96649L9.03005 6.07956L9.15437 6.19286L9.27868 6.31621L9.3947 6.44984L9.50244 6.59375L9.61018 6.73766L9.70963 6.88157L9.80908 7.04604L9.90043 7.21051L9.9833 7.37498L10.0579 7.54972L10.1325 7.73498L10.1988 7.90995L10.2568 8.10526L10.3148 8.30057L10.3645 8.49587L10.406 8.69118L10.4391 8.89676L10.4723 9.10235L10.4971 9.31821L10.5137 9.5238L10.522 9.73966L10.5303 9.95553V10.0994L10.522 10.223L10.5137 10.3566L10.5058 10.4912L10.4975 10.625L10.4809 10.7484L10.4643 10.882L10.4478 11.0054L10.4229 11.1287L10.4063 11.2521L10.3732 11.3757L10.3483 11.499L10.3152 11.6121L10.282 11.7354L10.2489 11.8485L10.2157 11.9613L10.1743 12.0747L10.1328 12.1875L10.0912 12.3006L10.0415 12.4139L9.99177 12.5167L10.0664 12.6089L10.1575 12.7218L10.1907 12.7634L10.9866 8.19754L11.0032 8.12559L11.0198 8.0228L11.0529 7.87889L11.0861 7.7247L11.1277 7.58079L11.1774 7.44716L11.2355 7.31353L11.3018 7.1799L11.3681 7.05632L11.4344 6.93297L11.5089 6.8199L11.5918 6.70682L11.6747 6.60403L11.7659 6.50101L11.857 6.4085L11.9482 6.31598L12.0476 6.23375L12.1471 6.15152L12.2548 6.07956L12.3626 6.00761L12.4703 5.94593L12.578 5.88426L12.6941 5.83286L12.8101 5.78146L12.9344 5.74035L13.0504 5.70951L13.1747 5.66839L13.299 5.64783L13.4234 5.62728L13.5479 5.60672L13.6805 5.59644H13.921L14.0287 5.60672L14.1365 5.617L14.2442 5.63755L14.3519 5.64783L14.4516 5.67867L14.5593 5.69923L14.6589 5.73007L14.7584 5.77118L14.858 5.8123L14.9575 5.85342L15.0569 5.89476L15.1483 5.94616L15.2394 5.99756L15.3306 6.05923L15.4218 6.12091L15.5046 6.18258L15.5958 6.25454L15.6787 6.32649L15.7533 6.40873L15.8361 6.48068L15.9107 6.56292L15.9853 6.65543L16.0516 6.74794L16.1179 6.84045L16.1842 6.93297L16.2422 7.03576L16.3002 7.14883L16.3582 7.25163L16.408 7.36493L16.4494 7.478L16.491 7.59107L16.5076 7.66302L16.5242 7.71442L16.5408 7.77632L16.5573 7.82772L16.5739 7.87912L16.5822 7.93051L16.5905 7.98191L16.6071 8.02303L16.6153 8.07442L16.6236 8.11554L16.6319 8.15666L16.6402 8.19777L16.6485 8.22861V8.25945L16.6568 8.29029L16.6653 8.32112L16.7316 8.61945L16.7813 8.42414L16.7896 8.38303L16.7979 8.34191L16.806 8.30079L16.8142 8.25968L16.8308 8.20828L16.8391 8.15688L16.8472 8.11577L16.8638 8.06414L16.8721 8.00247L16.8886 7.95084L16.8969 7.89945L16.9137 7.83754L16.9303 7.78615L16.9467 7.72447L16.9632 7.66279L16.9881 7.59084L17.0301 7.47777L17.0717 7.3647L17.1214 7.2514L17.1796 7.1486L17.2373 7.03553L17.2949 6.93274L17.3614 6.84023L17.4275 6.74771L17.494 6.6552L17.5682 6.56269L17.6424 6.48045L17.7255 6.4085L17.7999 6.32626L17.883 6.25431L17.9657 6.18235L18.057 6.12068L18.148 6.059L18.2393 5.99733L18.3303 5.94593L18.4217 5.89454L18.5213 5.85319L18.6206 5.81207L18.7117 5.77096L18.8195 5.72984L18.9189 5.699L19.027 5.67844L19.1261 5.6476L19.2342 5.63733L19.3418 5.61677L19.4497 5.60649L19.5576 5.59621H19.7648L19.8644 5.60649L19.9637 5.61677L20.0633 5.62705L20.1541 5.63733L20.2537 5.65789L20.3447 5.67844L20.4444 5.70928L20.5357 5.74012L20.6265 5.77096L20.7175 5.80179L20.8005 5.84291L20.8919 5.88403L20.9746 5.92515L21.0576 5.97677L21.1403 6.02817L21.2234 6.07956L21.3061 6.14147L21.3803 6.20314L21.4549 6.26482L21.5293 6.32672L21.6041 6.39845L21.6785 6.4704L21.7449 6.54236L21.8109 6.61431L21.8768 6.69655L21.935 6.77878L21.9928 6.87129L22.0507 6.95353L22.1087 7.04604L22.1586 7.14883L22.2083 7.24135L22.2335 7.30302L22.2584 7.35442L22.2833 7.40581L22.3 7.46749L22.3249 7.51889L22.3417 7.58079L22.3582 7.63219L22.3831 7.69409L22.3997 7.76604L22.4166 7.82772L22.4332 7.89967L22.4498 7.96135L22.4663 8.02325L22.4746 8.08493L22.4912 8.14661L22.4997 8.20828L22.508 8.26996L22.5245 8.32135L22.5328 8.37275L22.5413 8.42414L22.5496 8.47554L22.5661 8.57833L22.5744 8.61945L22.6906 9.26727L22.7654 9.11286L22.931 8.79397L23.1131 8.49587L23.2955 8.20782L23.4944 7.94056L23.7098 7.6733L23.9253 7.42637L24.1579 7.17967L24.3984 6.96381L24.6474 6.74794L24.9043 6.55264L25.1697 6.36738L25.443 6.20291L25.7248 6.04872L26.0068 5.91509L26.3047 5.79152L26.6033 5.68872L26.9101 5.60649L27.2169 5.54458L27.532 5.49319L27.8554 5.46235L28.1707 5.45207H28.3193L28.3941 5.46235H28.535L28.6009 5.47263H28.6752L28.7416 5.48291L28.816 5.49319L28.8825 5.50347L28.9486 5.51375L29.0232 5.52402L29.0892 5.53431L29.1553 5.54458L29.2218 5.55486L29.2962 5.57542L29.3627 5.5857L29.4286 5.60626L29.4945 5.61654L29.561 5.6371L29.6271 5.65766L29.6932 5.67821L29.7595 5.69877L29.8255 5.71933L29.8919 5.73989L29.9581 5.76045L30.0245 5.78101L30.0905 5.81184L30.1564 5.8324L30.2146 5.86324L30.2807 5.8838L30.3886 5.9352L30.538 6.01743L30.6041 6.06883L30.6785 6.12022L30.7533 6.17162L30.8192 6.22302L30.894 6.28469L30.9599 6.35665L31.026 6.41832L31.0842 6.49028L31.1421 6.56223L31.1995 6.63418L31.2577 6.71642L31.3156 6.78837L31.3653 6.87061L31.4152 6.96312L31.4649 7.04536L31.5064 7.13787L31.548 7.23038L31.59 7.32289L31.6231 7.41541L31.6563 7.50792L31.6894 7.61071L31.7143 7.71351L31.7397 7.8163L31.7647 7.91909L31.7813 8.02188L31.7979 8.13496L31.8062 8.23775L31.8145 8.35082L31.8228 8.46389V8.72087L31.8145 8.86478L31.7979 9.00869L31.773 9.14232L31.748 9.28623L31.7228 9.41986L31.6811 9.55349L31.6397 9.67707L31.5983 9.8107L31.5401 9.93405L31.4903 10.0471L31.4325 10.1602L31.366 10.2733L31.2999 10.3866L31.2257 10.4894L31.1511 10.5819L31.0684 10.6744L30.9853 10.7669L30.9027 10.8491L30.8113 10.9311L30.7203 11.0029L30.6207 11.0746L30.5211 11.1365L30.4218 11.1881L30.3139 11.2395L30.2146 11.2914L30.0984 11.3327L29.9905 11.3638L29.9244 11.3741H31.1596L31.2592 11.3843L31.3585 11.4049L31.4498 11.4255L31.5491 11.446L31.6404 11.4876L31.7318 11.5184L31.8145 11.5701L31.9058 11.6114L31.9885 11.6628L32.0716 11.7247L32.1458 11.7866L32.22 11.8581L32.2948 11.9301L32.3609 12.002L32.4357 12.0838L32.4935 12.166L32.5594 12.248L32.6174 12.3405L32.6673 12.4331L32.7173 12.5253L32.7672 12.6284L32.8088 12.7309L32.8502 12.844L32.8834 12.9468L32.9169 13.0599L32.9418 13.1729L32.9585 13.2961L32.9751 13.4094L32.9918 13.5325L33.0001 13.6561V17.5121L32.9834 17.6771L32.9668 17.8415L32.9418 18.0062L32.9082 18.1607L32.8668 18.3151L32.8254 18.459L32.7755 18.6029L32.7174 18.747L32.6513 18.8704L32.5852 19.004L32.5104 19.1171L32.4362 19.2302L32.3532 19.3435L32.2707 19.446L32.1876 19.5383L32.1049 19.6308L32.0136 19.713L31.9226 19.7951L31.8312 19.8668L31.732 19.9385L31.6406 20.0105L31.541 20.0724L31.4417 20.124L31.3504 20.1859L31.2511 20.2272L31.1515 20.2786L31.0518 20.32L30.9526 20.3613L30.8529 20.4027L30.7537 20.4335L30.654 20.4646L30.5548 20.4851L30.4551 20.5162L30.3555 20.5368L30.2645 20.5573L30.1649 20.5779L30.0658 20.5989L29.9745 20.6092L29.8752 20.6195L29.7838 20.64L29.6927 20.6503H29.6017L29.5104 20.6606L29.4194 20.6708H29.328L29.2453 20.6811H29.1623L29.0796 20.6914H28.3431L28.2932 20.6811H28.1685L27.8534 20.6708L27.53 20.6503L27.2149 20.5989L26.9081 20.5269L26.6012 20.4447L26.3027 20.3421L26.0045 20.2291L25.7226 20.0849L25.4408 19.941L25.1677 19.766L24.9023 19.5911L24.6454 19.3855L24.3962 19.1799L24.1557 18.954L23.9734 18.7589L23.9568 18.8103L23.9069 18.9442L23.857 19.0675L23.7993 19.1909L23.733 19.3037L23.6669 19.417L23.6008 19.5298L23.526 19.6326L23.4516 19.7354L23.3688 19.8279L23.2861 19.9205L23.1949 20.0127L23.1039 20.095L23.0043 20.1669L22.9129 20.2384L22.8054 20.3003L22.7057 20.3622L22.5982 20.4139L22.4903 20.455L22.3741 20.4966L22.2665 20.5274L22.1501 20.5582L22.0256 20.5788L21.9096 20.5891H21.6772L21.5779 20.5788L21.47 20.5685L21.3621 20.548L21.2628 20.5171L21.1549 20.486L21.0556 20.4447L20.9643 20.4036L20.8692 20.3529V20.3529ZM22.7347 10.3062L22.6271 10.625L22.5523 10.8923L22.1628 8.74303L22.1545 8.69163L22.138 8.58884L22.1297 8.53745L22.1214 8.48559L22.1131 8.4342L22.0965 8.38257L22.0882 8.33117L22.0794 8.26927L22.0715 8.21787L22.0545 8.16625L22.0461 8.10435L22.0295 8.04267L22.0129 7.99127L21.9963 7.9296L21.9798 7.8782L21.9715 7.82681L21.9549 7.77541L21.9383 7.73429L21.9217 7.69318L21.9048 7.64155L21.8882 7.60043L21.8632 7.54881L21.8464 7.50769L21.805 7.42546L21.7636 7.3535L21.7221 7.27127L21.6722 7.19931L21.6225 7.12736L21.5726 7.06568L21.5146 6.99373L21.4646 6.93205L21.407 6.87038L21.3405 6.8087L21.2827 6.74703L21.2162 6.69518L21.1586 6.64378L21.0926 6.59238L21.0179 6.54099L20.9517 6.49964L20.877 6.44825L20.8109 6.40713L20.7366 6.37629L20.662 6.33517L20.5794 6.30433L20.5046 6.2735L20.4219 6.24266L20.3471 6.2221L20.2644 6.20154L20.1814 6.18098L20.0989 6.16043L20.0158 6.15015L19.9333 6.13987L19.8419 6.12959H19.7593L19.6679 6.11931L19.5769 6.12959H19.4773L19.3863 6.13987L19.2867 6.15015L19.1957 6.1707L19.1044 6.19126L19.013 6.21182L18.9303 6.24266L18.839 6.2735L18.7565 6.30433L18.6734 6.34545L18.5909 6.38657L18.5082 6.42791L18.4252 6.46903L18.3504 6.52043L18.276 6.57182L18.2016 6.6335L18.127 6.6849L18.0611 6.7468L17.9863 6.81853L17.9202 6.88043L17.8623 6.95216L17.8041 7.02411L17.7467 7.09607L17.6889 7.1783L17.6307 7.26053L17.5809 7.34277L17.5395 7.425L17.4979 7.51752L17.4559 7.61003L17.4144 7.70254L17.3813 7.79505L17.3647 7.84645L17.3481 7.8983L17.3316 7.9497L17.3231 8.00133L17.3062 8.05272L17.2979 8.10412L17.2811 8.15574L17.2728 8.20714L17.2562 8.24826L17.248 8.29965L17.2397 8.35105L17.2314 8.39216L17.2148 8.44356L17.2065 8.48468L17.1982 8.5258L17.1899 8.56691L16.7338 10.5309L16.2612 8.46412L16.2529 8.43328L16.2446 8.39216L16.2363 8.36133L16.228 8.32021L16.2198 8.28937L16.2115 8.24826L16.2032 8.20714L16.1949 8.16602L16.1866 8.11463L16.1783 8.07351L16.17 8.03239L16.1535 7.981L16.1452 7.93988L16.1286 7.88848L16.112 7.84737L16.1037 7.79597L16.0706 7.70345L16.0291 7.61094L15.9877 7.51843L15.9463 7.42592L15.8965 7.34368L15.8468 7.26145L15.7969 7.17921L15.7391 7.09698L15.6811 7.02502L15.6231 6.95307L15.5568 6.88112L15.4905 6.81921L15.4241 6.74749L15.3578 6.68558L15.2833 6.63418L15.2087 6.57251L15.1341 6.52111L15.0595 6.46972L14.9766 6.4286L14.8937 6.38725L14.8109 6.34614L14.728 6.30502L14.6451 6.27418L14.554 6.24334L14.4628 6.21251L14.3715 6.19195L14.2803 6.17139L14.1891 6.15083L14.0978 6.14055L14.0066 6.13027H13.9072L13.8077 6.11999L13.7 6.13027H13.584L13.4762 6.15083L13.3602 6.16111L13.2525 6.19195L13.153 6.21251L13.0453 6.25362L12.9456 6.28446L12.8379 6.32581L12.7467 6.3772L12.6471 6.42883L12.5559 6.48022L12.4648 6.54213L12.3736 6.6038L12.2907 6.67576L12.2079 6.74771L12.125 6.81967L12.0504 6.9019L11.9758 6.98414L11.9012 7.06637L11.8349 7.15888L11.7769 7.26168L11.7189 7.35419L11.6609 7.45698L11.6112 7.55977L11.5697 7.67285L11.5283 7.78592L11.4868 7.89922L11.462 8.02257L11.4371 8.13564L11.4205 8.22815L11.403 8.32112L10.4082 14.0284L10.3916 13.9976L10.3419 13.874L10.2756 13.7504L10.2176 13.6376L10.1513 13.514L10.085 13.4011L10.0104 13.2983L9.93579 13.1853L9.8612 13.0825L9.77832 12.99L9.69545 12.8977L9.6041 12.8052L9.52123 12.7126L9.43006 12.6309L9.43835 12.6101L9.48808 12.5281L9.5378 12.4356L9.58753 12.3431L9.62915 12.2508L9.67059 12.1583L9.71202 12.0657L9.75346 11.9632L9.78661 11.8707L9.81976 11.7681L9.85291 11.6651L9.88606 11.5627L9.91921 11.4494L9.94407 11.3469L9.96894 11.2336L9.9938 11.1308L10.0104 11.0177L10.0352 10.9049L10.0518 10.7916L10.0684 10.6785L10.0767 10.5551L10.085 10.4421L10.0932 10.3288L10.1015 10.2054V10.08L10.1098 9.95644L10.1015 9.76113L10.0932 9.56606L10.0767 9.38103L10.0601 9.18572L10.0269 9.00047L9.9938 8.81544L9.96065 8.64047L9.91092 8.46572L9.86101 8.29097L9.81129 8.1265L9.75328 7.96204L9.68698 7.79757L9.61239 7.64315L9.54609 7.49924L9.46303 7.34505L9.38015 7.21142L9.28899 7.07779L9.19783 6.95421L9.10667 6.83086L8.99893 6.71756L8.89948 6.61477L8.79174 6.51198L8.67553 6.41946L8.55951 6.33723L8.43519 6.26527L8.31088 6.19332L8.18657 6.13164L8.05397 6.09053L7.92118 6.04941L7.78858 6.01857L7.65598 6.00829L7.52338 5.99801H2.23981L2.13207 6.00829L2.00776 6.02885L1.89984 6.06997L1.7921 6.12136L1.68436 6.18304L1.58491 6.255L1.49375 6.33723L1.41069 6.42974L1.3361 6.53253L1.2698 6.64561L1.21179 6.76896L1.16207 6.89231L1.12063 7.02594L1.08748 7.16985L1.0709 7.31376V18.7075L1.08748 18.8519L1.12063 18.9956L1.16207 19.1294L1.21179 19.2633L1.2698 19.3761L1.3361 19.4894L1.41069 19.592L1.49375 19.6948L1.58491 19.777L1.68436 19.8485L1.7921 19.9104L1.89984 19.962L2.00776 19.9931L2.13207 20.0239H7.93555L8.09301 20.0034L8.24219 19.9828L8.39155 19.9415L8.54072 19.9001L8.68179 19.8382L8.82268 19.7763L8.96375 19.7046L9.09635 19.6226L9.22895 19.5298L9.35327 19.4273L9.47758 19.3245L9.5936 19.2114L9.70963 19.0881L9.81737 18.9647L9.91682 18.8309L10.008 18.7075L10.0494 18.8103L10.0991 18.9133L10.1491 19.0159L10.1988 19.1082L10.2568 19.1904L10.3148 19.2829L10.3811 19.3649L10.4474 19.4469L10.522 19.5187L10.5883 19.5906L10.6629 19.6525L10.7458 19.7144L10.8286 19.7763L10.9115 19.8279L10.9946 19.8796L11.0774 19.9209L11.1686 19.962L11.2598 19.9931L11.3592 20.0137L11.4504 20.0342L11.5498 20.055L11.6412 20.0653H11.8235L11.9064 20.055L11.9892 20.0447L12.0721 20.0342L12.155 20.0137L12.2379 19.9828L12.3125 19.962L12.3871 19.9312L12.4616 19.8899L12.5362 19.8485L12.6108 19.8074L12.6771 19.766L12.7517 19.7144L12.818 19.6628L12.876 19.6009L12.9423 19.539L13.0003 19.4771L13.0583 19.4152L13.1164 19.3435L13.1744 19.2717L13.2241 19.1998L13.274 19.1283L13.3154 19.046L13.3653 18.9638L13.4068 18.8818L13.4399 18.7996L13.4814 18.7071L13.5145 18.6148L13.5394 18.5225L13.5725 18.43L13.614 18.255L14.07 15.9723L14.4928 17.813L14.5094 17.8648L14.5175 17.9162L14.5341 17.9679L14.5424 18.0195L14.5589 18.0711L14.5672 18.1227L14.5838 18.1741L14.5921 18.2258L14.6087 18.2877L14.6252 18.3393L14.6418 18.4012L14.6584 18.4528L14.6832 18.5147L14.7081 18.5764L14.7247 18.6383L14.7578 18.7002L14.791 18.7717L14.8241 18.8437L14.8656 18.9254L14.907 18.9974L14.9567 19.0593L14.9982 19.1312L15.0479 19.1929L15.0976 19.2649L15.1556 19.3265L15.2054 19.3784L15.2634 19.4401L15.3214 19.4917L15.3794 19.5536L15.4374 19.5947L15.5037 19.6463L15.5617 19.698L15.628 19.7391L15.6943 19.7807L15.7606 19.8218L15.8269 19.8526L15.9015 19.8839L15.9678 19.9147L16.0426 19.9456L16.1172 19.9661L16.1918 19.9974L16.2663 20.018L16.3409 20.0283L16.4155 20.0488L16.4984 20.0591H16.573L16.6559 20.0694H16.8133L16.8879 20.0591H16.9625L17.0373 20.0488L17.1117 20.0283L17.1864 20.018L17.2607 19.9974L17.3353 19.9769L17.4014 19.9559L17.4758 19.925L17.5423 19.8942L17.6167 19.8629L17.683 19.8321L17.7489 19.7909L17.8067 19.7494L17.8732 19.7083L17.9393 19.6669L17.997 19.6256L18.055 19.5742L18.1128 19.5225L18.1706 19.4709L18.2288 19.4193L18.2786 19.3574L18.3283 19.2955L18.3782 19.2439L18.4279 19.1721L18.4776 19.1102L18.5198 19.0486L18.5613 18.9768L18.6027 18.9049L18.6441 18.8329L18.6776 18.7614L18.711 18.6995L18.736 18.6376L18.7609 18.586L18.7858 18.5241L18.8023 18.4725L18.8189 18.4106L18.8438 18.3589L18.8607 18.297L18.8773 18.2454L18.894 18.1938L18.9023 18.1319L18.9189 18.0805L18.9357 18.0286L18.944 17.9667L18.9605 17.9153L18.9688 17.8639L19.4331 15.8586L19.9055 18.1517V18.1723L19.9305 18.2751L19.9554 18.3779L19.9804 18.4809L20.0136 18.5832L20.0471 18.6758L20.0803 18.7683L20.1217 18.8608L20.1635 18.9428L20.2132 19.0351L20.2549 19.1171L20.3125 19.1993L20.3624 19.2713L20.4202 19.3533L20.4781 19.425L20.544 19.4869L20.602 19.5589L20.6681 19.6205L20.7429 19.6724L20.809 19.7341L20.8836 19.7859L20.958 19.827L21.0322 19.8682L21.1153 19.9097L21.1897 19.9508L21.2727 19.9716L21.3554 20.0027L21.4385 20.0233L21.5295 20.0438L21.6123 20.0541L21.7033 20.0644H21.8855L21.9851 20.0541L22.0847 20.0335L22.1757 20.013L22.2671 19.9922L22.358 19.9611L22.4494 19.92L22.5404 19.8789L22.6234 19.827L22.7061 19.7756L22.7892 19.7137L22.8636 19.6518L22.9382 19.5902L23.0124 19.5184L23.0868 19.4465L23.1533 19.3647L23.2111 19.2825L23.2776 19.1899L23.3273 19.1079L23.3851 19.0152L23.4349 18.9129L23.4848 18.8098L23.5262 18.7071L23.5594 18.6045L23.6012 18.5019L23.626 18.3886L23.6511 18.2756L23.6759 18.1522L23.6927 18.0391L23.7093 17.9158V17.8027L23.7176 17.7102L23.8089 17.8441L23.9995 18.0908L24.2067 18.3169L24.4222 18.543L24.6463 18.7486L24.8784 18.954L25.1187 19.1292L25.3677 19.3039L25.6248 19.4584L25.8817 19.6023L26.1554 19.7256L26.4287 19.8387L26.7024 19.9312L26.9926 20.0134L27.2823 20.0751L27.5725 20.127L27.8794 20.1475L28.1694 20.1578H28.402L28.4518 20.1683H28.9897L29.0728 20.1578H29.2301L29.3126 20.1475H29.3956L29.4783 20.1372L29.5697 20.127H29.6523L29.7437 20.1165L29.8347 20.1062L29.926 20.0854L30.0087 20.0751L30.1001 20.0545L30.191 20.0443L30.2824 20.0237L30.3735 20.0032L30.4645 19.9721L30.5559 19.9513L30.6467 19.9205L30.738 19.8896L30.829 19.8583L30.9203 19.8275L31.003 19.7864L31.0944 19.7448L31.1854 19.6934L31.2684 19.6518L31.3511 19.6004L31.4342 19.549L31.5167 19.4871L31.5997 19.4252L31.6822 19.3633L31.757 19.2916L31.8397 19.2196L31.9145 19.1481L31.9806 19.0659L32.0467 18.9734L32.113 18.8914L32.1789 18.7989L32.2368 18.6963L32.295 18.5935L32.3447 18.4905L32.3946 18.3777L32.436 18.2543L32.4692 18.1412L32.5023 18.0179L32.5274 17.8843L32.5522 17.7607L32.5607 17.627L32.5777 17.4831V13.6789L32.5694 13.5864L32.5607 13.4939L32.544 13.4016L32.5274 13.3091L32.5106 13.2166L32.4858 13.1346L32.4526 13.0525L32.4277 12.9705L32.3946 12.8883L32.3528 12.8061L32.3195 12.7343L32.2778 12.6626L32.2281 12.5909L32.1782 12.5192L32.1285 12.4573L32.0787 12.3954L32.0206 12.3335L31.9708 12.2818L31.9047 12.2302L31.8465 12.1786L31.7804 12.1272L31.7224 12.0858L31.6482 12.0548L31.5821 12.0137L31.5156 11.9828L31.4412 11.962L31.3664 11.9415L31.2922 11.9207L31.218 11.9104L31.1432 11.9001H28.5897L28.5066 11.9104L28.4074 11.931L28.316 11.9518L28.2251 11.9931L28.142 12.0445L28.0593 12.1064L27.9847 12.1781L27.9188 12.2501L27.861 12.3323L27.8028 12.4246L27.753 12.5274L27.7116 12.6302L27.6783 12.743L27.6611 12.8563L27.6446 12.9795L27.6363 13.0822V13.7301L27.6446 13.8431L27.6611 13.9562L27.6783 14.0796L27.7116 14.1824L27.753 14.2954L27.8028 14.3877L27.861 14.4802L27.9188 14.5625L27.9847 14.6445L28.0593 14.7064L28.142 14.768L28.2251 14.8197L28.316 14.861L28.4074 14.8919L28.5066 14.9124H28.6724V15.4785L28.6558 15.4887L28.6059 15.5093L28.5643 15.5198L28.5146 15.5301L28.4647 15.5404L28.4149 15.5506L28.3652 15.5609L28.3153 15.5714L28.2575 15.5817H28.1413L28.0088 15.592H27.7847L27.6772 15.5714L27.5775 15.5609L27.4783 15.5301L27.3786 15.499L27.279 15.4577L27.188 15.4165L27.0967 15.3649L27.014 15.303L26.9309 15.2411L26.8484 15.1794L26.7736 15.1075L26.6994 15.0253L26.6329 14.9435L26.5668 14.8612L26.509 14.769L26.451 14.6659L26.3933 14.5737L26.3434 14.4709L26.2935 14.3578L26.2517 14.2449L26.2186 14.1316L26.1854 14.0188L26.1605 13.8952L26.1355 13.7716L26.1184 13.6382L26.1018 13.5044L26.0935 13.371V13.1033L26.1018 12.9594L26.1184 12.8154L26.1355 12.6816L26.1605 12.5582L26.1854 12.4246L26.2186 12.301L26.2517 12.188L26.2935 12.0646L26.3351 11.9518L26.385 11.8487L26.4348 11.7462L26.4847 11.6434L26.5423 11.5511L26.6 11.4586L26.6664 11.3766L26.7326 11.2943L26.7987 11.2121L26.8733 11.1404L26.9475 11.0687L27.0305 11.0068L27.1049 10.9448L27.1963 10.8829L27.279 10.8313L27.3703 10.7902L27.4613 10.7491L27.5527 10.7077L27.6523 10.6769L27.7516 10.6563L27.8512 10.6358L27.9587 10.6152H28.0667L28.1746 10.6049H28.2658L28.3157 10.6152H28.3577L28.3991 10.6255H28.4488L28.4904 10.6358L28.5324 10.6461L28.5822 10.6563L28.6236 10.6666L28.6654 10.6769L28.707 10.6872L28.7486 10.7077L28.7901 10.718L28.8315 10.7388L28.898 10.7594L28.9229 10.7696H28.9394L28.9809 10.7902L29.0229 10.8005L29.0645 10.821L29.1059 10.8313L29.1474 10.8418L29.1894 10.8521L29.231 10.8624L29.2724 10.8727L29.3138 10.8829H29.3557L29.4056 10.8932H29.6293L29.7207 10.8829L29.8199 10.8727L29.9113 10.8521L30.0021 10.821L30.0851 10.79L30.1761 10.7489L30.2592 10.7075L30.3419 10.6664L30.4249 10.615L30.4993 10.5531L30.5741 10.4912L30.6483 10.4295L30.7229 10.3678L30.789 10.2856L30.8551 10.2139L30.9133 10.1316L30.971 10.0494L31.0286 9.96718L31.0785 9.87466L31.1283 9.78215L31.1699 9.67936L31.2119 9.57656L31.2533 9.47377L31.2865 9.37098L31.3196 9.26819L31.3445 9.15511L31.3612 9.04181L31.3778 8.92874L31.3949 8.81567L31.4032 8.69209V8.48651L31.3949 8.39399L31.3866 8.30148L31.3778 8.21925L31.3695 8.12673L31.3529 8.0445L31.3362 7.96226L31.3113 7.88003L31.2947 7.78752L31.2699 7.71556L31.2367 7.63333L31.2119 7.55109L31.1782 7.47914L31.145 7.40718L31.1034 7.33523L31.0702 7.2635L31.0284 7.19155L30.987 7.11959L30.9454 7.05792L30.8955 6.99624L30.8456 6.93457L30.7957 6.87289L30.7459 6.82127L30.696 6.76987L30.6384 6.7082L30.5807 6.66708L30.5308 6.61568L30.4647 6.57456L30.4069 6.53345L30.3489 6.49233L30.2247 6.42038L30.1417 6.38954L30.084 6.3587L30.0262 6.33814L29.968 6.31758L29.9021 6.28675L29.8441 6.26619L29.7862 6.24563L29.7201 6.22507L29.6619 6.20451L29.596 6.18395L29.5383 6.17367L29.4719 6.15312L29.414 6.13256L29.3475 6.12228L29.2899 6.10172L29.224 6.09144L29.1575 6.08116L29.0914 6.07088L29.0335 6.05032L28.9672 6.04004L28.9013 6.02977H28.8348L28.777 6.01949L28.7109 6.00921L28.6446 5.99893H28.5787L28.5122 5.98865H28.3799L28.3135 5.97837H28.1816L27.8831 5.98865L27.5762 6.01949L27.286 6.0606L26.9961 6.12228L26.7059 6.20451L26.4322 6.29703L26.1591 6.4101L25.8856 6.53368L25.6285 6.67759L25.3714 6.83178L25.1222 7.00652L24.8817 7.19178L24.6496 7.38708L24.4255 7.59267L24.21 7.81904L24.0028 8.05546L23.8122 8.30239L23.6216 8.55937L23.4476 8.82663L23.282 9.10418L23.1247 9.39222L22.9835 9.69055L22.8507 9.98865L22.7347 10.3062V10.3062Z" fill="#E5A430"/>
</svg>
