<svg width="33" height="21" viewBox="0 0 33 21" fill="none" xmlns="http://www.w3.org/2000/svg">
<path fill-rule="evenodd" clip-rule="evenodd" d="M0.640137 0.691406H32.9069V16.7378H19.5615V10.09H16.6362V16.7378H15.0823V12.1991H13.6199V16.7378H0.640137V0.691406ZM1.73676 6.28477C3.44275 5.90289 5.14894 5.52079 6.85566 5.13859C13.7072 0.348698 22.6079 2.16213 25.777 4.4509C18.4032 2.08225 12.949 3.28962 10.2378 4.9094C30.9574 3.83159 36.1372 10.1585 24.9542 12.4741C34.8564 8.48537 22.2727 5.23025 9.14106 5.55115C5.98654 8.4699 7.02202 10.6247 9.96348 12.5657C6.79188 11.348 4.68845 9.56819 6.39865 5.7804C4.84458 5.94866 3.29051 6.11672 1.73676 6.28477V6.28477Z" fill="#CC2229"/>
<path fill-rule="evenodd" clip-rule="evenodd" d="M5.70608 18.4597H6.93027L6.95484 18.6989C7.30928 18.4292 7.80224 18.334 8.43353 18.4128C8.38493 18.6373 8.33601 18.8621 8.28709 19.0868C7.66087 18.9586 7.26869 19.1186 7.03159 19.4496L7.03633 19.4938L7.03665 20.6419H5.70608V18.4597V18.4597ZM1.06592 17.7253V20.6214C1.78892 20.6228 2.51235 20.6245 3.23577 20.6261C5.50852 20.6559 5.50525 19.4494 4.21105 19.1262C5.42154 18.8071 5.13342 17.7277 3.25348 17.7271C2.52394 17.732 1.79472 17.7206 1.06592 17.7253V17.7253ZM2.47935 18.3079H3.05739C3.74413 18.3406 3.71155 18.8439 3.05739 18.866H2.47935V18.3079ZM2.47935 19.4462H3.10378C3.84565 19.4818 3.81055 20.0292 3.10378 20.0533H2.47935V19.4462ZM15.5882 17.6467H16.919V20.6308H15.6813V20.3446C14.3004 21.0576 12.8525 20.4871 12.8062 19.4959C12.8801 18.5857 14.1113 18.0793 15.5882 18.6548V17.6467V17.6467ZM14.876 19.0018C15.2537 19.0018 15.5614 19.2447 15.5614 19.5427C15.5614 19.8406 15.2537 20.0834 14.876 20.0834C14.4984 20.0834 14.1907 19.8405 14.1907 19.5427C14.1907 19.2446 14.4984 19.0018 14.876 19.0018V19.0018ZM8.98089 18.5751C8.98701 18.7494 8.99365 18.9238 9.0005 19.0984C9.87721 18.8519 10.9391 18.8114 10.942 19.2485C9.51297 19.1902 8.55909 19.3748 8.57364 20.0179C8.58597 20.5704 9.88891 20.8853 11.0001 20.4163C11.0062 20.4873 11.0127 20.5584 11.0193 20.6296C11.4216 20.631 11.8243 20.6326 12.2269 20.6343C12.2654 19.9607 12.2668 19.4246 12.157 19.0472C11.7853 18.4179 10.8093 18.2277 8.98089 18.5751V18.5751ZM10.9419 19.6797C10.9187 19.9077 10.8009 20.0564 10.5621 20.1112C10.126 20.2109 9.61355 20.0155 9.94627 19.8033C10.0931 19.7095 10.4269 19.6527 10.9419 19.6797V19.6797Z" fill="white"/>
<path fill-rule="evenodd" clip-rule="evenodd" d="M18.8225 19.783C19.6473 19.7874 20.4726 19.7918 21.2982 19.7963C21.5244 19.0018 20.6726 18.4078 19.5013 18.3944C17.0506 18.2989 16.6624 20.6085 19.4879 20.6909C20.0022 20.69 20.5164 20.6531 21.0319 20.5641C21.0184 20.3615 21.005 20.159 20.9919 19.9566C19.5695 20.3909 18.9163 20.0531 18.8225 19.783V19.783ZM18.796 19.2957L20.1135 19.309C20.0819 18.7623 18.8551 18.8136 18.796 19.2957ZM24.4661 19.1155C24.5147 18.9153 24.5636 18.7149 24.6126 18.5145C22.861 18.2098 21.7495 18.5833 21.7107 19.0753C21.6973 19.8699 23.6544 19.656 23.4677 20.0433C23.1024 20.2524 22.4903 20.1166 21.8706 19.9498C21.8311 20.1544 21.7911 20.3591 21.751 20.564C23.4155 20.7934 24.5684 20.7035 24.812 20.0433C24.9707 19.1584 23.0118 19.3623 23.0284 19.0352C23.0421 18.8686 23.8409 18.8417 24.4661 19.1155V19.1155ZM28.2462 19.122C28.2725 18.9218 28.299 18.7216 28.3259 18.5212C26.8643 18.2031 25.1431 18.5523 25.1449 19.5627C25.1996 20.5188 26.7892 20.8964 28.3791 20.584C28.361 20.3726 28.3433 20.1611 28.3259 19.9498C27.3991 20.3186 26.5609 20.0161 26.5289 19.5425C26.5029 19.1487 27.0483 18.7681 28.2462 19.122V19.122ZM30.9614 18.4078C29.6552 18.4296 28.8347 18.7394 28.8054 19.5627C28.8129 20.1124 29.3537 20.6969 30.948 20.6842C31.9105 20.7196 33.0598 20.3615 32.9978 19.5493C32.9475 18.99 32.5086 18.4343 30.9614 18.4078ZM30.9016 18.9552C31.2938 18.9552 31.6135 19.2146 31.6135 19.5327C31.6135 19.8507 31.2938 20.1101 30.9016 20.1101C30.5087 20.1101 30.1891 19.8507 30.1891 19.5327C30.1891 19.2146 30.5087 18.9552 30.9016 18.9552Z" fill="white"/>
</svg>
