<svg width="33" height="21" viewBox="0 0 33 21" fill="none" xmlns="http://www.w3.org/2000/svg">
<path fill-rule="evenodd" clip-rule="evenodd" d="M13.7512 15.2228L10.5152 13.8782L25.9018 7.45288L16.4026 3.49684L11.9348 5.3585L15.4005 6.78061L7.40442 10.0902L0.702769 7.34945L16.841 0.691406L32.854 7.3236L13.7512 15.2228ZM19.8265 6.10834L23.0625 7.45288L7.67583 13.8782L17.1959 17.8343L21.6637 15.9726L18.198 14.5634L26.215 11.2538L32.9166 13.9946L16.7366 20.6397L0.765401 14.0334L19.8265 6.10834ZM7.27916 18.0023L3.98052 16.6061L0.640137 18.0023L0.681892 20.6914L7.27916 18.0023ZM26.4446 3.43219L29.7641 4.82845L33.0001 3.49684V0.743119L26.4446 3.43219Z" fill="#003DA4"/>
</svg>
