<svg width="33" height="21" viewBox="0 0 33 21" fill="none" xmlns="http://www.w3.org/2000/svg">
<path fill-rule="evenodd" clip-rule="evenodd" d="M4.62068 16.8009L4.59719 16.8558C4.22024 17.767 3.78381 18.2503 3.3345 18.2503C2.39647 18.2503 1.7153 16.5793 1.7153 14.2739C1.7153 11.973 2.39647 10.3011 3.3345 10.3011C3.78381 10.3011 4.22024 10.7852 4.59719 11.6983L4.62068 11.7545L5.22399 10.0223L5.20789 9.97558C4.70649 8.56798 4.10412 7.88373 3.36386 7.88373C2.62151 7.88373 1.94204 8.47717 1.45276 9.54669C0.920673 10.7061 0.640137 12.3399 0.640137 14.2744C0.640137 16.2093 0.920673 17.8471 1.45276 19.0061C1.94204 20.081 2.62132 20.6704 3.36386 20.6704C4.10412 20.6704 4.70649 19.9861 5.20789 18.5781L5.22399 18.5345L4.62068 16.8009V16.8009ZM5.83375 20.4334H6.89982V8.08334H5.83375V20.4334V20.4334ZM11.0759 17.7486C10.791 18.1595 10.5265 18.3668 10.2884 18.3668C9.94405 18.3668 9.78815 17.9352 9.78815 16.974V10.4202H10.8743V8.09458H9.78815V4.25122L8.74348 5.57879V8.09458H7.84221V10.4202H8.74348V17.3926C8.74348 19.2906 9.21742 20.5881 9.92567 20.6236C10.4059 20.6456 10.6955 20.3058 10.8713 20.0567L10.8821 20.0396L11.1384 17.6578L11.0759 17.7486V17.7486ZM11.9582 20.4334H13.0252V8.08334H11.9582V20.4334V20.4334Z" fill="white"/>
<path fill-rule="evenodd" clip-rule="evenodd" d="M13.6468 5.91764C12.6729 2.64388 11.0558 0.691406 9.41049 0.691406C7.76554 0.691406 6.14786 2.64433 5.17574 5.91764L5.12573 6.08578H6.35225L6.36532 6.05072C7.2003 4.00788 8.29005 2.92621 9.41049 2.92621C10.5309 2.92621 11.6201 4.00788 12.4564 6.05072L12.4706 6.08578H13.6958L13.6468 5.91764Z" fill="#CC2131"/>
<path fill-rule="evenodd" clip-rule="evenodd" d="M15.061 11.0184L15.0466 11.0638V17.4526L15.057 17.4917C15.3928 18.724 15.9401 19.4613 16.5214 19.4613C17.4202 19.4613 17.876 17.6635 17.876 14.1195C17.876 10.9514 17.3713 9.13741 16.4915 9.13741C15.9577 9.13696 15.4764 9.76995 15.061 11.0184V11.0184ZM33.0003 20.3901V20.4333H32.3563C32.3197 20.2579 31.007 13.661 31.007 13.661L30.0269 16.9217V20.4337H29.4187V4.20924C29.4719 4.13685 29.8833 3.57669 30.0269 3.38473V15.1652L30.3595 13.9397C30.3584 13.9437 31.8509 8.81641 32.0418 8.16274H32.7078C32.5661 8.61276 31.393 12.4453 31.393 12.4453C31.393 12.4453 32.8482 19.6474 33.0003 20.3901V20.3901ZM20.8742 20.6913H20.616C20.092 20.6194 19.1483 20.0421 19.1483 16.8282C19.1483 13.973 20.1413 12.9596 21.0714 12.9596C21.539 12.9596 22.0003 13.2145 22.3348 13.661L22.4354 13.7918V12.0308C22.4354 10.0779 22.0336 9.08885 21.239 9.08885C20.7491 9.08885 20.307 9.38062 19.8545 9.98799C19.8138 9.76995 19.6732 9.03131 19.6344 8.82271C20.1079 8.22883 20.6929 7.89749 21.2888 7.89749C22.4697 7.89749 23.044 9.17742 23.044 11.815V20.4333H22.4354V18.6435L22.3174 18.9542C21.9016 20.0408 21.4292 20.614 20.8742 20.6913ZM16.6928 20.6913H16.4521C15.9488 20.6176 15.5374 20.0988 15.1648 19.0756L15.0466 18.7478V20.4333H14.4395V4.20879C14.4908 4.13641 14.9039 3.57624 15.0466 3.38428V9.94933L15.164 9.64317C15.6126 8.46845 16.1083 7.89749 16.6786 7.89749C17.8199 7.89749 18.4751 10.1543 18.4751 14.0935C18.4749 17.9723 17.779 20.5259 16.6928 20.6913V20.6913ZM19.7443 16.709C19.7443 18.5446 20.1449 19.5539 20.8727 19.5539C21.4923 19.5539 22.0422 18.8593 22.4237 17.5965L22.4354 17.5533V14.8631L22.4013 14.8164C22.0128 14.2908 21.6159 14.0782 21.031 14.0782C20.2263 14.0786 19.7443 15.0623 19.7443 16.709V16.709ZM25.029 9.62429C25.3427 8.51161 25.8344 7.89749 26.4101 7.89749C27.557 7.89749 28.1653 9.63373 28.1653 12.9196V20.4333H27.5551V13.2307C27.5551 10.4358 27.146 9.13696 26.2606 9.13696C25.4122 9.13696 24.9055 10.6686 24.9055 13.2307V20.4333H24.2976V8.16274H24.9055V10.0649L25.029 9.62429V9.62429Z" fill="white"/>
</svg>
