<svg width="33" height="21" viewBox="0 0 33 21" fill="none" xmlns="http://www.w3.org/2000/svg">
<path d="M3.68516 0.702996C3.44444 0.777335 3.35703 0.81646 3.1974 0.914275C2.57915 1.2938 2.02424 2.17804 1.58969 3.47702C0.944838 5.40592 0.611642 8.06648 0.642048 11.0479C0.659784 12.6716 0.767471 14.0371 0.985379 15.3713C1.46807 18.3174 2.37264 20.2033 3.51412 20.6415C3.68642 20.708 4.22612 20.708 4.40096 20.6415C5.15096 20.3559 5.77175 19.4443 6.28231 17.8753C6.78274 16.3377 7.07539 14.4323 7.18181 12.0143L7.18942 11.8304H6.15182H5.11422L5.09142 12.0925C5.03314 12.7655 4.91405 13.415 4.76202 13.8845C4.61633 14.3383 4.47317 14.6083 4.27807 14.7922C4.17671 14.8861 4.14758 14.8978 3.96387 14.8939C3.79538 14.8939 3.7447 14.8822 3.65982 14.8118C3.23414 14.4518 2.92501 13.4072 2.81479 11.9517C2.77932 11.4704 2.76918 10.3084 2.79705 9.76845C2.868 8.3834 3.09604 7.34265 3.44444 6.82228C3.63701 6.53274 3.70796 6.48971 3.97021 6.48971C4.18812 6.48971 4.19445 6.49362 4.31481 6.62273C4.66701 6.99443 4.93939 7.8239 5.08509 8.96246L5.12689 9.2872H6.14675H7.16661L7.15774 9.07984C7.14381 8.70814 7.09947 8.06648 7.05386 7.58132C6.81821 5.04988 6.27724 3.00359 5.5247 1.79461C5.19151 1.25858 4.86591 0.949488 4.45923 0.777335C4.32494 0.718646 3.79284 0.667782 3.68516 0.702996Z" fill="white"/>
<path d="M8.50701 3.73249C7.92423 6.7217 7.84695 7.13252 7.70506 8.0285C7.46941 9.51137 7.33639 10.7399 7.27178 12.0428C7.23124 12.8566 7.23124 14.1595 7.27051 14.856C7.31612 15.6502 7.37946 16.241 7.48968 16.8905C7.78867 18.6551 8.37905 19.9971 9.05558 20.451C9.56741 20.7953 10.1667 20.7522 10.6443 20.3375C11.4348 19.6489 12.0265 17.8491 12.219 15.5446C12.2773 14.8481 12.2951 14.3591 12.2951 13.4866C12.2951 12.4732 12.2596 11.7885 12.1696 11.049C11.9644 9.36269 11.5032 8.00503 10.9407 7.42596C10.6836 7.15991 10.3086 7.01514 10.0058 7.05818L9.86893 7.08166L10.3681 4.52283C10.643 3.1143 10.8901 1.85053 10.9179 1.70968C10.9458 1.56883 10.9749 1.41624 10.9838 1.36537L10.999 1.2793H9.99182H8.9859L8.50701 3.73249ZM10.0463 11.1116C10.382 11.4755 10.5759 12.4615 10.5493 13.6626C10.5341 14.363 10.472 14.8012 10.3276 15.2472C10.1705 15.7285 10.0159 15.9124 9.76885 15.9124C9.53447 15.9124 9.35584 15.7011 9.21141 15.2472C9.05811 14.7699 8.99477 14.2456 8.99477 13.467C8.99477 12.6767 9.05938 12.1602 9.21774 11.6633C9.31783 11.3503 9.44072 11.1351 9.57881 11.0412C9.70804 10.9512 9.92848 10.9864 10.0463 11.1116Z" fill="white"/>
<path d="M13.6544 1.3303C13.6506 1.35769 13.6494 5.57937 13.6506 10.7127L13.6544 20.0442H14.725C15.9095 20.0442 15.9006 20.0442 16.1502 19.786C16.581 19.336 16.9648 18.1466 17.1245 16.7772C17.2322 15.8538 17.2562 14.7192 17.1878 13.698C17.07 11.8943 16.6874 10.4936 16.1464 9.89104L16.0679 9.80105L16.1452 9.66019C16.4948 9.02244 16.7229 7.97778 16.7976 6.66707C16.8217 6.24451 16.8204 5.33679 16.7963 4.89858C16.7343 3.79914 16.562 2.89925 16.2795 2.20281C16.0818 1.71374 15.8322 1.41638 15.5472 1.32248C15.3508 1.25988 13.662 1.2677 13.6544 1.3303ZM15.5991 2.04631C16.04 2.25367 16.377 3.10271 16.5214 4.37821C16.6595 5.59111 16.6101 7.04659 16.3985 8.00517C16.2389 8.73291 16.0172 9.21807 15.7397 9.45283L15.6181 9.55455L14.7414 9.5702L13.8635 9.58194V5.78282V1.98762H14.6717C15.3128 1.98762 15.5041 1.99936 15.5991 2.04631ZM15.7828 10.3214C16.1059 10.4662 16.3821 10.8966 16.6025 11.6047C16.8673 12.4577 16.9864 13.3889 17.0016 14.7231C17.0092 15.4352 16.9915 15.8851 16.9344 16.4055C16.7989 17.6614 16.4568 18.7374 16.0653 19.1443C15.8664 19.3477 15.7993 19.3595 14.7921 19.3595H13.8635V14.8209V10.2823H14.7794C15.3166 10.2823 15.7309 10.2979 15.7828 10.3214Z" fill="white"/>
<path d="M19.971 1.32042C19.9443 1.42997 17.7222 19.9365 17.7285 19.9913C17.7387 20.0695 17.9173 20.0813 17.9376 20.003C17.9439 19.9795 18.1035 18.6688 18.2923 17.0999L18.6344 14.2437L20.0394 14.2319L21.4456 14.2241L21.7915 17.1077C21.9815 18.6962 22.1437 20.0069 22.1513 20.0226C22.1716 20.0656 22.3261 20.0578 22.3477 20.0187C22.3629 19.9874 22.1614 18.2854 21.2391 10.6363L20.1128 1.29303L20.0482 1.28129C20.0064 1.27347 19.9798 1.28912 19.971 1.32042ZM20.702 8.0618C21.0592 11.008 21.3544 13.4533 21.3582 13.4886C21.3633 13.5551 21.2949 13.559 20.0432 13.559C18.7623 13.559 18.7243 13.5551 18.7281 13.4846C18.737 13.332 20.0368 2.6507 20.0444 2.67417C20.0482 2.68982 20.3447 5.11171 20.702 8.0618Z" fill="white"/>
<path d="M23.7652 1.32388C23.7436 1.39039 23.7436 19.9439 23.7652 20.0104C23.7867 20.0769 23.9451 20.073 23.9641 20.0065C23.9742 19.9673 23.9793 17.6433 23.9806 11.4066L23.9844 2.86544L25.9468 11.4301C27.0262 16.1447 27.9156 20.0104 27.9232 20.0299C27.9308 20.0456 27.9574 20.0534 27.9814 20.0495L28.0258 20.0378V10.6671V1.29649L27.9498 1.28475C27.9092 1.27693 27.8623 1.28084 27.8459 1.29649L27.8167 1.31605L27.8142 9.83766L27.8104 18.3593L25.8657 9.87287C24.7964 5.20516 23.9134 1.35909 23.9045 1.3317C23.883 1.26519 23.7854 1.26128 23.7652 1.32388Z" fill="white"/>
<path d="M29.3854 1.32735C29.3816 1.35474 29.3803 5.57641 29.3816 10.7097L29.3854 20.0412L29.4614 20.053C29.5019 20.0608 29.5488 20.0569 29.5653 20.0412L29.5944 20.0217V16.9386V13.8594L30.0771 12.1065L30.5598 10.3576L31.6569 15.1975L32.7553 20.0412L32.863 20.053C32.9897 20.0647 33.0176 20.0295 32.991 19.8965C32.9809 19.8456 32.4652 17.5724 31.8457 14.8375C31.2262 12.1065 30.7169 9.85287 30.7144 9.82939C30.7118 9.80983 31.2224 7.90831 31.8495 5.60771C32.5311 3.11149 32.9897 1.40169 32.9872 1.36256C32.9834 1.3117 32.9619 1.29605 32.8668 1.28822C32.7541 1.27648 32.7503 1.2804 32.7186 1.38604C32.6996 1.44473 31.9914 4.03877 31.1426 7.14927L29.6008 12.803L29.597 7.07493C29.5944 2.54807 29.5906 1.33517 29.5779 1.3117C29.5513 1.26083 29.3917 1.27257 29.3854 1.32735Z" fill="white"/>
</svg>
