<svg width="33" height="21" viewBox="0 0 33 21" fill="none" xmlns="http://www.w3.org/2000/svg">
<path d="M17.357 1.64026C17.0208 2.14964 16.6125 3.30731 16.4685 4.18714C16.3244 5.06697 16.0362 5.80789 15.8441 5.80789C15.6519 5.80789 15.5078 6.08572 15.5078 6.45618C15.5078 6.82664 15.4358 7.42863 15.3638 7.84539C15.2677 8.35477 15.3397 8.5863 15.6279 8.5863C15.8921 8.5863 15.9882 8.86414 15.8921 9.37352C15.82 9.83659 15.6519 11.5499 15.4838 13.217C15.1236 16.9216 14.9075 17.8477 14.3311 17.8477C13.9228 17.8477 13.6106 19.0054 13.5866 20.4409C13.5866 20.9503 15.6519 20.6261 16.1803 19.9778C16.7086 19.3758 17.1169 17.2457 17.5491 12.8465C17.8854 9.37352 18.0535 8.5863 18.3897 8.5863C18.8219 8.5863 19.1101 7.70647 19.1101 6.45618C19.1101 6.08572 18.942 5.80789 18.7499 5.80789C18.5578 5.80789 18.3897 5.53005 18.3897 5.15959C18.3897 4.37237 19.0141 3.35361 19.3023 3.67776C19.5184 3.9093 19.8306 2.5664 19.8306 1.2698C19.8306 0.343663 18.0535 0.575199 17.357 1.64026V1.64026ZM21.0794 1.2698C20.6951 2.01071 20.7191 3.72407 21.1274 4.37237C21.3195 4.69652 21.7758 4.88175 22.1601 4.78913C22.9766 4.60391 23.4569 2.61271 22.9526 1.45503C22.5923 0.575202 21.4876 0.482584 21.0794 1.2698ZM29.869 5.39113C28.6682 5.76158 27.6355 7.33602 27.1793 9.51244C26.6749 12.013 26.6989 13.3096 27.2993 14.7914C27.8997 16.2269 28.6682 16.3196 29.5327 15.023C30.0611 14.2357 30.1571 14.1894 30.1571 14.8377C30.1571 15.9954 32.8709 15.625 32.9909 14.4673C33.039 14.0042 32.8949 13.3559 32.6547 13.0318C32.2945 12.4761 32.2705 12.1519 32.5106 9.74398C32.9669 5.53004 32.9429 5.43743 31.7421 5.29851C31.1658 5.20589 30.3252 5.2522 29.869 5.39113V5.39113ZM30.5174 9.14198C30.3012 10.5775 29.5568 12.5687 29.2926 12.4298C28.8603 12.2446 28.9564 10.5775 29.4367 9.37352C30.0851 7.79908 30.7335 7.66016 30.5174 9.14198ZM2.53961 6.22465C1.38688 7.42863 0.810517 9.09568 0.690441 11.6889C0.570365 13.819 0.618396 14.0505 1.36287 15.2545C2.01128 16.3196 2.29946 16.5048 2.97189 16.2733C3.98053 15.9954 3.9325 16.0417 4.12462 14.2821C4.26871 12.9392 4.22068 12.8002 3.59628 12.6613C2.27544 12.3835 2.77977 8.5863 4.1006 8.5863C4.60492 8.5863 4.91712 7.56755 4.94114 5.9005C4.94114 5.06697 3.50022 5.20589 2.53961 6.22465V6.22465ZM8.56744 6.36357C8.11115 7.19709 8.01509 7.2434 8.13517 6.5951C8.27926 5.9005 8.11115 5.80789 6.88637 5.80789C5.58955 5.80789 5.46947 5.9005 5.37341 6.96556C5.27735 7.79908 5.37341 8.16954 5.68561 8.35477C5.99781 8.5863 6.11788 8.95676 6.02182 9.65136C5.25334 16.2733 5.22932 15.9954 6.38205 15.9954C7.22259 15.9954 7.34266 15.8565 7.48675 14.6988C7.82297 11.5036 8.3513 9.51244 8.90365 9.2346C9.40797 9.00306 9.98434 7.10448 9.98434 5.76158C9.98434 4.97436 9.11979 5.34481 8.56744 6.36357ZM11.4973 6.13203C10.3446 7.38232 9.67214 9.32721 9.57608 11.7815C9.40797 14.8377 10.0324 15.9954 11.7855 15.9954C13.4906 15.9954 13.8268 15.6713 13.8268 14.1431C13.8268 12.8928 13.8028 12.8928 12.7701 13.0781C11.3772 13.4022 11.1131 12.4761 12.4819 12.1056C13.9469 11.6426 14.7874 10.2997 14.7874 8.35477C14.7874 7.52124 14.6193 6.5951 14.4272 6.27096C13.8268 5.29851 12.3378 5.20589 11.4973 6.13203V6.13203ZM12.8662 8.77153C12.8662 9.14198 12.6981 9.55875 12.4819 9.69767C11.8095 10.207 11.6414 10.0218 11.9056 9.04937C12.1937 7.98431 12.8662 7.79908 12.8662 8.77153ZM24.2734 5.9005C23.1207 7.10448 22.8805 9.09568 23.673 11.0406C24.2974 12.5687 24.2974 13.3559 23.649 12.9855C23.0726 12.615 22.7124 13.3559 22.7124 14.9304C22.7124 15.8565 22.8325 15.9954 23.697 15.9954C25.9305 15.9954 27.0352 12.8002 25.8104 9.79029C25.3061 8.54 25.4021 7.42863 25.9785 7.84539C26.2667 8.07692 26.795 6.54879 26.795 5.53004C26.795 5.11328 24.7297 5.39112 24.2734 5.9005ZM19.7585 6.13203C19.4463 6.68772 19.5904 8.07693 19.9747 8.49369C20.3349 8.86415 20.3349 9.18829 19.9747 12.1982C19.7585 14.0042 19.5904 15.625 19.5904 15.7639C19.5904 15.9028 20.0467 15.9954 20.5991 15.9028L21.6077 15.7639L22.016 11.5963C22.6404 5.48374 22.6884 5.80789 21.1995 5.80789C20.479 5.80789 19.8306 5.9468 19.7585 6.13203V6.13203Z" fill="white"/>
</svg>
