<svg width="33" height="21" viewBox="0 0 33 21" fill="none" xmlns="http://www.w3.org/2000/svg">
<path fill-rule="evenodd" clip-rule="evenodd" d="M20.7307 10.0069H23.7085L26.2946 1.12537H23.3168L20.7307 10.0069V10.0069ZM17.7529 20.3517H20.7307L23.3168 11.3606H20.339L17.7529 20.3517V20.3517Z" fill="#DB8135"/>
<path fill-rule="evenodd" clip-rule="evenodd" d="M10.5392 7.32791L9.70114 13.0252H10.8606L10.543 7.30375L10.5392 7.32791ZM6.09961 20.4054L9.53757 1.09741H12.1361L13.5859 20.4054H11.3037L11.136 17.8327H8.9221L8.41271 20.4054H6.09961ZM14.6659 20.4054L15.6618 1.09741H17.9611L16.9654 20.4054H14.6659V20.4054ZM29.9575 7.30375L29.1161 13.0252H30.2756L29.9575 7.30375V7.30375ZM25.5144 20.4054L28.9523 1.09741H31.5506L33.0002 20.4054H30.7182L30.5505 17.8327H28.3366L27.8273 20.4054H25.5144ZM20.4315 11.3772H23.3123L25.2864 20.2974H22.4051L20.4315 11.3772Z" fill="#0D6FAB"/>
<path fill-rule="evenodd" clip-rule="evenodd" d="M18.8267 1.01679H21.6061L23.5102 10.0068H20.7308L18.8267 1.01679ZM6.1678 1.78895L5.94656 7.46745C5.09903 4.27836 3.1351 6.47888 2.98079 10.4519C2.78475 15.4952 4.67507 16.6717 5.70388 13.7017L5.48205 19.3936C5.17501 19.806 4.87485 20.1244 4.57862 20.3408C4.29046 20.5537 3.99392 20.6705 3.69546 20.6888C3.327 20.7098 2.99338 20.604 2.69244 20.3731C2.3991 20.1557 2.12316 19.7911 1.87876 19.298C1.41425 18.3718 1.07846 17.1942 0.8714 15.7605C0.664733 14.3225 0.596434 12.7003 0.667095 10.8869C0.723781 9.43008 0.858606 8.10107 1.07295 6.89611C1.28552 5.69114 1.57997 4.59732 1.95493 3.605C2.30941 2.65831 2.69539 1.94467 3.11325 1.45925C3.52915 0.978659 3.98342 0.721988 4.4743 0.694065C4.76372 0.675051 5.05282 0.758073 5.33443 0.941073C5.61491 1.12418 5.89165 1.40985 6.1678 1.78895V1.78895Z" fill="#0D6FAB"/>
</svg>
