<svg width="50" height="21" viewBox="0 0 50 21" fill="none" xmlns="http://www.w3.org/2000/svg">
<g clip-path="url(#clip0_1808_1014)">
<path d="M22.6882 9.35716C22.7107 9.32562 22.7333 9.29179 23.0547 9.29179C24.0523 9.29179 24.2438 9.56904 24.2438 9.79679C24.2438 9.93426 24.0578 10.6286 22.2825 10.6286C22.0176 10.6286 21.8822 10.6151 21.8822 10.5407C21.8822 10.5046 21.9556 10.4054 22.0062 10.331L22.6882 9.35716V9.35716ZM21.6571 9.26015C21.9445 9.26918 22.091 9.28048 22.091 9.35716C22.091 9.4023 22.0459 9.47213 22.029 9.49692L21.3359 10.4934C21.2402 10.6332 21.1557 10.6399 20.8794 10.6602V10.6963H22.3053C23.9623 10.6963 24.8697 10.2792 24.8697 9.82387C24.8697 9.58719 24.5203 9.22414 23.2241 9.22414H21.6573V9.26015H21.6571ZM26.0359 10.4641C25.8162 10.5971 25.5682 10.7211 25.2525 10.7211C24.9877 10.7211 24.9877 10.6219 24.9877 10.5813C24.9877 10.4754 25.4328 9.91621 25.4328 9.85313C25.4328 9.80581 25.3877 9.7945 25.0777 9.7945V9.7584C25.292 9.75393 25.7597 9.71783 25.9794 9.70205L25.9962 9.70652L25.5003 10.4324C25.4777 10.464 25.41 10.5541 25.41 10.5812C25.41 10.597 25.4494 10.615 25.5003 10.615C25.568 10.615 25.7314 10.5699 25.9625 10.4392L26.0359 10.4641V10.4641ZM25.9233 9.46082C25.7825 9.46082 25.6528 9.42243 25.6528 9.34357C25.6528 9.26471 25.7825 9.22186 25.9176 9.22186C26.1036 9.22186 26.1993 9.29626 26.1993 9.34585C26.1993 9.39088 26.1091 9.46082 25.9233 9.46082V9.46082ZM28.668 10.4618C28.3863 10.6128 28.1889 10.7165 27.8846 10.7165C27.6252 10.7165 27.6141 10.6488 27.6141 10.5835C27.6141 10.5294 28.0312 9.9793 28.0312 9.88913C28.0312 9.84856 27.9975 9.81702 27.8903 9.81702C27.6198 9.81702 27.2647 10.0109 27.0618 10.1371C26.8027 10.2926 26.7293 10.3897 26.4984 10.6962H26.0759C26.2504 10.4414 26.6281 9.91393 26.6281 9.86651C26.6281 9.83269 26.5718 9.80789 26.2676 9.80789V9.77178C26.5718 9.74926 26.8761 9.72675 27.1806 9.70195L27.1975 9.70641L26.8367 10.1776L26.8478 10.182C27.1127 10.0152 27.6312 9.70185 28.0989 9.70185C28.3583 9.70185 28.4877 9.75591 28.4877 9.85064C28.4877 9.94755 28.0369 10.5044 28.0369 10.5721C28.0369 10.6059 28.1157 10.6105 28.1272 10.6105C28.24 10.6105 28.3808 10.5383 28.5894 10.4323L28.668 10.4618V10.4618ZM29.3894 10.1281C29.5979 9.92742 29.9811 9.75393 30.2856 9.75393C30.4264 9.75393 30.4827 9.79679 30.4827 9.8441C30.4827 9.86215 30.4547 10.1327 29.2937 10.2274L29.3894 10.1281V10.1281ZM30.5502 10.4505C30.2685 10.5429 30.0316 10.6196 29.7274 10.6196C29.4905 10.6196 29.1977 10.5677 29.1977 10.4144C29.1977 10.3692 29.226 10.3242 29.254 10.2769L29.4117 10.2678C30.3248 10.216 30.8544 10.0334 30.8544 9.85531C30.8544 9.75611 30.6796 9.70195 30.3922 9.70195C29.5977 9.70195 28.7072 10.0807 28.7072 10.403C28.7072 10.5451 28.8874 10.7209 29.4794 10.7209C30.0431 10.7209 30.5559 10.5134 30.6179 10.4773L30.5502 10.4505V10.4505ZM30.8941 10.6962L31.3507 10.0379C31.407 9.9545 31.4407 9.87792 31.4407 9.85759C31.4407 9.82605 31.4127 9.79004 31.2378 9.79004C31.1758 9.79004 31.1138 9.79679 31.0518 9.80125V9.76296C31.3393 9.74719 31.6718 9.71783 31.9255 9.70205L31.9423 9.70652L31.6663 10.1552L31.6775 10.1596L31.7226 10.1145C31.9086 9.9657 32.3371 9.70195 32.692 9.70195C32.8217 9.70195 32.9625 9.73578 32.9625 9.81235C32.9625 9.9296 32.7597 9.9296 32.6977 9.9296C32.4554 9.9296 32.54 9.84846 32.4046 9.84846C32.23 9.84846 31.8918 10.0987 31.8466 10.1325C31.6324 10.2948 31.5535 10.3963 31.3224 10.6962H30.8941V10.6962ZM32.6749 10.367C32.7143 10.4662 32.8046 10.6736 33.2611 10.6736C33.5765 10.6736 33.6668 10.5654 33.6668 10.491C33.6668 10.3422 32.9963 10.1258 32.9963 9.95222C32.9963 9.88239 33.0751 9.70195 33.6725 9.70195C33.9262 9.70195 34.0388 9.74034 34.2079 9.74034C34.3039 9.74034 34.3376 9.71783 34.3656 9.69967H34.4445L34.3316 10.0131H34.2414C34.2134 9.88457 34.0779 9.75383 33.7117 9.75383C33.5877 9.75383 33.4074 9.77406 33.4074 9.88456C33.4074 10.0266 34.0948 10.2273 34.0948 10.4188C34.0948 10.6645 33.5706 10.721 33.2551 10.721C33.086 10.721 32.8606 10.6781 32.6972 10.6781C32.6183 10.6781 32.5958 10.7006 32.562 10.7255H32.4718L32.5846 10.367H32.6749V10.367ZM39.1055 9.64115C39.0944 9.57806 39.0435 9.27592 38.2376 9.27592C37.1105 9.27592 36.5355 9.82148 36.5355 10.1529C36.5355 10.4483 36.8454 10.6354 37.5162 10.6354C38.153 10.6354 38.5476 10.4753 38.8181 10.3693L38.9139 10.4009C38.7053 10.5001 38.2036 10.7367 37.3808 10.7367C36.7269 10.7367 35.9043 10.5789 35.9043 10.1281C35.9043 9.69303 36.9017 9.19478 38.1925 9.19478C38.5982 9.19478 38.9421 9.24884 39.0716 9.24884C39.235 9.24884 39.2687 9.22176 39.297 9.19924H39.4153L39.2067 9.64789L39.1055 9.64115ZM40.1423 10.4392C39.8549 10.6127 39.635 10.721 39.2856 10.721C39.0376 10.721 39.015 10.6443 39.015 10.5812C39.015 10.5338 39.8324 9.35706 39.8324 9.30974C39.8324 9.25123 39.5955 9.25123 39.449 9.2534V9.2173C39.7421 9.20381 40.0352 9.18347 40.3281 9.15649L40.3563 9.1677L39.5053 10.473C39.4941 10.4933 39.449 10.5541 39.449 10.5789C39.449 10.5924 39.449 10.624 39.5335 10.624C39.6744 10.624 39.7929 10.561 40.0689 10.4188L40.1423 10.4392V10.4392ZM42.7462 10.4527C42.391 10.6579 42.2445 10.7165 41.9628 10.7165C41.7091 10.7165 41.6979 10.6331 41.6979 10.5993C41.6979 10.5587 41.8108 10.3693 41.9402 10.1844H41.9234C41.54 10.4392 41.1231 10.721 40.6157 10.721C40.4129 10.721 40.3058 10.6871 40.3058 10.5879C40.3058 10.4887 40.734 9.92057 40.734 9.85977C40.734 9.7944 40.6269 9.7944 40.396 9.7944V9.76296C40.6805 9.7492 40.9628 9.72886 41.2414 9.70205L41.2583 9.70652L40.7452 10.5249C40.7283 10.5541 40.7452 10.6014 40.8637 10.6014C41.106 10.6014 41.4611 10.3896 41.6528 10.2723C41.9291 10.1055 42.0531 9.96342 42.2728 9.72218H42.6899L42.2447 10.3963C42.211 10.4414 42.1376 10.5406 42.1376 10.5745C42.1376 10.5857 42.1431 10.6106 42.2053 10.6106C42.3124 10.6106 42.4702 10.5316 42.6676 10.4324L42.7462 10.4527V10.4527ZM44.792 10.0041C44.792 10.1935 44.2566 10.6692 43.4844 10.6692C43.2196 10.6692 43.2196 10.6106 43.2196 10.5948C43.2196 10.3581 43.7607 9.81245 44.3806 9.81245C44.7357 9.81245 44.792 9.93426 44.792 10.0041V10.0041ZM43.2253 9.24666C43.5521 9.24894 43.5915 9.26015 43.5915 9.31203C43.5915 9.34357 43.5409 9.39991 43.5015 9.4631L42.735 10.5925V10.6015C42.735 10.6511 43.169 10.7211 43.4678 10.7211C44.33 10.7211 45.2711 10.331 45.2711 9.97483C45.2711 9.81027 44.9951 9.70205 44.6006 9.70205C44.0935 9.70205 43.7383 9.91175 43.5524 10.0289L43.5412 10.0267C43.7329 9.77188 43.992 9.3526 44.116 9.1678L44.088 9.1566C43.7949 9.17911 43.5075 9.19488 43.2258 9.20848V9.24666H43.2253ZM20.8812 12.4168C21.1575 12.3964 21.242 12.3897 21.3377 12.2499L22.0309 11.2534C22.0646 11.2083 22.0928 11.1543 22.0928 11.1137C22.0928 11.0348 21.9408 11.0281 21.6983 11.0168V10.9807H23.0905V11.0168C22.8145 11.0371 22.7242 11.0416 22.6282 11.1836L21.9351 12.1823C21.9014 12.2274 21.8731 12.2725 21.8731 12.3266C21.8731 12.3987 22.014 12.4056 22.2565 12.4168V12.4529H20.8812V12.4168V12.4168Z" fill="white"/>
<path d="M24.9674 12.2183C24.6854 12.3694 24.4883 12.4732 24.1838 12.4732C23.9246 12.4732 23.9132 12.4055 23.9132 12.3402C23.9132 12.2861 24.3303 11.736 24.3303 11.6458C24.3303 11.6052 24.2966 11.5737 24.1895 11.5737C23.9189 11.5737 23.5638 11.7676 23.361 11.8938C23.1016 12.0493 23.0284 12.1462 22.7973 12.4528H22.3748C22.5493 12.1981 22.927 11.6705 22.927 11.6232C22.927 11.5894 22.8707 11.5646 22.5664 11.5646V11.5285C22.8707 11.5059 23.175 11.4833 23.4795 11.4585L23.4964 11.4631L23.1358 11.9343L23.147 11.9388C23.4118 11.772 23.9303 11.4586 24.398 11.4586C24.6574 11.4586 24.7871 11.5128 24.7871 11.6075C24.7871 11.7044 24.3363 12.2613 24.3363 12.3289C24.3363 12.3628 24.4152 12.3672 24.4266 12.3672C24.5394 12.3672 24.6803 12.2951 24.8886 12.1892L24.9674 12.2183V12.2183ZM26.4722 11.56H25.9988L25.5028 12.3107C25.4971 12.3174 25.4971 12.3219 25.4971 12.3287C25.4971 12.349 25.5251 12.367 25.5874 12.367C25.7002 12.367 25.8973 12.2611 26.0382 12.189L26.1113 12.2047C25.8239 12.3783 25.6042 12.4775 25.3111 12.4775C25.1983 12.4775 25.0406 12.455 25.0406 12.3874C25.0406 12.3535 25.1477 12.2161 25.1703 12.18L25.576 11.56H25.1588C25.1534 11.5465 25.1534 11.5352 25.1703 11.5239C25.204 11.5036 25.3617 11.4878 25.4577 11.4675C25.6437 11.4292 25.9142 11.3278 26.0719 11.2488C26.0945 11.2376 26.1171 11.2173 26.1676 11.2218C26.2071 11.2173 26.2185 11.2376 26.2071 11.2557L26.0493 11.4879H26.5002L26.4722 11.56V11.56ZM26.9736 11.8847C27.1821 11.684 27.5655 11.5104 27.8698 11.5104C28.0106 11.5104 28.0672 11.5533 28.0672 11.6006C28.0672 11.6186 28.0389 11.8891 26.8781 11.9838L26.9736 11.8847V11.8847ZM28.1346 12.207C27.8529 12.2995 27.6161 12.3761 27.3118 12.3761C27.075 12.3761 26.7821 12.3242 26.7821 12.1709C26.7821 12.1258 26.8102 12.0808 26.8384 12.0334L26.9961 12.0244C27.9092 11.9725 28.4389 11.7899 28.4389 11.6118C28.4389 11.5126 28.2641 11.4584 27.9767 11.4584C27.1821 11.4584 26.2914 11.8371 26.2914 12.1595C26.2914 12.3016 26.4716 12.4773 27.0636 12.4773C27.6273 12.4773 28.1401 12.2699 28.2021 12.2339L28.1346 12.207ZM28.5912 12.4527L29.0477 11.7945C29.104 11.7111 29.138 11.6344 29.138 11.6142C29.138 11.5826 29.1097 11.5465 28.9351 11.5465C28.8731 11.5465 28.8111 11.5533 28.7491 11.5578V11.5194C29.0365 11.5037 29.3691 11.4743 29.6228 11.4585L29.6396 11.4631L29.3636 11.9117L29.3748 11.9162L29.4199 11.8711C29.6059 11.7223 30.0342 11.4584 30.3893 11.4584C30.519 11.4584 30.6598 11.4922 30.6598 11.5689C30.6598 11.6862 30.457 11.6862 30.395 11.6862C30.1527 11.6862 30.2373 11.605 30.1021 11.605C29.9273 11.605 29.5891 11.8553 29.5442 11.8891C29.3299 12.0514 29.2511 12.1529 29.0199 12.4527H28.5912V12.4527Z" fill="white"/>
<path d="M32.9193 12.2183C32.6376 12.3694 32.4402 12.4731 32.1359 12.4731C31.8765 12.4731 31.8654 12.4055 31.8654 12.3401C31.8654 12.2861 32.2825 11.7359 32.2825 11.6458C32.2825 11.6052 32.2488 11.5737 32.1416 11.5737C31.8713 11.5737 31.516 11.7676 31.3131 11.8938C31.054 12.0493 30.9806 12.1462 30.7495 12.4528H30.3269C30.5017 12.1981 30.8792 11.6705 30.8792 11.6232C30.8792 11.5893 30.8229 11.5645 30.5183 11.5645V11.5284C30.8226 11.5059 31.1271 11.4833 31.4314 11.4585L31.4483 11.4631L31.0875 11.9342L31.0986 11.9388C31.3634 11.7719 31.882 11.4586 32.3499 11.4586C32.6093 11.4586 32.7388 11.5128 32.7388 11.6075C32.7388 11.7044 32.2879 12.2613 32.2879 12.3289C32.2879 12.3627 32.3668 12.3672 32.3782 12.3672C32.491 12.3672 32.6319 12.2951 32.8404 12.1892L32.9193 12.2183V12.2183Z" fill="white"/>
<path d="M33.3532 12.2071C33.3532 12.0042 33.8606 11.5083 34.52 11.5083C34.6834 11.5083 34.8414 11.5512 34.8414 11.6594C34.8414 11.8803 34.2891 12.3672 33.6915 12.3672C33.5392 12.3672 33.3532 12.3266 33.3532 12.2071ZM35.3991 12.2048C35.1454 12.304 35.0326 12.3605 34.9483 12.3605C34.9031 12.3605 34.8694 12.347 34.8694 12.3311C34.8694 12.2613 35.3879 11.4924 35.4048 11.4655L35.3654 11.4587L35.0217 11.4745L35.0048 11.4812L34.9485 11.5805H34.9374C34.9205 11.5173 34.7345 11.4587 34.4923 11.4587C33.7426 11.4587 32.8804 11.8803 32.8804 12.2117C32.8804 12.277 32.8972 12.4776 33.4609 12.4776C33.7991 12.4776 34.0977 12.41 34.5654 12.135L34.5766 12.1395C34.4863 12.2769 34.4583 12.3265 34.4583 12.3784C34.4583 12.4167 34.4583 12.4753 34.6951 12.4753C34.9374 12.4753 35.1291 12.3942 35.4673 12.2273L35.3991 12.2048V12.2048ZM37.073 11.5601H36.5996L36.1036 12.3108C36.0979 12.3175 36.0979 12.322 36.0979 12.3288C36.0979 12.3491 36.1262 12.3671 36.1882 12.3671C36.301 12.3671 36.4982 12.2612 36.639 12.1891L36.7122 12.2048C36.4247 12.3784 36.205 12.4776 35.9119 12.4776C35.7991 12.4776 35.6414 12.4551 35.6414 12.3874C35.6414 12.3536 35.7485 12.2161 35.7711 12.18L36.1768 11.5601H35.7597C35.7542 11.5466 35.7542 11.5353 35.7711 11.524C35.8048 11.5036 35.9625 11.4879 36.0585 11.4676C36.2445 11.4292 36.515 11.3279 36.6727 11.2489C36.6953 11.2377 36.7179 11.2174 36.7687 11.2219C36.8081 11.2174 36.8193 11.2377 36.8081 11.2558L36.6504 11.488H37.1013L37.073 11.5601ZM38.1552 12.2207C37.9352 12.3537 37.6875 12.4777 37.3718 12.4777C37.107 12.4777 37.107 12.3785 37.107 12.338C37.107 12.232 37.5521 11.673 37.5521 11.6098C37.5521 11.5624 37.5069 11.5512 37.197 11.5512V11.515C37.411 11.5106 37.8787 11.4745 38.0986 11.4587L38.1155 11.4633L37.6195 12.1892C37.597 12.2207 37.5293 12.3109 37.5293 12.338C37.5293 12.3537 37.5687 12.3718 37.6195 12.3718C37.6872 12.3718 37.8506 12.3266 38.0815 12.1959L38.1552 12.2207ZM38.0423 11.2175C37.9015 11.2175 37.7718 11.1792 37.7718 11.1002C37.7718 11.0214 37.9015 10.9785 38.0366 10.9785C38.2226 10.9785 38.3183 11.0529 38.3183 11.1025C38.3186 11.1475 38.2283 11.2175 38.0423 11.2175ZM39.9982 11.506C40.2685 11.506 40.3927 11.6052 40.3927 11.7225C40.3927 11.9637 39.9476 12.4303 39.3051 12.4303C39.0234 12.4303 38.8542 12.3492 38.8542 12.2206C38.854 11.9547 39.3668 11.506 39.9982 11.506V11.506ZM40.0376 11.4586C39.2148 11.4586 38.3806 11.8217 38.3806 12.153C38.3806 12.34 38.6343 12.4775 39.2317 12.4775C40.0939 12.4775 40.8661 12.0695 40.8661 11.7922C40.8659 11.6435 40.6913 11.4586 40.0376 11.4586V11.4586Z" fill="white"/>
<path d="M43.3234 12.2183C43.0417 12.3694 42.8443 12.4731 42.54 12.4731C42.2806 12.4731 42.2694 12.4055 42.2694 12.3401C42.2694 12.2861 42.6865 11.7359 42.6865 11.6458C42.6865 11.6052 42.6528 11.5737 42.5457 11.5737C42.2751 11.5737 41.92 11.7676 41.7172 11.8938C41.4578 12.0493 41.3846 12.1462 41.1535 12.4528H40.731C40.9058 12.1981 41.2832 11.6705 41.2832 11.6232C41.2832 11.5893 41.2269 11.5645 40.9224 11.5645V11.5284C41.2267 11.5059 41.5312 11.4833 41.8355 11.4585L41.8523 11.4631L41.4915 11.9342L41.5027 11.9388C41.7675 11.7719 42.286 11.4586 42.754 11.4586C43.0134 11.4586 43.1428 11.5128 43.1428 11.6075C43.1428 11.7044 42.692 12.2613 42.692 12.3289C42.692 12.3627 42.7708 12.3672 42.7823 12.3672C42.8951 12.3672 43.0359 12.2951 43.2445 12.1892L43.3234 12.2183V12.2183ZM43.8699 12.207C43.8699 12.0041 44.3773 11.5082 45.0367 11.5082C45.2001 11.5082 45.3578 11.551 45.3578 11.6593C45.3578 11.8802 44.8055 12.3671 44.2082 12.3671C44.0559 12.3671 43.8699 12.3265 43.8699 12.207ZM45.9158 12.2047C45.6621 12.3039 45.5492 12.3604 45.4649 12.3604C45.4198 12.3604 45.3861 12.3469 45.3861 12.331C45.3861 12.2612 45.9046 11.4923 45.9215 11.4653L45.882 11.4586L45.5381 11.4744L45.5212 11.4811L45.4649 11.5804H45.4538C45.4369 11.5172 45.2509 11.4586 45.0086 11.4586C44.259 11.4586 43.3968 11.8802 43.3968 12.2116C43.3968 12.2769 43.4136 12.4775 43.9773 12.4775C44.3153 12.4775 44.6141 12.4099 45.0818 12.1349L45.093 12.1394C45.0027 12.2768 44.9747 12.3264 44.9747 12.3783C44.9747 12.4166 44.9747 12.4752 45.2112 12.4752C45.4538 12.4752 45.6452 12.3941 45.9835 12.2272L45.9158 12.2047V12.2047ZM47.1951 12.1957C46.9077 12.3693 46.688 12.4775 46.3386 12.4775C46.0906 12.4775 46.068 12.4009 46.068 12.3377C46.068 12.2904 46.8851 11.1136 46.8851 11.0663C46.8851 11.0077 46.6483 11.0077 46.5017 11.0099V10.9738C46.7975 10.9602 47.091 10.9398 47.3811 10.9129L47.4091 10.9242L46.558 12.2295C46.5469 12.2498 46.5017 12.3107 46.5017 12.3355C46.5017 12.3489 46.5017 12.3806 46.5863 12.3806C46.7271 12.3806 46.8454 12.3175 47.1217 12.1755L47.1951 12.1957V12.1957ZM47.9855 10.9638H48.0433C48.097 10.9638 48.1406 10.9745 48.1406 11.0066C48.1406 11.0365 48.1139 11.0579 48.0446 11.0579H47.9855V10.9638ZM47.8278 10.9615C47.8968 10.9643 47.8955 10.9638 47.8955 10.9886V11.1233C47.8955 11.1474 47.8968 11.1474 47.8278 11.1503V11.1587H48.0532V11.1503C47.9829 11.1475 47.9855 11.1475 47.9855 11.1233V11.0681H48.0516C48.1403 11.1205 48.1756 11.1587 48.2207 11.1587H48.3095V11.1537C48.2825 11.1458 48.2405 11.1267 48.2039 11.1063L48.1235 11.0623C48.187 11.0539 48.2347 11.0325 48.2347 11.0038C48.2347 10.9689 48.1572 10.9531 48.0742 10.9531H47.8275V10.9615H47.8278ZM48.5294 11.059C48.5294 10.9525 48.3224 10.8657 48.0545 10.8657C47.9911 10.8657 47.9283 10.8706 47.8698 10.8803C47.8112 10.89 47.7581 10.9043 47.7134 10.9223C47.6687 10.9402 47.6334 10.9616 47.6095 10.9851C47.5855 11.0085 47.5735 11.0337 47.5741 11.059C47.5741 11.1655 47.7842 11.2512 48.0545 11.2512C48.3224 11.2512 48.5294 11.1655 48.5294 11.059ZM48.4519 11.059C48.4519 11.1486 48.2757 11.2275 48.0545 11.2275C47.8291 11.2275 47.6516 11.1486 47.6516 11.059C47.6516 10.9694 47.8278 10.8894 48.0545 10.8894C48.2773 10.8894 48.4519 10.9689 48.4519 11.059Z" fill="white"/>
<path d="M13.8786 13.047C17.1027 13.0533 19.7464 11.9957 19.7238 10.7089C19.7462 9.38692 17.1027 8.32942 13.8786 8.32983H7.41839C4.15572 8.32952 1.51196 9.38692 1.47046 10.7089C1.51196 11.9957 4.15572 13.0532 7.41813 13.047H13.8786V13.047Z" fill="#2D4F9E"/>
<path d="M1.88086 10.7088C1.91302 9.47546 4.37702 8.48976 7.41843 8.49391C10.4565 8.48976 12.9207 9.47546 12.9557 10.7089C12.9207 11.9072 10.4565 12.8929 7.41843 12.8829C4.37702 12.8929 1.91302 11.9071 1.88086 10.7088V10.7088Z" fill="white"/>
<path d="M6.1876 9.39648C4.91319 9.62652 3.95706 10.1183 3.93164 10.709C3.95706 11.2775 4.86754 11.7783 6.1876 11.9806V9.39648ZM8.64874 11.9807C9.96569 11.7784 10.8759 11.2775 10.9047 10.7091C10.8759 10.1057 9.96543 9.60483 8.64874 9.39659V11.9807Z" fill="#2D4F9E"/>
</g>
<defs>
<clipPath id="clip0_1808_1014">
<rect width="50" height="20" fill="white" transform="translate(0 0.691406)"/>
</clipPath>
</defs>
</svg>
