<svg width="33" height="21" viewBox="0 0 33 21" fill="none" xmlns="http://www.w3.org/2000/svg">
<path fill-rule="evenodd" clip-rule="evenodd" d="M2.10082 0.969021H0.640137V13.3524H2.08185C2.85979 13.3524 3.40978 12.9361 3.90306 11.9199C4.47219 10.765 4.83253 9.0087 4.83253 7.16046C4.83253 3.51063 3.71322 0.969021 2.10082 0.969021V0.969021ZM3.25806 10.3026C2.93565 10.9498 2.53702 11.2731 1.8922 11.2731H1.62669V3.09443H1.8922C2.53702 3.09443 2.9165 3.3716 3.25806 4.06452C3.59943 4.80363 3.80823 5.9594 3.80823 7.16046C3.80805 8.36197 3.59943 9.56349 3.25806 10.3026ZM5.28788 13.3528H6.27425V0.969021H5.28788V13.3528ZM8.70233 5.72842C8.09526 5.17409 7.92458 4.85073 7.92458 4.15736C7.92458 3.37204 8.24699 2.81771 8.6644 2.81771C8.96784 2.81771 9.21457 3.09488 9.46112 3.7878L9.99233 2.17098C9.55595 1.24664 9.04389 0.784693 8.49372 0.784693C7.58321 0.784693 6.90028 2.30957 6.90028 4.34258C6.90028 6.05224 7.22269 6.88419 8.15234 7.71569C8.5508 8.03906 8.74045 8.27003 8.83527 8.40862C9.04389 8.73243 9.13871 9.19393 9.13871 9.70252C9.13871 10.7192 8.81631 11.4584 8.36096 11.4584C7.90561 11.4584 7.50735 10.8578 7.27958 9.79491L6.65373 11.3198C7.10908 12.9366 7.65907 13.6762 8.41785 13.6762C9.44215 13.6762 10.1632 12.0127 10.1632 9.61013C10.163 7.62286 9.82164 6.74471 8.70233 5.72842V5.72842ZM10.4666 7.16046C10.4666 10.8107 11.6428 13.6295 13.1602 13.6295C13.5777 13.6295 13.957 13.4443 14.3933 12.9362V10.0712C13.9949 11.0413 13.6535 11.4575 13.1982 11.4575C12.2118 11.4575 11.4909 9.65543 11.4909 7.16001C11.4909 4.80363 12.2308 2.9092 13.1602 2.9092C13.6345 2.9092 13.9949 3.32495 14.3933 4.29549V1.47672C13.9759 0.921931 13.6156 0.691406 13.1792 0.691406C11.6806 0.691855 10.4666 3.60302 10.4666 7.16046V7.16046Z" fill="white"/>
<path fill-rule="evenodd" clip-rule="evenodd" d="M17.4858 7.16055H20.1035C20.1035 3.64885 18.9271 0.830078 17.4858 0.830078C16.0439 0.830078 14.8677 3.64885 14.8677 7.16055C14.8677 10.6727 16.0439 13.5372 17.4858 13.5372C18.9271 13.5372 20.1035 10.6722 20.1035 7.16055H17.4858Z" fill="#E0914C"/>
<path fill-rule="evenodd" clip-rule="evenodd" d="M22.4367 9.28605L21.0898 0.96875H19.9895L22.1523 13.6754H22.6835L24.884 0.96875H23.8026L22.4367 9.28605ZM25.3393 13.3525H28.1469V11.2729H26.3257V7.94595H28.0708V5.82054H26.3257V3.09416H28.1469V0.96875H25.3393V13.3525ZM32.0736 4.61903C32.0736 2.30885 31.4284 0.96875 30.2715 0.96875H28.8107V13.3521H29.797V8.4079H29.9298L31.2957 13.3521H32.5098L30.9164 8.13028C31.656 7.76117 32.0736 6.51346 32.0736 4.61903V4.61903ZM30.0815 6.69869H29.797V2.90983H30.1005C30.7265 2.90983 31.0487 3.55655 31.0487 4.75807C31.0489 6.00532 30.7267 6.69869 30.0815 6.69869V6.69869ZM0.866234 16.9885V18.098H1.42874V18.547H0.866234V20.48H0.664062V16.5391H1.44716V16.9885H0.866234ZM2.37055 16.5391H2.57291V20.48H2.37055V16.5391ZM3.5497 16.3498L4.7631 19.4511V16.5391H4.96527V20.6423L3.75059 17.5428V20.48H3.5497V16.3498V16.3498ZM6.83582 19.0435H6.2595L6.54748 17.4477L6.83582 19.0435ZM6.91868 19.4928L7.10318 20.48H7.32081L6.54766 16.3718L5.77488 20.48H5.9916L6.17665 19.4928H6.91868V19.4928ZM8.13005 16.3498L9.34474 19.4511V16.5391H9.5471V20.6423L8.33094 17.5428V20.48H8.13005V16.3498V16.3498ZM11.7051 17.2925C11.59 17.0405 11.4305 16.9055 11.2779 16.9055C10.9161 16.9055 10.6392 17.6424 10.6392 18.5156C10.6392 19.378 10.9133 20.1145 11.2742 20.1145C11.4333 20.1145 11.585 19.9691 11.7049 19.7068V20.288C11.5753 20.4668 11.4292 20.5617 11.2803 20.5638C10.8179 20.5638 10.4364 19.6704 10.4364 18.5304C10.4364 17.3643 10.8205 16.4539 11.298 16.4539C11.4399 16.4539 11.5834 16.5391 11.7047 16.7216V17.2925H11.7051V17.2925ZM12.6336 16.5391H12.8347V20.48H12.6336V16.5391ZM14.7196 19.0435H14.1435L14.4329 17.4477L14.7196 19.0435V19.0435ZM14.8026 19.4928L14.9877 20.48H15.2044L14.4329 16.3718L13.6598 20.48H13.8759L14.0604 19.4928H14.8026V19.4928ZM16.2348 20.0328H16.7266V20.48H16.0337V16.5391H16.2348V20.0328ZM19.5853 17.2872C19.5268 17.04 19.4491 16.9149 19.3257 16.9149C19.1967 16.9149 19.0545 17.1288 19.0545 17.4751C19.0545 17.7823 19.1808 17.9455 19.281 18.0393L19.3961 18.1501C19.6266 18.3685 19.7982 18.6779 19.7982 19.3359C19.7982 20.053 19.5702 20.5638 19.281 20.5638C19.0188 20.5638 18.815 20.0943 18.7814 19.4614L18.9849 19.3578C18.9823 19.7906 19.1241 20.1046 19.297 20.1046C19.4714 20.1046 19.5955 19.7503 19.5955 19.3359C19.5955 18.9134 19.4563 18.7295 19.3171 18.5873L19.2059 18.4739C19.0206 18.2801 18.8534 18.0245 18.8534 17.4751C18.8534 16.8364 19.0851 16.4539 19.3303 16.4539C19.5099 16.4539 19.6583 16.6696 19.7457 17.0503L19.5853 17.2872V17.2872ZM20.7117 16.5391H21.5815V16.9885H20.914V18.0931H21.5632V18.542H20.914V20.0328H21.5815V20.48H20.7117V16.5391V16.5391ZM22.7269 16.9781H22.7787C22.9801 16.9781 23.2198 17.0669 23.2198 17.685C23.2198 18.3115 22.9954 18.4048 22.7897 18.4048H22.7267V16.9781H22.7269V16.9781ZM23.0204 18.7667C23.2543 18.6977 23.4087 18.2285 23.4087 17.663C23.4087 17.2872 23.331 16.9149 23.1955 16.7212C23.0672 16.544 22.9125 16.5391 22.7695 16.5391H22.5249V20.48H22.7271V18.8147H22.8101L23.2867 20.48H23.5308L23.0204 18.7667V18.7667ZM24.9171 19.4561L25.3979 16.5391H25.6194L24.9171 20.6912L24.2136 16.5391H24.4347L24.9171 19.4561ZM26.4433 16.5391H26.6453V20.48H26.4433V16.5391ZM28.8212 17.2925C28.7046 17.0405 28.545 16.9055 28.3918 16.9055C28.0303 16.9055 27.7534 17.6424 27.7534 18.5156C27.7534 19.378 28.0274 20.1145 28.3881 20.1145C28.5474 20.1145 28.7006 19.9691 28.8212 19.7068V20.288C28.6912 20.4665 28.5447 20.5614 28.3955 20.5638C27.9344 20.5638 27.5511 19.6704 27.5511 18.5304C27.5511 17.3643 27.937 16.4539 28.4124 16.4539C28.5544 16.4539 28.698 16.5391 28.8214 16.7216V17.2925H28.8212V17.2925ZM29.7532 16.5391H30.6229V16.9885H29.9558V18.0931H30.6037V18.542H29.9558V20.0328H30.6229V20.48H29.7532V16.5391V16.5391ZM32.2835 17.2872C32.2246 17.04 32.1472 16.9149 32.025 16.9149C31.8966 16.9149 31.7545 17.1288 31.7545 17.4751C31.7545 17.7823 31.8797 17.9455 31.9797 18.0393L32.0966 18.1501C32.3253 18.3685 32.4969 18.6779 32.4969 19.3359C32.4969 20.053 32.2693 20.5638 31.9797 20.5638C31.7186 20.5638 31.5133 20.0943 31.4805 19.4614L31.6834 19.3578C31.6808 19.7906 31.8237 20.1046 31.997 20.1046C32.171 20.1046 32.2958 19.7503 32.2958 19.3359C32.2958 18.9134 32.1552 18.7295 32.0163 18.5873L31.9049 18.4739C31.7197 18.2801 31.5525 18.0245 31.5525 17.4751C31.5525 16.8364 31.7845 16.4539 32.0294 16.4539C32.2089 16.4539 32.3577 16.6696 32.4463 17.0503L32.2835 17.2872V17.2872ZM32.6532 2.06711C32.6532 2.16219 32.6265 2.21242 32.5724 2.21242H32.554V1.92852H32.5737C32.6274 1.92897 32.6532 1.97382 32.6532 2.06711ZM32.8119 2.81744L32.6645 2.36626C32.7274 2.32679 32.7637 2.21466 32.7637 2.06038C32.7637 1.8469 32.7022 1.72626 32.5928 1.72626H32.4501V2.81744H32.5558V2.39496L32.6814 2.81744H32.8119ZM33.0003 2.26983C33.0003 1.74868 32.8263 1.31903 32.6151 1.31903C32.5637 1.31819 32.5128 1.3422 32.4652 1.38966C32.4176 1.43712 32.3744 1.50709 32.338 1.59552C32.3016 1.68394 32.2728 1.78907 32.2532 1.90482C32.2336 2.02056 32.2236 2.14463 32.2238 2.26983C32.2238 2.7995 32.3986 3.22198 32.6151 3.22198C32.8263 3.22153 33.0003 2.79232 33.0003 2.26983ZM32.9215 2.27252C32.9215 2.70038 32.7834 3.0511 32.6133 3.0511C32.442 3.0511 32.3012 2.70218 32.3012 2.27252C32.3012 1.83793 32.4407 1.49259 32.6133 1.49259C32.7834 1.49259 32.9215 1.84331 32.9215 2.27252Z" fill="white"/>
</svg>
