<svg width="33" height="21" viewBox="0 0 33 21" fill="none" xmlns="http://www.w3.org/2000/svg">
<path d="M5.68416 5.10828C6.0485 4.91238 6.43713 4.8079 6.84033 4.8079C8.60537 4.8079 10.0789 6.82958 10.4157 9.51732L12.9175 8.69455C12.3443 4.12879 9.84089 0.691406 6.84033 0.691406C6.15213 0.691406 5.49308 0.871634 4.87451 1.20597L5.68416 5.10828Z" fill="#FFCB05"/>
<path d="M2.73226 18.184L4.42443 15.0992C3.66984 14.0205 3.19376 12.4454 3.19376 10.6902C3.19376 8.93752 3.66984 7.36249 4.42443 6.28635L2.73226 3.19897C1.44978 5.03259 0.640137 7.70988 0.640137 10.6902C0.640137 13.6731 1.44978 16.3503 2.73226 18.184" fill="#0061E0"/>
<path d="M10.4157 11.8706C10.0773 14.5557 8.60537 16.5748 6.84195 16.5748C6.43713 16.5748 6.04688 16.4703 5.68416 16.2718L4.87451 20.1793C5.49308 20.5111 6.15375 20.6913 6.84195 20.6913C9.83927 20.6913 12.3411 17.2591 12.9175 12.6986L10.4157 11.8706Z" fill="#EF4123"/>
<path d="M15.1051 15.2272C15.0225 15.0131 14.9124 14.6709 14.8444 14.4175C14.4477 12.9339 14.4299 11.3981 14.7634 9.92489C15.131 8.30807 15.8338 7.0726 16.7422 6.4405C17.8838 5.64906 19.1453 5.80317 20.2399 6.85058C20.9346 7.49313 21.4268 8.48569 21.8009 9.89094C21.8479 10.0712 21.89 10.2618 21.9321 10.4264L15.1051 15.2272ZM17.3851 8.82525C16.5738 9.38682 16.156 10.6145 16.2435 12.0511L19.6764 9.66631C19.0853 8.54837 18.3178 8.17747 17.3851 8.82525V8.82525ZM20.1039 14.0127C20.1023 14.0127 20.1023 14.0153 20.1023 14.0153L20.031 13.9369C19.8254 14.4724 19.5064 14.9086 19.1032 15.1907C18.3356 15.7287 17.6247 15.5903 17.113 14.8668L17.0661 14.9817C17.0661 14.9817 17.0661 14.9791 17.0645 14.9791L16.1933 17.0817C16.4103 17.3247 16.6418 17.5284 16.8847 17.693C17.8466 18.3381 18.8311 18.3068 19.8011 17.6277C20.5022 17.1366 21.0528 16.3896 21.4285 15.4414L20.1039 14.0127ZM24.3173 3.3479V15.0339L25.4443 15.7705L24.8047 18.1788L23.5611 17.3429C23.2825 17.147 23.0915 16.8493 22.949 16.5123C22.8113 16.1702 22.7093 15.6974 22.7093 15.0653V3.3479H24.3173ZM27.2352 12.0589C27.2352 11.0637 27.5089 10.1704 27.9396 9.56444L26.7835 7.48529C25.9997 8.60323 25.5058 10.2357 25.5058 12.0537C25.5042 13.8742 25.9981 15.5093 26.7802 16.6273L27.9348 14.5481C27.5057 13.9395 27.2352 13.0514 27.2352 12.0589V12.0589ZM29.2885 15.3735C29.0618 15.3735 28.8416 15.3108 28.6376 15.2011L28.0854 17.8471C28.4627 18.0508 28.8659 18.1631 29.2869 18.1631C31.1167 18.1657 32.6437 16.0709 32.9983 13.2891L31.3013 12.7302C31.1086 14.2425 30.2811 15.3761 29.2885 15.3735V15.3735ZM29.2934 5.95467C28.874 5.95467 28.4708 6.06437 28.0935 6.26549L28.6408 8.91405C28.8464 8.80435 29.065 8.74427 29.2917 8.74427C30.286 8.74689 31.1151 9.88571 31.3029 11.4007L32.9999 10.8469C32.6518 8.05993 31.1248 5.95728 29.2934 5.95467V5.95467Z" fill="white"/>
</svg>
