<svg width="33" height="21" viewBox="0 0 33 21" fill="none" xmlns="http://www.w3.org/2000/svg">
<path d="M18.0647 10.7032L13.7111 0.691406V20.6914L18.0647 10.7032ZM9.3575 10.7032L13.7111 0.691406H5.00391L9.3575 10.7032Z" fill="#DB0011"/>
<path d="M0.640137 10.7032L5.00398 20.6914V0.691406L0.640137 10.7032ZM9.35758 10.7032L5.00398 20.6914H13.7112L9.35758 10.7032Z" fill="#DB0011"/>
<path d="M21.8858 11.2909H20.3083V14.8632H19.5195V6.49654H20.3083V9.9278H21.8858V6.49654H22.6746V14.8632H21.8858V11.2909ZM24.5799 15.0277C23.7912 15.0277 23.1458 14.2991 23.1356 12.3015H23.9243C23.9346 13.1945 24.16 13.7351 24.5902 13.7351C24.9077 13.7351 25.2765 13.3591 25.2765 12.5365C25.2765 11.8784 25.0307 11.6904 24.6209 11.4084L24.3546 11.2439C23.7809 10.8679 23.2073 10.3508 23.2073 8.84672C23.2073 6.99008 23.9653 6.35553 24.6517 6.35553C25.3585 6.35553 25.9731 6.91958 25.9833 8.77621H25.1946C25.1638 8.02416 24.9692 7.57762 24.6004 7.57762C24.3034 7.57762 24.0165 7.93015 24.0165 8.68221C24.0165 9.29325 24.2624 9.48127 24.7746 9.8573L25.0819 10.0688C25.7068 10.5153 26.1063 11.0089 26.1063 12.419C26.096 14.2991 25.297 15.0277 24.5799 15.0277ZM26.5467 6.52005H27.817C28.0526 6.49654 28.2984 6.52005 28.534 6.61405C28.9745 6.84907 29.3126 7.50712 29.3126 8.6352C29.3126 9.71628 29.0155 10.2568 28.5853 10.5153C29.077 10.7269 29.4457 11.2909 29.4457 12.5365C29.4457 14.4401 28.6262 14.8632 27.9911 14.8632H26.557L26.5467 6.52005ZM27.817 9.99831C28.1653 9.99831 28.5238 9.83379 28.5238 8.87022C28.5238 8.00066 28.196 7.76564 27.8682 7.76564H27.315V9.99831H27.817ZM27.8887 13.6176C28.2575 13.6176 28.616 13.4296 28.616 12.3955C28.616 11.3614 28.3087 11.1734 27.9297 11.1734H27.3048V13.6176H27.8887ZM31.4945 15.0277C30.3165 15.0277 29.794 13.3121 29.794 10.7504C29.794 8.18867 30.3779 6.33203 31.5355 6.33203C32.2628 6.33203 32.9696 7.08409 32.9901 8.96423H32.1706C32.1296 8.11817 31.8837 7.69513 31.5355 7.69513C30.8184 7.69513 30.6033 9.45777 30.6033 10.7974C30.6033 12.137 30.8184 13.6881 31.5047 13.6881C31.8633 13.6881 32.1296 13.2415 32.1808 12.3955H33.0003C32.9184 14.3226 32.2525 15.0277 31.4945 15.0277Z" fill="white"/>
</svg>
