<svg width="33" height="21" viewBox="0 0 33 21" fill="none" xmlns="http://www.w3.org/2000/svg">
<path d="M9.52361 0.691406H6.16983C4.6879 0.79089 3.47658 1.63835 3.12682 3.38595C2.94444 4.29737 2.84408 5.29834 2.70147 6.24312C1.97647 11.047 1.33362 15.9834 0.640137 20.6914H26.7506C28.7692 20.6914 30.1553 20.0858 30.5297 17.8109C30.7037 16.7542 30.8704 15.5574 31.0369 14.3964C31.6858 9.86974 32.3354 5.34335 33.0001 0.691406H9.52361Z" fill="#822124"/>
<path d="M9.26184 7.79946C9.4021 7.66227 9.58276 7.0375 9.37637 6.77738C9.31101 6.69503 9.20168 6.67113 9.04916 6.70775C8.9077 6.74166 8.82632 6.80994 8.77106 6.91682C8.68225 7.08864 8.60075 7.60698 8.73835 7.79955C8.87238 7.98697 9.17259 7.88668 9.26184 7.79946V7.79946ZM7.26594 6.77738C7.16545 7.70322 7.05225 8.61103 6.93873 9.51838C6.20993 9.52929 5.46582 9.56943 4.76287 9.49511C4.89563 8.60742 4.99086 7.66633 5.12279 6.77738H4.33752C4.05643 9.04179 3.80068 11.3424 3.48682 13.5602H4.28848C4.41419 12.4226 4.53184 11.2733 4.69744 10.192C5.38095 10.1681 6.20015 10.1265 6.85698 10.2153C6.72155 11.3394 6.55791 12.4232 6.43163 13.5602H7.23329C7.49094 11.2624 7.76225 8.98416 8.08406 6.77738H7.26594V6.77738ZM18.6034 8.72864C17.9796 8.37093 17.4892 8.97541 17.2619 9.54165C17.3135 9.28974 17.3347 8.99471 17.3765 8.72864H16.7548C16.6028 10.4022 16.3788 11.9734 16.1659 13.5602H16.8694C16.968 12.6183 17.0105 11.3486 17.2292 10.4476C17.4041 9.72754 17.8616 9.11413 18.5217 9.44875C18.5308 9.18313 18.5844 8.98037 18.6034 8.72864V8.72864ZM18.9959 12.4221C18.9311 12.1842 18.9144 11.7915 18.9306 11.4928C18.9669 10.8217 19.1392 10.0045 19.405 9.63455C19.7719 9.12396 20.4961 9.20847 21.0738 9.4952C21.0916 9.21875 21.1308 8.97216 21.1556 8.70546C20.2082 8.48575 19.3092 8.62248 18.8326 9.33267C18.3659 10.0279 18.0601 11.6258 18.2762 12.6312C18.5293 13.8076 19.6642 13.8716 20.583 13.421C20.6237 13.1845 20.6452 12.9209 20.6812 12.6777C20.179 13.0479 19.2191 13.2404 18.9959 12.4221V12.4221ZM26.8979 8.75182C26.2761 8.31041 25.7584 9.05108 25.5564 9.49511C25.6139 9.26728 25.6172 8.96215 25.6708 8.72855H25.0492C24.8816 10.3876 24.6796 11.9977 24.444 13.5602H25.1638C25.1683 12.9198 25.2569 12.4461 25.3273 11.8181C25.4777 10.4771 25.6987 9.00662 26.7998 9.44866C26.8362 9.22191 26.8514 8.96468 26.8979 8.75182ZM8.54199 8.72864C8.52294 8.73252 8.52421 8.76535 8.52561 8.79827C8.37061 10.4442 8.16079 12.0125 7.93668 13.5602H8.64014C8.80917 11.9031 9.00279 10.2811 9.24545 8.72855L8.54199 8.72864V8.72864ZM14.726 8.63574C14.2177 8.69139 13.7881 8.89902 13.4827 9.35585C13.1082 9.91604 12.8049 11.1547 12.8938 12.2827C13.0206 13.892 14.4317 13.8342 15.5604 13.4442C15.5797 13.1617 15.6278 12.9202 15.6586 12.6543C15.1936 12.9014 14.3863 13.2462 13.908 12.817C13.5469 12.4928 13.5448 11.6721 13.6626 10.9587C14.4212 10.9244 15.2096 10.9309 15.9693 10.9587C16.0175 10.4531 16.1554 9.90179 16.0347 9.40239C15.8757 8.74307 15.3059 8.57224 14.726 8.63574ZM15.3968 10.4011H13.7444C13.7967 9.86175 14.1385 9.2689 14.6769 9.23968C15.1837 9.21217 15.5466 9.50386 15.3968 10.4011V10.4011ZM12.0594 8.72864C11.464 8.41107 10.7384 8.79015 10.4237 9.15075C10.4249 9.16662 10.4162 9.16879 10.407 9.16996C10.4123 9.16355 10.4182 9.15715 10.4237 9.15075C10.4237 9.14942 10.4236 9.14809 10.4234 9.14678C10.4287 8.99174 10.4671 8.88368 10.4725 8.72864H9.86715C9.6149 11.1115 9.31577 13.4277 9.00012 15.7205H9.70358C9.80541 14.8276 9.87262 13.8855 10.0145 13.0492C10.1751 13.9288 11.2241 13.7607 11.6668 13.4209C12.5801 12.7195 13.2846 9.382 12.0594 8.72864V8.72864ZM11.5032 12.6543C11.1268 13.2203 10.2015 13.2118 10.1289 12.2594C10.0974 11.845 10.206 11.4106 10.2599 10.9819C10.3142 10.5479 10.3534 10.1316 10.407 9.75072C10.7778 9.108 11.8671 9.03034 11.9776 10.0991C12.0735 11.0271 11.8148 12.1856 11.5032 12.6543V12.6543ZM29.5154 6.63803C29.4551 7.38862 29.3745 8.11045 29.2701 8.79827C27.5445 8.02269 26.4862 9.8254 26.5053 12.0504C26.509 12.4807 26.5612 12.9074 26.7506 13.2118C27.0774 13.7362 28.0126 13.8619 28.4849 13.4208C28.5762 13.3355 28.6696 13.1802 28.7302 13.0725C28.7757 12.9914 28.848 12.779 28.8611 12.8401C28.8362 13.0758 28.7991 13.2943 28.7957 13.5602H29.4338C29.5568 11.0556 29.9369 8.91651 30.219 6.63794H29.5155V6.63803H29.5154ZM27.9449 13.0259C27.4713 13.0404 27.2359 12.6242 27.225 11.9342C27.2061 10.7258 27.5795 9.38327 28.3375 9.26286C28.6905 9.20685 28.946 9.32338 29.2046 9.44875C28.9672 10.8062 29.0529 12.9922 27.9449 13.0259V13.0259ZM21.8753 8.72864C21.8407 9.00463 21.7875 9.25438 21.7445 9.51838C22.1596 9.37055 23.4522 8.91742 23.5768 9.70418C23.6182 9.96556 23.5468 10.2433 23.495 10.4476C22.3262 10.2903 21.3734 10.5661 21.1228 11.7483C20.9549 12.5402 21.1416 13.3195 21.4991 13.5371C22.1876 13.9559 23.0251 13.4761 23.315 12.817C23.2849 13.0451 23.2564 13.2758 23.266 13.5602H23.8713C23.8778 12.7371 23.9621 12.0709 24.0513 11.3302C24.1272 10.6995 24.2702 10.0751 24.2476 9.51838C24.1955 8.24348 22.708 8.69446 21.8753 8.72864V8.72864ZM23.0205 12.6311C22.658 13.135 21.6404 13.2781 21.7445 12.0736C21.8309 11.0731 22.5981 10.8606 23.4294 11.005C23.3677 11.5523 23.2968 12.2471 23.0205 12.6311V12.6311Z" fill="white"/>
</svg>
