<svg width="33" height="21" viewBox="0 0 33 21" fill="none" xmlns="http://www.w3.org/2000/svg">
<path d="M18.0647 10.7032L13.7111 0.691406V20.6914L18.0647 10.7032ZM9.3575 10.7032L13.7111 0.691406H5.00391L9.3575 10.7032Z" fill="#DB0011"/>
<path d="M0.640137 10.7032L5.00398 20.6914V0.691406L0.640137 10.7032ZM9.35758 10.7032L5.00398 20.6914H13.7112L9.35758 10.7032Z" fill="#DB0011"/>
<path d="M21.8858 11.2907H20.3083V14.8629H19.5195V6.4963H20.3083V9.92756H21.8858V6.4963H22.6746V14.8629H21.8858V11.2907ZM24.5799 15.0274C23.7912 15.0274 23.1458 14.2989 23.1356 12.3012H23.9243C23.9346 13.1943 24.16 13.7348 24.5902 13.7348C24.9077 13.7348 25.2765 13.3588 25.2765 12.5363C25.2765 11.8782 25.0307 11.6902 24.6209 11.4082L24.3546 11.2437C23.7809 10.8676 23.2073 10.3506 23.2073 8.84648C23.2073 6.98984 23.9653 6.35529 24.6517 6.35529C25.3585 6.35529 25.9731 6.91933 25.9833 8.77597H25.1946C25.1638 8.02391 24.9692 7.57738 24.6004 7.57738C24.3034 7.57738 24.0165 7.92991 24.0165 8.68196C24.0165 9.29301 24.2624 9.48102 24.7746 9.85705L25.0819 10.0686C25.7068 10.5151 26.1063 11.0086 26.1063 12.4187C26.096 14.2989 25.297 15.0274 24.5799 15.0274V15.0274ZM26.5467 6.5198H27.817C28.0526 6.4963 28.2984 6.5198 28.534 6.61381C28.9745 6.84883 29.3126 7.50688 29.3126 8.63496C29.3126 9.71604 29.0155 10.2566 28.5853 10.5151C29.077 10.7266 29.4457 11.2907 29.4457 12.5363C29.4457 14.4399 28.6262 14.8629 27.9911 14.8629H26.557L26.5467 6.5198ZM27.817 9.99806C28.1653 9.99806 28.5238 9.83355 28.5238 8.86998C28.5238 8.00041 28.196 7.76539 27.8682 7.76539H27.315V9.99806H27.817ZM27.8887 13.6173C28.2575 13.6173 28.616 13.4293 28.616 12.3952C28.616 11.3612 28.3087 11.1731 27.9297 11.1731H27.3048V13.6173H27.8887ZM31.4945 15.0274C30.3165 15.0274 29.794 13.3118 29.794 10.7501C29.794 8.18843 30.3779 6.33179 31.5355 6.33179C32.2628 6.33179 32.9696 7.08384 32.9901 8.96398H32.1706C32.1296 8.11792 31.8837 7.69489 31.5355 7.69489C30.8184 7.69489 30.6033 9.45752 30.6033 10.7971C30.6033 12.1367 30.8184 13.6878 31.5047 13.6878C31.8633 13.6878 32.1296 13.2413 32.1808 12.3952H33.0003C32.9184 14.3224 32.2525 15.0274 31.4945 15.0274Z" fill="white"/>
</svg>
