<svg width="33" height="21" viewBox="0 0 33 21" fill="none" xmlns="http://www.w3.org/2000/svg">
<g clip-path="url(#clip0_1812_348)">
<path d="M1.96045 2.32589V2.85765C1.97987 3.74766 2.41673 4.45855 2.96037 4.49213H3.12865C3.67229 4.45855 4.10915 3.74766 4.12857 2.85765V2.32589C4.10915 1.43588 3.67229 0.724991 3.12865 0.691406H2.96037C2.41673 0.724991 1.97987 1.43588 1.96045 2.32589ZM16.16 8.62312V15.9055C16.16 17.1706 16.4415 17.7415 17.3347 17.7415C17.7101 17.7415 18.0757 17.5624 18.2958 17.428V20.3612C17.9204 20.5795 17.3509 20.6858 16.8816 20.6858C15.0048 20.6858 14.1181 19.0625 14.1181 16.2526V1.55902H16.16V6.23297H18.2958V8.62312H16.16Z" fill="#FF7A00"/>
<path fill-rule="evenodd" clip-rule="evenodd" d="M18.9883 13.0508C18.9883 8.73509 20.561 5.79639 23.0786 5.79639C25.7677 5.79639 27.1009 9.18849 26.9585 14.1087H21.0852C21.192 16.6332 21.8748 17.9151 23.0883 17.9151C24.1141 17.9151 24.6578 17.0586 24.894 15.8496H26.8906C26.5023 18.8163 25.1464 20.6858 23.0786 20.6858C20.5286 20.6858 18.9883 17.7751 18.9883 13.4034V13.0508V13.0508ZM23.0624 8.62874C21.9428 8.62874 21.2729 9.66429 21.0852 11.7242L24.9069 11.6682C24.7969 9.74825 24.1982 8.62874 23.0624 8.62874Z" fill="#FF7A00"/>
<path d="M10.0181 5.80198C8.70425 5.80198 7.89525 7.14539 7.48751 8.46641L7.39367 6.23299H5.4456V20.2548H7.48751V12.3735C7.48751 10.0449 8.19943 8.62314 9.27702 8.62314C10.3546 8.62314 10.7526 9.8546 10.7526 11.9929V20.2548H12.7946V11.2316C12.801 8.10257 12.0179 5.80198 10.0181 5.80198V5.80198ZM30.1428 8.46081C30.6605 6.70319 31.7187 5.79639 32.5147 5.79639C32.6571 5.79639 32.8804 5.82997 33.0001 5.87475V8.61755C32.8027 8.58396 32.6053 8.56717 32.408 8.56157C30.955 8.56157 30.1428 10.0729 30.1428 12.6366V20.2436H28.1008V6.23299H30.0813L30.1428 8.46081ZM0.640137 6.23299V8.62314H2.02191V20.2548H4.06383V6.23299H0.640137Z" fill="#FF7A00"/>
</g>
<defs>
<clipPath id="clip0_1812_348">
<rect width="32.36" height="20" fill="white" transform="translate(0.640137 0.691406)"/>
</clipPath>
</defs>
</svg>
