<svg width="33" height="21" viewBox="0 0 33 21" fill="none" xmlns="http://www.w3.org/2000/svg">
<path fill-rule="evenodd" clip-rule="evenodd" d="M6.56332 0.691432L27.1253 0.698943C30.3529 0.698943 33.0124 2.34253 33.0001 4.34482V17.0529C33.0001 19.0553 30.3407 20.6914 27.1012 20.6914L6.52705 20.6839C3.28733 20.6766 0.640137 19.0405 0.640137 17.0381L0.664257 4.3298C0.664257 2.32763 3.31164 0.683921 6.56332 0.691432V0.691432Z" fill="#33348E"/>
<path fill-rule="evenodd" clip-rule="evenodd" d="M28.4428 9.81342H26.0978L25.1307 10.949H26.7746L28.4428 9.81342ZM30.0022 11.6589H27.7175V14.707C27.7175 15.6409 26.7019 15.9098 25.9528 15.9098C25.2394 15.9098 24.4535 15.7454 24.4658 14.9309V11.6588H22.1812L22.169 15.1327C22.169 16.4773 23.4145 17.075 25.1309 17.075C26.3274 17.0825 27.2585 16.7612 27.7781 16.1935H27.8022V16.9332H30.0023V11.6589H30.0022V11.6589ZM20.3918 13.0558C20.3918 11.7484 18.168 11.5169 16.9349 11.5169C15.1578 11.5169 13.3083 11.7484 13.0303 13.3621H15.2424C15.3149 13.0559 15.5204 12.6299 16.6566 12.6299C17.249 12.6299 18.168 12.66 18.168 13.2427C18.168 13.5415 17.7205 13.6312 17.3578 13.6611L15.3029 13.8478C13.8402 13.9749 12.7524 14.5052 12.7524 15.5363C12.7524 16.627 14.1063 17.0752 15.3996 17.0752C16.9711 17.0752 17.7084 16.6345 18.2162 16.3134C18.2644 16.6048 18.3007 16.6795 18.4338 16.9335L20.4042 16.9259C20.4042 16.3432 20.392 15.9173 20.392 15.9099V13.0558H20.3918V13.0558ZM10.6489 9.81342H8.36429V11.6513H7.17962V12.645H8.35214V15.85C8.35214 16.5297 8.70272 16.9931 10.6852 16.9931H10.9875C11.3501 16.9931 11.7126 16.9779 12.0634 16.9707V15.9171C11.9062 15.9246 11.7371 15.9395 11.5919 15.9395C10.6611 15.9395 10.6368 15.8199 10.6368 15.5061L10.6489 12.6448H12.0754V11.6512H10.6489V9.81342V9.81342ZM6.12807 9.80591H3.66205L3.6499 16.9258H6.11592L6.12807 9.80591V9.80591Z" fill="#FFF22D"/>
</svg>
