<svg width="33" height="21" viewBox="0 0 33 21" fill="none" xmlns="http://www.w3.org/2000/svg">
<path fill-rule="evenodd" clip-rule="evenodd" d="M32.6233 5.16165C32.1809 3.78774 31.2403 2.85961 29.478 2.05805C26.7945 0.833159 20.969 0.691406 16.8201 0.691406C12.6715 0.691406 6.84555 0.833159 4.16145 2.05816C2.4 2.8595 1.45935 3.78763 1.01698 5.16154C0.594124 6.47548 0.621867 8.19191 0.66023 10.5675L0.663047 10.751L0.671933 11.3289C0.738039 15.7357 0.768166 17.747 4.24056 19.3249C6.92401 20.5497 12.7051 20.6914 16.8201 20.6914C20.9349 20.6914 26.7163 20.5497 29.4002 19.3247C32.8723 17.747 32.9022 15.7357 32.9679 11.3289L32.9772 10.751L32.9803 10.5675C33.0182 8.19202 33.0462 6.47559 32.6233 5.16165V5.16165ZM32.1957 10.5645L32.1926 10.748L32.1838 11.3261C32.1176 15.7467 32.0901 17.5764 28.8679 19.0406C26.3855 20.1736 20.8032 20.3046 16.8199 20.3046C12.8369 20.3046 7.25454 20.1735 4.772 19.0406C1.54995 17.5764 1.52242 15.7467 1.45632 11.3261L1.44743 10.748L1.44439 10.5645C1.36789 5.82947 1.33624 3.86952 4.69354 2.3423C7.17608 1.20935 12.8033 1.07839 16.8201 1.07839C20.8368 1.07839 26.464 1.20946 28.9459 2.3422C32.3036 3.86952 32.272 5.82947 32.1957 10.5645V10.5645Z" fill="#E7C63D"/>
<path fill-rule="evenodd" clip-rule="evenodd" d="M20.8985 4.2505C21.5652 3.86362 22.5458 3.65088 23.722 3.65088H27.9573V12.7031C27.9573 13.5736 26.2319 14.4246 24.4669 14.4246H20.1139V13.7283C19.4472 14.1344 18.4279 14.4246 17.4082 14.4246H13.0554V13.7283C12.3887 14.1344 11.3691 14.4246 10.3496 14.4246H5.99658V5.41103C5.99658 4.34724 7.52612 3.65088 9.60444 3.65088H13.8398V4.2505C14.5064 3.86362 15.4868 3.65088 16.6632 3.65088H20.8985V4.2505V4.2505Z" fill="#E7C63D"/>
<path fill-rule="evenodd" clip-rule="evenodd" d="M6.78076 14.0376H10.3494C11.6043 14.0376 13.0552 13.4573 13.0552 12.703V4.0376H9.60423C7.99646 4.0376 6.78076 4.54047 6.78076 5.41087V14.0376Z" fill="#009FE1"/>
<path fill-rule="evenodd" clip-rule="evenodd" d="M13.8398 14.0376H17.4085C18.6632 14.0376 20.1142 13.4573 20.1142 12.703V4.0376H16.6633C15.0555 4.0376 13.8398 4.54047 13.8398 5.41087V14.0376Z" fill="#CC2229"/>
<path fill-rule="evenodd" clip-rule="evenodd" d="M20.8984 14.0376H24.4671C25.7218 14.0376 27.1728 13.4573 27.1728 12.703V4.0376H23.7219C22.1141 4.0376 20.8984 4.54047 20.8984 5.41087V14.0376V14.0376Z" fill="#33A457"/>
<path fill-rule="evenodd" clip-rule="evenodd" d="M7.76108 9.27932H6.78076C7.05537 9.82089 8.34953 10.2465 9.80038 10.2465C11.1338 10.2465 12.9377 9.87894 12.9377 9.18258V7.92529H10.7022V9.18258C10.7022 9.55011 10.114 9.84024 9.29039 9.84024C8.54546 9.84024 7.87877 9.60816 7.76108 9.27932Z" fill="white"/>
<path fill-rule="evenodd" clip-rule="evenodd" d="M6.14265 16.1439C6.22392 16.3704 6.68298 16.5301 7.19644 16.5301C7.76386 16.5301 8.16917 16.3303 8.16917 16.0771V15.2109H9.70932V16.0771C9.70932 16.5568 8.46653 16.8101 7.54777 16.8101C6.54795 16.8101 5.6565 16.517 5.46729 16.1439H6.14265V16.1439ZM14.2216 16.4236V16.6769H11.6277C10.8171 16.6769 10.1415 16.3437 10.1415 15.9439C10.1415 15.544 10.8171 15.211 11.6277 15.211H14.2216V15.4774C13.6 15.4108 13.0057 15.3708 12.7086 15.3708C12.0601 15.3708 11.5466 15.624 11.5466 15.9439C11.5466 16.2637 12.0601 16.517 12.7086 16.517C13.0055 16.517 13.6 16.4902 14.2216 16.4236ZM17.95 15.9572C18.4097 15.9572 18.7606 16.1172 18.7606 16.317C18.7606 16.517 18.4097 16.6769 17.95 16.6769H14.5459V15.2109H17.95C18.3555 15.2109 18.7068 15.384 18.7068 15.584C18.7068 15.7839 18.3555 15.9572 17.95 15.9572V15.9572ZM15.8426 16.517H16.9235C17.1936 16.517 17.437 16.3969 17.437 16.2637C17.437 16.1305 17.1936 16.0105 16.9235 16.0105H15.8426V16.517ZM15.8426 15.3706V15.8772H16.8964C17.1669 15.8772 17.4099 15.7573 17.4099 15.6239C17.4099 15.4907 17.1669 15.3706 16.8964 15.3706H15.8426Z" fill="#E7C63D"/>
<path fill-rule="evenodd" clip-rule="evenodd" d="M27.1731 9.53076C27.1731 9.82089 26.6633 10.053 25.9967 10.053H21.0552V7.92529H25.9967C26.5851 7.92529 27.0947 8.17684 27.0947 8.46686C27.0947 8.75689 26.5849 9.00843 25.9967 9.00843C26.6633 9.00854 27.1731 9.24062 27.1731 9.53076ZM22.9378 8.89244H24.4673C24.8594 8.89244 25.2125 8.7184 25.2125 8.52491C25.2125 8.33142 24.8594 8.15738 24.4673 8.15738H22.9378V8.89244V8.89244ZM24.5066 9.82089C24.8986 9.82089 25.2517 9.64685 25.2517 9.45336C25.2517 9.25997 24.8986 9.08583 24.5066 9.08583H22.9378V9.82079H24.5066V9.82089ZM19.9576 9.68555V10.0531H16.1926C15.0162 10.0531 14.0356 9.56956 14.0356 8.98919C14.0356 8.40892 15.0162 7.9254 16.1926 7.9254H19.9576V8.31228C19.0556 8.21553 18.1927 8.15759 17.7614 8.15759C16.8201 8.15759 16.0752 8.52512 16.0752 8.9893C16.0752 9.45357 16.8203 9.821 17.7614 9.821C18.1927 9.82089 19.0553 9.78219 19.9576 9.68555Z" fill="white"/>
<path fill-rule="evenodd" clip-rule="evenodd" d="M20.7399 16.4827C20.464 16.4827 20.4516 16.2847 20.4516 16.1641V15.7578C20.4516 15.6436 20.425 15.3882 20.7399 15.3882C20.9376 15.3882 20.9228 15.5641 20.9406 15.6577H21.3368C21.3394 15.6209 21.3333 15.5842 21.3275 15.5453C21.3004 15.2965 21.0997 15.1718 20.7399 15.1677C20.0977 15.1677 20.0528 15.4454 20.0381 15.8191V16.0273C20.0381 16.4172 20.0799 16.7031 20.7399 16.7031C21.1894 16.7031 21.3216 16.4989 21.3394 16.2314C21.3429 16.2028 21.3457 16.1743 21.3487 16.1458H20.9436C20.9345 16.2396 20.9616 16.4827 20.7399 16.4827V16.4827ZM22.0141 15.2025L21.5011 16.6685H21.9302L22.0382 16.2968H22.5089L22.6138 16.6685H23.0456L22.5566 15.2025H22.0141ZM22.1012 16.0826L22.2211 15.6661C22.2423 15.5967 22.2482 15.5312 22.2601 15.462C22.2631 15.4291 22.269 15.3966 22.2753 15.3638H22.2811C22.287 15.3966 22.293 15.4291 22.2959 15.462C22.3078 15.5312 22.3141 15.5967 22.3349 15.6661L22.4459 16.0826H22.1012ZM24.6111 16.1784C24.6111 16.0375 24.5391 15.9333 24.302 15.9131V15.9089C24.5721 15.8824 24.6321 15.715 24.6321 15.5536C24.6321 15.2842 24.3679 15.2026 24.02 15.2026H23.2584V16.6686H23.6602V16.0376H23.7322C23.846 16.0376 23.9663 16.0357 24.0742 16.056C24.2123 16.0847 24.2088 16.2072 24.2123 16.297C24.2153 16.3951 24.206 16.5747 24.2541 16.6687H24.6978V16.6422C24.5994 16.599 24.6111 16.2375 24.6111 16.1784V16.1784ZM23.9782 15.8212H23.6602V15.4167H23.96C24.1132 15.4189 24.2123 15.4474 24.2123 15.6109C24.2123 15.7578 24.1104 15.817 23.9782 15.8212V15.8212ZM25.8675 15.2025H25.0307V16.6685H25.7745C25.8736 16.6685 25.9846 16.6643 26.0713 16.6297C26.4044 16.4989 26.4044 16.1641 26.4044 15.8743C26.4044 15.6333 26.3773 15.4701 26.2841 15.368C26.1614 15.2312 25.9666 15.2025 25.8675 15.2025ZM25.6064 16.454H25.4323V15.4167H25.6965C25.9364 15.4167 25.9902 15.5535 25.9902 15.9007C25.9904 16.3254 25.9666 16.454 25.6064 16.454V16.454ZM27.8555 15.9742C27.7445 15.9007 27.4987 15.7905 27.3665 15.7333C27.2408 15.6803 27.1387 15.6373 27.1387 15.5251C27.1387 15.4251 27.2226 15.3882 27.3576 15.3882C27.5793 15.3882 27.5975 15.517 27.5947 15.6478H27.9816C27.9786 15.5027 27.9963 15.1678 27.3546 15.1678C26.9317 15.1678 26.7247 15.3047 26.7247 15.5536C26.7247 15.6333 26.7607 15.7129 26.8268 15.7783C26.992 15.9253 27.2527 16.005 27.4627 16.1174C27.5648 16.1662 27.6214 16.2256 27.6214 16.3113C27.6214 16.4215 27.5436 16.4828 27.3726 16.4828C27.1749 16.4828 27.1118 16.3785 27.1207 16.2357V16.1499H26.7189V16.2581C26.7189 16.5194 26.8899 16.7032 27.3726 16.7032C27.7653 16.7032 28.0356 16.5584 28.0356 16.2806C28.0354 16.154 27.9935 16.0661 27.8555 15.9742V15.9742ZM28.2757 14.3484C28.2757 14.3192 28.2605 14.292 28.2096 14.275C28.1656 14.2619 28.1021 14.2612 28.0525 14.2612H27.7757V14.5447H27.8886V14.4249H28.0005L28.1275 14.5447H28.2586L28.1188 14.4249C28.2209 14.4215 28.2757 14.3999 28.2757 14.3484V14.3484ZM28.0557 14.3824H27.8888V14.303H28.0273C28.0824 14.303 28.1645 14.303 28.1645 14.34C28.1645 14.3762 28.1192 14.3832 28.0557 14.3824Z" fill="#E7C63D"/>
</svg>
