<svg width="33" height="21" viewBox="0 0 33 21" fill="none" xmlns="http://www.w3.org/2000/svg">
<path fill-rule="evenodd" clip-rule="evenodd" d="M16.8201 18.1031C17.825 17.1632 18.6271 16.0183 19.1752 14.742C19.7232 13.4656 20.005 12.0859 20.0026 10.6913C20.0051 9.29674 19.7233 7.91702 19.1752 6.64065C18.6272 5.36428 17.825 4.21944 16.8201 3.27957C15.1019 1.67141 12.8225 0.691406 10.3213 0.691406C4.97469 0.691406 0.640137 5.16846 0.640137 10.6913C0.640137 16.214 4.97469 20.6912 10.3213 20.6912C12.8225 20.6912 15.1021 19.7112 16.8201 18.1031Z" fill="#3A9BD9"/>
<path fill-rule="evenodd" clip-rule="evenodd" d="M23.319 0.691406C20.8177 0.691406 18.538 1.67141 16.8201 3.27957C16.4698 3.60779 16.1431 3.96164 15.8427 4.33831H17.7969C18.0652 4.67452 18.3119 5.02824 18.5354 5.39724H15.1046C14.8981 5.73846 14.7117 6.09207 14.5465 6.45616H19.0927C19.2492 6.80077 19.3864 7.15426 19.5035 7.5149H14.1365C14.024 7.86227 13.9302 8.21572 13.8555 8.57365H19.7848C19.9299 9.2697 20.003 9.97953 20.0027 10.6913C20.0027 11.8015 19.827 12.8696 19.5037 13.8676H14.1365C14.2533 14.2283 14.3902 14.5818 14.5465 14.9265H19.0927C18.9278 15.2906 18.7416 15.6442 18.5353 15.9854H15.1046C15.328 16.3544 15.5745 16.7081 15.8425 17.0443H17.7969C17.4968 17.4212 17.1704 17.7751 16.8201 18.1032C18.538 19.7114 20.8177 20.6914 23.319 20.6914C28.6654 20.6914 33.0001 16.2142 33.0001 10.6915C33.0001 5.16846 28.6654 0.691406 23.319 0.691406Z" fill="#CC2131"/>
<path fill-rule="evenodd" clip-rule="evenodd" d="M29.6637 12.8585C29.6637 12.6801 29.8037 12.5354 29.9763 12.5354C30.1489 12.5354 30.2888 12.6801 30.2888 12.8585C30.2888 13.0369 30.1489 13.1812 29.9763 13.1812C29.8037 13.1812 29.6637 13.0367 29.6637 12.8585ZM29.9761 13.1036C30.1072 13.1036 30.2136 12.9938 30.2136 12.8583C30.2136 12.7225 30.1072 12.6127 29.9761 12.6127C29.8447 12.6127 29.7386 12.7225 29.7386 12.8583C29.7386 12.9938 29.8448 13.1036 29.9761 13.1036ZM29.9339 13H29.8697V12.7162H29.986C30.01 12.7162 30.0349 12.7166 30.0559 12.7308C30.0669 12.7387 30.0759 12.7493 30.082 12.7616C30.0881 12.7739 30.0912 12.7876 30.091 12.8014C30.091 12.8337 30.073 12.8634 30.0434 12.8748L30.0941 12.9998H30.0232L29.981 12.8876H29.9341V13V12.8393H29.9695C29.9827 12.8393 29.9972 12.8404 30.0085 12.8338C30.0135 12.8301 30.0177 12.8253 30.0205 12.8196C30.0233 12.8139 30.0248 12.8076 30.0247 12.8012C30.0246 12.7954 30.0231 12.7898 30.0204 12.7847C30.0177 12.7796 30.0138 12.7753 30.0092 12.7721C29.9981 12.7656 29.9801 12.767 29.9683 12.767H29.9343V13H29.9339ZM9.11182 13.1812H7.90693L8.62301 9.28393L6.97429 13.1812H5.87561L5.67479 9.30627L4.95646 13.1812H3.86279L4.79733 8.11151H6.67748L6.77694 11.2501L8.10256 8.11151H10.0618L9.11182 13.1812V13.1812ZM22.5775 13.1307C22.2478 13.2242 21.9901 13.2644 21.7116 13.2644C21.0951 13.2644 20.7585 12.945 20.7585 12.3591C20.7585 12.2431 20.771 12.1197 20.794 11.9891L20.8673 11.586L20.9237 11.2597L21.4822 8.11133H22.6805L22.5069 9.05817H23.1218L22.9566 10.0605H22.3391L22.0215 11.7808C22.0098 11.837 22.0029 11.8941 22.001 11.9515C22.001 12.1645 22.1257 12.2571 22.4121 12.2571C22.5493 12.2571 22.6556 12.2443 22.7371 12.2186L22.5775 13.1307ZM26.0966 9.09204C25.9956 9.0509 25.9719 9.0509 25.9602 9.04753C25.8963 9.03299 25.8623 9.02447 25.8564 9.02341C25.8164 9.01623 25.7758 9.01279 25.7351 9.01312C25.3396 9.01312 25.0543 9.19508 24.6856 9.6826L24.792 9.05781H23.7007L22.9663 13.1811H24.172C24.6034 10.6594 24.7881 10.2178 25.3665 10.2178C25.4101 10.2178 25.4605 10.2214 25.5189 10.2283L25.6597 10.2579L26.0966 9.09204V9.09204ZM17.801 10.3608C17.801 10.8816 18.0852 11.2404 18.7293 11.51C19.2229 11.7171 19.2992 11.7777 19.2992 11.965C19.2992 12.2216 19.0816 12.3374 18.5996 12.3374C18.2356 12.3374 17.8975 12.2869 17.5071 12.1743L17.3399 13.1254L17.3938 13.1348L17.6171 13.177C17.6891 13.1898 17.7951 13.202 17.9357 13.213C18.2256 13.2362 18.45 13.2472 18.608 13.2472C19.8942 13.2472 20.4884 12.8118 20.4884 11.8714C20.4884 11.3055 20.24 10.9737 19.6292 10.7238C19.1181 10.5151 19.059 10.4688 19.059 10.2763C19.059 10.0541 19.2617 9.93992 19.6555 9.93992C19.8951 9.93992 20.2217 9.96316 20.5314 10.0018L20.7051 9.04735C20.3896 9.00302 19.9108 8.96666 19.6325 8.96666C18.2689 8.96684 17.7968 9.60031 17.801 10.3608V10.3608ZM13.0288 13.1812H12.0275L12.0509 12.7538C11.7459 13.0922 11.3395 13.2525 10.787 13.2525C10.1341 13.2525 9.68589 12.7932 9.68589 12.1264C9.68589 11.1219 10.4644 10.5365 11.8025 10.5365C11.9397 10.5365 12.1138 10.5477 12.2934 10.5683C12.3307 10.4328 12.3409 10.3742 12.3409 10.3005C12.3409 10.0275 12.1308 9.92538 11.5681 9.92538C11.2241 9.92538 10.8353 9.97007 10.5668 10.0403L10.3999 10.0841L10.2918 10.1107L10.4589 9.18373C11.0596 9.02483 11.456 8.96471 11.9014 8.96471C12.937 8.96471 13.4842 9.3836 13.4842 10.1742C13.4842 10.3776 13.4661 10.5321 13.3863 10.991L13.1345 12.4538L13.0921 12.7162L13.0613 12.9259L13.0408 13.0693L13.0288 13.1812V13.1812ZM12.1498 11.3443C12.0605 11.3329 11.9705 11.3272 11.8805 11.3273C11.1976 11.3273 10.8517 11.5382 10.8517 11.9546C10.8517 12.2112 11.0205 12.375 11.2839 12.375C11.7752 12.3752 12.1291 11.954 12.1498 11.3443ZM16.9816 13.0922C16.5792 13.2042 16.164 13.2604 15.747 13.2595C14.3999 13.2584 13.6979 12.6249 13.6979 11.4122C13.6979 9.99685 14.5911 8.95478 15.8036 8.95478C16.7955 8.95478 17.4289 9.53842 17.4289 10.4535C17.4289 10.7573 17.3857 11.0535 17.281 11.4715H14.8853C14.878 11.5142 14.8741 11.5575 14.8737 11.6009C14.8737 12.0789 15.2309 12.3227 15.9307 12.3227C16.361 12.3227 16.75 12.242 17.1819 12.0618L16.9816 13.0922ZM16.3399 10.6388C16.3465 10.553 16.35 10.4828 16.35 10.4285C16.35 10.0937 16.1388 9.89718 15.78 9.89718C15.3967 9.89718 15.1226 10.1607 15.0114 10.6364L16.3399 10.6388ZM29.8421 11.3119C29.6617 12.6834 28.7344 13.2917 27.5017 13.2917C26.1385 13.2917 25.5879 12.4376 25.5879 11.3911C25.5879 9.92982 26.5204 8.9397 27.9605 8.9397C29.2106 8.9397 29.8742 9.75389 29.8742 10.8006C29.8742 11.0552 29.8739 11.0721 29.8421 11.3119ZM28.6012 10.7843C28.6012 10.353 28.4317 9.94578 27.9377 9.94578C27.3228 9.94578 26.9418 10.6965 26.9418 11.3592C26.9418 11.9182 27.2029 12.2938 27.6336 12.2858C27.8948 12.2858 28.4518 11.9184 28.5619 11.2766C28.5877 11.1269 28.6012 10.9627 28.6012 10.7843V10.7843Z" fill="white"/>
</svg>
