<svg width="33" height="21" viewBox="0 0 33 21" fill="none" xmlns="http://www.w3.org/2000/svg">
<path d="M9.89706 0.774902C9.54404 0.901299 0.640137 17.3509 0.640137 17.8746C0.640137 18.4163 1.11083 18.8857 1.65997 18.8857C1.89531 18.8857 6.22959 17.1342 11.3091 14.9855C19.7423 11.4283 20.5857 11.1033 20.9779 11.3381C21.2133 11.4645 22.5665 12.4937 23.9786 13.5951C25.4102 14.7147 26.7243 15.6355 26.9008 15.6355C27.0969 15.6355 27.3911 15.5272 27.5676 15.4008C27.999 15.1119 33.0001 5.59603 33.0001 5.07239C33.0001 4.58486 32.4314 4.07927 31.8822 4.07927C31.6469 4.07927 30.2348 4.60292 28.7443 5.2349C27.2538 5.86688 24.9396 6.84194 23.6255 7.41976C22.2919 7.97951 21.0956 8.39482 20.9779 8.3587C20.8406 8.30453 18.546 6.55304 15.8591 4.45846C11.1718 0.774902 10.6815 0.485995 9.89706 0.774902ZM14.8393 6.48081C16.8397 8.0698 18.4872 9.40599 18.4872 9.47822C18.4872 9.53239 17.6635 9.92963 16.6829 10.3449C15.6826 10.7602 12.5251 12.0784 9.68133 13.2701C6.83757 14.4799 4.48411 15.455 4.44489 15.455C4.40566 15.455 5.81774 12.7645 7.60244 9.47822C9.38714 6.1919 10.9365 3.53757 11.0346 3.57369C11.1326 3.6098 12.8389 4.90988 14.8393 6.48081ZM28.7835 8.50316C28.509 9.04486 27.901 10.2185 27.4107 11.1214L26.5281 12.7645L24.8611 11.4645C23.9393 10.7602 23.1941 10.1283 23.1941 10.056C23.1941 9.94769 28.8424 7.5281 29.1169 7.51004C29.1954 7.51004 29.0385 7.96146 28.7835 8.50316Z" fill="white"/>
<path d="M21.0955 17.5676C20.919 17.6218 20.8406 18.1274 20.8406 19.1746C20.8406 20.565 20.8798 20.6914 21.2328 20.6914C21.5858 20.6914 21.6251 20.565 21.6251 19.4094V18.1454L22.2723 18.1996L22.8998 18.2538L22.9587 19.4636C23.0175 20.547 23.0567 20.6914 23.3902 20.6914C23.7432 20.6914 23.7824 20.565 23.7824 19.2469C23.7824 18.019 23.7236 17.7843 23.4098 17.6218C23.0175 17.4412 21.527 17.387 21.0955 17.5676Z" fill="white"/>
<path d="M24.8024 17.8564C24.1748 18.4703 24.214 19.6621 24.8612 20.2579C25.2534 20.6191 25.5084 20.7094 26.1948 20.6552C26.7832 20.6191 27.0381 20.5107 27.0774 20.276C27.1362 20.0232 26.9989 19.969 26.3713 19.969C25.9203 19.969 25.4888 19.8607 25.3515 19.6982C25.0573 19.3551 25.2731 19.2829 26.6263 19.2107C27.5873 19.1565 27.6069 19.1384 27.5481 18.6148C27.45 17.8022 26.9793 17.4411 26.0379 17.4411C25.4496 17.4411 25.1162 17.5494 24.8024 17.8564Z" fill="white"/>
<path d="M28.0774 18.2176L28.6461 18.9941L28.0774 19.8427L27.5086 20.6914H27.9989C28.2931 20.6914 28.6069 20.5289 28.803 20.24C28.9795 19.9872 29.1953 19.7886 29.2541 19.7886C29.3326 19.7886 29.5287 19.9872 29.666 20.24C29.8229 20.5289 30.0974 20.6914 30.3916 20.6914C30.9604 20.6914 30.9604 20.565 30.3328 19.7344L29.8229 19.0482L30.3328 18.326C30.9604 17.4593 30.9604 17.4412 30.3524 17.4412C30.019 17.4412 29.7836 17.5857 29.6267 17.8926C29.5091 18.1454 29.3522 18.344 29.2737 18.344C29.1953 18.344 29.0188 18.1454 28.8815 17.8926C28.6854 17.5676 28.45 17.4412 28.0578 17.4412H27.489L28.0774 18.2176Z" fill="white"/>
</svg>
