<svg width="37" height="21" viewBox="0 0 37 21" fill="none" xmlns="http://www.w3.org/2000/svg">
<g clip-path="url(#clip0_1812_352)">
<path d="M22.8207 0.691285C20.5979 0.664221 18.7855 5.11167 18.771 10.6326C18.771 16.1897 20.587 20.6913 22.8243 20.6913C25.058 20.6913 26.8704 16.1897 26.874 10.6326C26.8558 5.12069 25.0435 0.664221 22.8207 0.691285ZM22.8207 15.892C21.6512 15.8559 20.7177 13.4833 20.7286 10.5785C20.7395 7.67369 21.702 5.35525 22.8715 5.38231C24.0301 5.41839 24.9636 7.75488 24.9636 10.6326C24.9527 13.5555 23.9974 15.91 22.8207 15.892Z" fill="url(#paint0_linear_1812_352)"/>
<path d="M32.4164 0.691515C29.903 0.664451 27.851 5.69828 27.8364 11.941C27.8364 14.927 28.3195 17.7957 29.1766 19.8886C29.5507 20.7998 30.1536 20.7998 30.5277 19.8886C30.8982 18.9865 30.9018 17.5161 30.5386 16.5959L30.5277 16.5688C29.4962 14.0519 29.4817 9.92922 30.4987 7.3672L30.5277 7.29503C31.5774 4.73301 33.2554 4.73301 34.305 7.29503C35.3365 9.81195 35.351 13.9346 34.3341 16.4967L34.305 16.5688C33.9346 17.4709 33.9309 18.9414 34.2941 19.8616L34.305 19.8886C34.6791 20.7998 35.282 20.7998 35.6561 19.8886C36.5169 17.7957 37.0036 14.936 37.0036 11.941C36.9818 5.69828 34.9334 0.664451 32.4164 0.691515V0.691515Z" fill="url(#paint1_linear_1812_352)"/>
<path d="M5.26352 0.691515C2.74654 0.664451 0.698092 5.69828 0.679932 11.95C0.679932 14.936 1.16299 17.8047 2.02014 19.8976C2.39424 20.8088 2.99715 20.8088 3.37124 19.8976C3.74171 18.9955 3.74534 17.5251 3.38214 16.6049L3.37124 16.5778C2.33976 14.0609 2.32523 9.93825 3.33856 7.37622L3.37124 7.29503C4.42089 4.73301 6.09888 4.73301 7.14852 7.29503C8.18001 9.81195 8.19454 13.9346 7.18121 16.4967L7.14852 16.5778C6.77806 17.48 6.77443 18.9504 7.13763 19.8706L7.14852 19.8976C7.52262 20.8088 8.12553 20.8088 8.49963 19.8976C9.36041 17.8047 9.8471 14.945 9.8471 11.95C9.82531 5.69828 7.77686 0.664451 5.26352 0.691515Z" fill="url(#paint2_linear_1812_352)"/>
<path d="M17.7286 6.7716C18.0882 5.85144 18.0809 4.38098 17.7105 3.47886L17.6996 3.4518C16.0724 -0.382209 13.5046 -0.210807 11.961 3.83069C11.26 5.67102 10.8605 8.09772 10.8496 10.6327C10.8787 16.1988 12.7201 20.6552 14.961 20.574C15.9816 20.538 16.9586 19.5546 17.6996 17.8136C18.0773 16.9295 18.0955 15.459 17.7395 14.5208L17.7286 14.4937C17.3618 13.5555 16.7625 13.5285 16.3775 14.4216C15.5313 16.4062 14.1983 16.3611 13.3738 14.3133C12.553 12.2836 12.553 8.9818 13.3702 6.943L13.3738 6.93398C14.1983 4.88617 15.5276 4.84107 16.3775 6.82573C16.7589 7.73687 17.3618 7.70981 17.7286 6.7716V6.7716Z" fill="url(#paint3_linear_1812_352)"/>
<path d="M14.8921 8.2962C15.4187 8.28718 15.8473 9.33364 15.8509 10.6237C15.8545 11.9137 15.4296 12.9782 14.903 12.9782C14.3763 12.9872 13.9477 11.9408 13.9441 10.6507C13.9405 9.3607 14.3654 8.2962 14.8921 8.2962V8.2962Z" fill="url(#paint4_linear_1812_352)"/>
</g>
<defs>
<linearGradient id="paint0_linear_1812_352" x1="0.757667" y1="10.6947" x2="36.9954" y2="10.6947" gradientUnits="userSpaceOnUse">
<stop stop-color="#00A5F0"/>
<stop offset="1" stop-color="#00D7D7"/>
</linearGradient>
<linearGradient id="paint1_linear_1812_352" x1="0.756527" y1="10.6415" x2="37.0002" y2="10.6415" gradientUnits="userSpaceOnUse">
<stop stop-color="#00A5F0"/>
<stop offset="1" stop-color="#00D7D7"/>
</linearGradient>
<linearGradient id="paint2_linear_1812_352" x1="0.753305" y1="10.6392" x2="36.9968" y2="10.6392" gradientUnits="userSpaceOnUse">
<stop stop-color="#00A5F0"/>
<stop offset="1" stop-color="#00D7D7"/>
</linearGradient>
<linearGradient id="paint3_linear_1812_352" x1="0.759404" y1="10.638" x2="36.9973" y2="10.638" gradientUnits="userSpaceOnUse">
<stop stop-color="#00A5F0"/>
<stop offset="1" stop-color="#00D7D7"/>
</linearGradient>
<linearGradient id="paint4_linear_1812_352" x1="0.756568" y1="10.831" x2="36.9993" y2="10.7502" gradientUnits="userSpaceOnUse">
<stop stop-color="#00A5F0"/>
<stop offset="1" stop-color="#00D7D7"/>
</linearGradient>
<clipPath id="clip0_1812_352">
<rect width="36.32" height="20" fill="white" transform="translate(0.679932 0.691406)"/>
</clipPath>
</defs>
</svg>
