<svg width="33" height="21" viewBox="0 0 33 21" fill="none" xmlns="http://www.w3.org/2000/svg">
<g clip-path="url(#clip0_1808_1296)">
<path d="M12.7426 5.61926H10.9525C10.8932 5.61918 10.8359 5.66827 10.7909 5.75769C10.7458 5.84712 10.716 5.971 10.7067 6.10701L9.98275 16.7723C9.97942 16.8218 9.98075 16.8724 9.98664 16.9206C9.99253 16.9688 10.0028 17.0134 10.0169 17.0514C10.0309 17.0895 10.0483 17.12 10.0679 17.1409C10.0875 17.1618 10.1088 17.1726 10.1304 17.1725H10.985C11.0443 17.1725 11.1016 17.1234 11.1467 17.0338C11.1918 16.9443 11.2216 16.8203 11.2307 16.6841L11.426 13.8075C11.4352 13.6715 11.4649 13.5476 11.51 13.458C11.555 13.3685 11.6123 13.3193 11.6715 13.3192H12.2382C13.4174 13.3192 14.0979 11.9934 14.2756 9.36614C14.3557 8.21672 14.279 7.3136 14.0474 6.68111C13.793 5.98659 13.3417 5.61926 12.7426 5.61926V5.61926ZM12.9491 9.51453C12.8512 11.007 12.3604 11.007 11.8859 11.007H11.6158L11.8053 8.21976C11.8108 8.13821 11.8287 8.06395 11.8557 8.01032C11.8827 7.9567 11.9171 7.92723 11.9526 7.92723H12.0764C12.3997 7.92723 12.7046 7.92723 12.8622 8.35538C12.9562 8.6108 12.985 8.9903 12.9491 9.51453V9.51453ZM18.0934 9.46648H17.2362C17.2007 9.46649 17.1663 9.49595 17.1393 9.54958C17.1123 9.6032 17.0944 9.67747 17.0889 9.75901L17.0509 10.3161L16.991 10.1142C16.8054 9.48838 16.3916 9.27917 15.9785 9.27917C15.0313 9.27917 14.2222 10.9461 14.0647 13.2845C13.9827 14.451 14.0992 15.5663 14.384 16.3442C14.6452 17.0594 15.019 17.3574 15.4637 17.3574C16.2269 17.3574 16.6502 16.2171 16.6502 16.2171L16.612 16.7705C16.6086 16.82 16.6098 16.8706 16.6156 16.9188C16.6215 16.9671 16.6317 17.0118 16.6457 17.05C16.6597 17.0881 16.677 17.1188 16.6966 17.1398C16.7162 17.1609 16.7375 17.1718 16.7591 17.1719H17.5312C17.5905 17.1719 17.6479 17.1228 17.6929 17.0332C17.738 16.9437 17.7678 16.8196 17.777 16.6835L18.2403 9.86665C18.2437 9.81728 18.2424 9.76678 18.2366 9.71864C18.2308 9.67049 18.2206 9.62585 18.2066 9.5878C18.1927 9.54976 18.1753 9.5192 18.1558 9.49826C18.1362 9.47731 18.115 9.46647 18.0934 9.46648V9.46648ZM16.8986 13.3429C16.8159 14.4808 16.4272 15.2446 15.9314 15.2446C15.6825 15.2446 15.4836 15.0591 15.3558 14.7076C15.2292 14.3585 15.181 13.8617 15.2213 13.3082C15.2985 12.1801 15.6938 11.3913 16.1819 11.3913C16.4253 11.3913 16.6232 11.5792 16.7536 11.9338C16.8842 12.292 16.936 12.7919 16.8986 13.3429V13.3429ZM22.6588 9.46648H21.7974C21.7568 9.46663 21.7168 9.48981 21.6809 9.534C21.645 9.5782 21.6143 9.64207 21.5914 9.72009L20.4033 13.7862L19.8997 9.87882C19.8843 9.75964 19.8527 9.6552 19.8097 9.58093C19.7667 9.50667 19.7146 9.46654 19.661 9.46648H18.8145C18.7908 9.46634 18.7673 9.47938 18.7462 9.50452C18.725 9.52967 18.7068 9.56619 18.6929 9.61105C18.6791 9.6559 18.67 9.7078 18.6666 9.76241C18.6631 9.81703 18.6653 9.87278 18.6729 9.92504L19.6218 16.3946L18.7297 19.3205C18.7139 19.3724 18.7045 19.4334 18.7026 19.4969C18.7006 19.5603 18.7063 19.6238 18.7188 19.6803C18.7314 19.7368 18.7504 19.7842 18.7738 19.8173C18.7972 19.8504 18.8241 19.8679 18.8514 19.8678H19.7118C19.752 19.868 19.7916 19.8455 19.8272 19.8023C19.8628 19.759 19.8933 19.6964 19.9162 19.6197L22.7813 10.0108C22.7968 9.9588 22.8059 9.89793 22.8076 9.83477C22.8093 9.77162 22.8035 9.70858 22.7909 9.65251C22.7783 9.59643 22.7593 9.54945 22.736 9.51666C22.7127 9.48387 22.686 9.46651 22.6588 9.46648V9.46648Z" fill="#253B80"/>
<path d="M25.5109 5.61926H23.7206C23.6614 5.61932 23.6041 5.66848 23.5591 5.75789C23.5141 5.8473 23.4843 5.9711 23.4751 6.107L22.7511 16.7723C22.7477 16.8217 22.749 16.8722 22.7549 16.9204C22.7607 16.9685 22.771 17.0131 22.785 17.0512C22.7989 17.0892 22.8163 17.1198 22.8358 17.1407C22.8554 17.1616 22.8767 17.1725 22.8982 17.1725H23.8169C23.8584 17.1723 23.8984 17.1378 23.9299 17.0752C23.9614 17.0125 23.9822 16.9258 23.9886 16.8307L24.1941 13.8075C24.2033 13.6715 24.233 13.5476 24.2781 13.458C24.3231 13.3685 24.3804 13.3193 24.4396 13.3192H25.006C26.1855 13.3192 26.8657 11.9934 27.0437 9.36614C27.1241 8.21671 27.0469 7.31359 26.8152 6.68111C26.5611 5.98659 26.1101 5.61926 25.5109 5.61926V5.61926ZM25.7175 9.51453C25.6198 11.007 25.1291 11.007 24.6542 11.007H24.3844L24.5742 8.21975C24.5796 8.13821 24.5974 8.06388 24.6244 8.01022C24.6514 7.95657 24.6857 7.92713 24.7213 7.92723H24.8451C25.1681 7.92723 25.4732 7.92723 25.6308 8.35537C25.7248 8.6108 25.7533 8.99029 25.7175 9.51453V9.51453ZM30.8615 9.46648H30.0048C29.9693 9.46625 29.9349 9.49565 29.9079 9.54933C29.8809 9.60301 29.8631 9.67741 29.8577 9.75901L29.8198 10.3161L29.7596 10.1142C29.574 9.48838 29.1604 9.27917 28.7474 9.27917C27.8002 9.27917 26.9914 10.9461 26.8338 13.2845C26.7521 14.451 26.8681 15.5663 27.1529 16.3442C27.4146 17.0594 27.7879 17.3574 28.2326 17.3574C28.9958 17.3574 29.4191 16.2171 29.4191 16.2171L29.3808 16.7705C29.3774 16.8201 29.3787 16.8708 29.3845 16.9191C29.3904 16.9674 29.4007 17.0123 29.4147 17.0504C29.4288 17.0886 29.4462 17.1192 29.4659 17.1402C29.4855 17.1612 29.5069 17.172 29.5285 17.1719H30.3003C30.3596 17.1718 30.4169 17.1225 30.4619 17.033C30.5069 16.9435 30.5367 16.8195 30.5459 16.6835L31.0094 9.86665C31.0127 9.81713 31.0113 9.76653 31.0054 9.71835C30.9995 9.67017 30.9891 9.62554 30.9751 9.58752C30.961 9.5495 30.9436 9.519 30.924 9.4981C30.9044 9.47721 30.8831 9.46642 30.8615 9.46648V9.46648ZM29.6667 13.3429C29.5845 14.4808 29.1953 15.2446 28.6995 15.2446C28.4511 15.2446 28.2517 15.0591 28.1239 14.7076C27.9973 14.3585 27.9496 13.8617 27.9894 13.3082C28.0671 12.1801 28.4618 11.3913 28.95 11.3913C29.1934 11.3913 29.3913 11.5792 29.5217 11.9338C29.6528 12.292 29.7046 12.7919 29.6667 13.3429V13.3429ZM31.8721 5.91179L31.1374 16.7723C31.134 16.8217 31.1353 16.8722 31.1412 16.9204C31.147 16.9685 31.1573 17.0131 31.1713 17.0512C31.1852 17.0892 31.2026 17.1198 31.2222 17.1407C31.2417 17.1616 31.263 17.1725 31.2845 17.1725H32.0232C32.1459 17.1725 32.2501 16.9657 32.2689 16.6841L32.9934 6.01943C32.9968 5.96999 32.9955 5.91945 32.9897 5.87128C32.9838 5.82311 32.9736 5.77845 32.9596 5.74037C32.9456 5.70228 32.9283 5.67169 32.9087 5.65068C32.8892 5.62967 32.8679 5.61874 32.8463 5.61865H32.0192C31.9837 5.61894 31.9494 5.6486 31.9225 5.70232C31.8955 5.75603 31.8777 5.83029 31.8721 5.91179V5.91179Z" fill="#179BD7"/>
<path d="M2.54893 19.2451L2.68582 17.2248L2.38089 17.2084H0.924805L1.93671 2.30056C1.93972 2.25501 1.94968 2.21349 1.96477 2.18358C1.97985 2.15366 1.99906 2.13733 2.0189 2.13758H4.47407C5.28914 2.13758 5.85163 2.53166 6.14531 3.3095C6.28298 3.6744 6.37067 4.05571 6.41307 4.47534C6.45757 4.91565 6.45835 5.44171 6.4149 6.08332L6.41176 6.13015V6.54126L6.54944 6.7225C6.65455 6.84622 6.74902 7.01359 6.8282 7.21632C6.94598 7.52831 7.02215 7.92483 7.05435 8.39494C7.08759 8.87842 7.07659 9.45374 7.02215 10.1051C6.95933 10.8543 6.85778 11.5069 6.72062 12.0409C6.59961 12.5192 6.4369 12.9335 6.24294 13.2572C6.06076 13.5576 5.8443 13.7857 5.59957 13.9316C5.36243 14.0752 5.09205 14.1475 4.79549 14.1475H4.60441C4.46778 14.1475 4.33508 14.2619 4.2309 14.4668C4.12688 14.6739 4.05787 14.9601 4.03617 15.2744L4.02177 15.4563L3.77992 19.0171L3.76892 19.1478C3.76605 19.1892 3.76107 19.2099 3.75374 19.2238C3.74664 19.2373 3.73779 19.2448 3.72862 19.2451H2.54893Z" fill="#253B80"/>
<path d="M6.67977 6.17755C6.67244 6.28641 6.66407 6.39771 6.65464 6.51204C6.33087 10.3745 5.22316 11.7088 3.80843 11.7088H3.08811C2.9151 11.7088 2.7693 12.0007 2.74234 12.3972L2.37355 17.8317L2.26911 19.3722C2.26495 19.4333 2.26654 19.4958 2.27376 19.5553C2.28099 19.6149 2.29369 19.6701 2.31098 19.7171C2.32827 19.7642 2.34974 19.8019 2.37391 19.8279C2.39809 19.8538 2.4244 19.8672 2.45102 19.8672H3.7286C3.87989 19.8672 4.0084 19.6118 4.03222 19.2652L4.04479 19.1143L4.28533 15.5675L4.30077 15.3729C4.32433 15.0251 4.45311 14.7696 4.6044 14.7696H4.79547C6.03326 14.7696 7.00224 13.602 7.28545 10.223C7.40376 8.81149 7.34251 7.63288 7.02946 6.80396C6.93024 6.54753 6.81174 6.33526 6.67977 6.17755V6.17755Z" fill="#179BD7"/>
<path d="M6.34116 5.86375C6.23778 5.79426 6.13261 5.74002 6.02628 5.70137C5.81619 5.62635 5.60385 5.59035 5.39129 5.59372H3.46694C3.39371 5.59359 3.32287 5.65434 3.26723 5.76499C3.21159 5.87563 3.17483 6.02888 3.16358 6.19702L2.75421 12.2215L2.74243 12.3972C2.75518 12.2054 2.79706 12.0306 2.86048 11.9043C2.9239 11.778 3.00468 11.7087 3.0882 11.7088H3.80852C5.22325 11.7088 6.33095 10.3739 6.65473 6.51204C6.66442 6.39771 6.67253 6.28642 6.67986 6.17756C6.59442 6.07346 6.50538 5.98618 6.41367 5.91666C6.38962 5.89812 6.36545 5.88048 6.34116 5.86375V5.86375Z" fill="#222D65"/>
<path d="M3.16361 6.19706C3.17476 6.02887 3.21151 5.87555 3.26717 5.76496C3.32284 5.65437 3.39373 5.59384 3.46697 5.59437H5.39132C5.6193 5.59437 5.8321 5.62904 6.02631 5.70202C6.15774 5.75001 6.28735 5.82179 6.41396 5.9167C6.50949 5.99028 6.59823 6.07725 6.68015 6.1776C6.77647 4.75024 6.67937 3.7784 6.34721 2.8984C5.98103 1.9296 5.32012 1.51483 4.47443 1.51483H2.01926C1.84651 1.51483 1.69915 1.80675 1.67245 2.20388L0.649811 17.265C0.645047 17.3349 0.64686 17.4064 0.655123 17.4745C0.663386 17.5427 0.677904 17.6058 0.697678 17.6597C0.717452 17.7136 0.742013 17.7568 0.769671 17.7865C0.797329 17.8162 0.827428 17.8317 0.857898 17.8318H2.37366L2.75424 12.2215L3.16361 6.19706Z" fill="#253B80"/>
</g>
<defs>
<clipPath id="clip0_1808_1296">
<rect width="32.36" height="20" fill="white" transform="translate(0.640137 0.691467)"/>
</clipPath>
</defs>
</svg>
