<svg width="33" height="21" viewBox="0 0 33 21" fill="none" xmlns="http://www.w3.org/2000/svg">
<path d="M4.91948 9.89623C4.9059 9.17333 4.85156 8.45044 4.74287 7.82394L3.81908 2.089C3.75115 1.65526 3.69681 1.17333 3.66964 0.691406L3.62889 0.93237C3.39794 2.32996 3.39794 4.11309 3.62889 5.51068L4.37607 10.089C4.60702 11.4866 4.60702 13.2697 4.37607 14.6673L4.33532 14.9083C4.30815 14.4263 4.25381 13.9444 4.18588 13.5107L3.50662 9.31791L3.07189 6.61912C3.00397 6.18538 2.94962 5.70345 2.92245 5.22153L2.8817 5.46249C2.65075 6.86008 2.65075 8.59502 2.8817 10.0408L3.62889 14.6191C3.85983 16.0167 3.85983 17.7998 3.62889 19.1974L3.58813 19.4384C3.56096 18.9565 3.50662 18.4745 3.43869 18.0408L2.50131 12.3059C2.37905 11.5348 2.3247 10.6673 2.3247 9.79984C1.33298 10.7155 0.640137 12.6914 0.640137 14.9565C0.640137 18.1372 1.97149 20.6914 3.6153 20.6914C5.25911 20.6914 6.59046 18.1372 6.59046 14.9565C6.60405 12.7878 5.92479 10.8119 4.91948 9.89623ZM7.73162 19.6794C7.74521 18.8601 7.77238 18.33 7.8403 17.6553C8.15276 18.1854 8.56032 18.4263 8.8592 18.4263C9.37543 18.4263 9.67431 17.848 9.67431 16.6432C9.67431 15.4866 9.45695 14.9565 8.94071 14.1372L8.65542 13.7516C8.12559 12.9324 7.77238 11.8721 7.77238 9.79984C7.77238 7.53478 8.22069 6.089 9.11732 6.089C9.48412 6.089 9.82375 6.28177 10.1362 6.66731C10.1226 7.43839 10.0819 8.0649 10.0275 8.64321C9.72865 8.25767 9.36185 8.0649 9.10373 8.0649C8.61466 8.0649 8.3973 8.7396 8.3973 9.79984C8.3973 10.8119 8.61466 11.4384 9.00863 12.0167L9.30751 12.4504C10.0139 13.5107 10.3128 14.6673 10.3128 16.595C10.3128 18.8601 9.82375 20.4504 8.87278 20.4504C8.42447 20.4504 8.04408 20.2095 7.73162 19.6794ZM13.3151 10.1854V20.1131H12.7446L12.7174 18.9083C12.5544 19.7757 12.3234 20.3541 11.9295 20.3541C11.1959 20.3541 10.6932 18.4263 10.6932 15.101C10.6932 11.6312 11.223 9.60707 12.2555 9.60707C12.6631 9.65526 13.0027 9.79984 13.3151 10.1854ZM12.7038 17.848V11.6312C12.5815 11.5348 12.4321 11.5348 12.2555 11.5348C11.617 11.5348 11.3181 12.9324 11.3181 15.1492C11.3181 17.1733 11.5491 18.6191 12.0925 18.6191C12.3506 18.5709 12.5408 18.2818 12.7038 17.848ZM16.4669 13.4625V20.1131H15.8556V13.848C15.8556 12.2577 15.7061 11.5348 15.0948 11.5348C14.9454 11.5348 14.7824 11.583 14.6057 11.6794V20.1131H13.9944V10.1854C14.3884 9.84803 14.8231 9.60707 15.1084 9.60707C16.1409 9.65526 16.4669 11.0529 16.4669 13.4625ZM18.1787 18.5227C18.3553 18.5227 18.5319 18.4263 18.6541 18.2336C18.6406 18.8119 18.6134 19.4866 18.5862 20.0649C18.4232 20.3059 18.233 20.4022 18.07 20.4022C17.4722 20.4022 17.0918 19.4384 17.0918 17.0288V6.57092C17.282 6.32996 17.513 6.23357 17.7032 6.23357V9.99261H18.6813C18.6677 10.6673 18.6541 11.2938 18.627 11.8721H17.7032V16.7396C17.7032 17.9926 17.8798 18.5227 18.1787 18.5227ZM21.4799 10.1854V20.1131H20.9093L20.8821 18.9083C20.7191 19.7757 20.4881 20.3541 20.0942 20.3541C19.3606 20.3541 18.8579 18.4263 18.8579 15.101C18.8579 11.6312 19.3877 9.60707 20.4202 9.60707C20.8278 9.65526 21.1538 9.79984 21.4799 10.1854ZM20.8549 17.848V11.6312C20.7327 11.5348 20.5832 11.5348 20.4066 11.5348C19.7681 11.5348 19.4693 12.9324 19.4693 15.1492C19.4693 17.1733 19.7002 18.6191 20.2436 18.6191C20.5017 18.5709 20.7055 18.2818 20.8549 17.848ZM24.6316 13.4625V20.1131H24.0067V13.848C24.0067 12.2577 23.8573 11.5348 23.2459 11.5348C23.0965 11.5348 22.9335 11.583 22.7569 11.6794V20.1131H22.1455V10.1854C22.5395 9.84803 22.9742 9.60707 23.2595 9.60707C24.292 9.65526 24.6316 11.0529 24.6316 13.4625ZM27.7427 6.23357V20.1131H27.1721L27.1449 18.8601C26.9819 19.7757 26.7509 20.3541 26.3434 20.3541C25.6098 20.3541 25.1071 18.4263 25.1071 15.101C25.1071 11.6312 25.6369 9.60707 26.6694 9.60707C26.8324 9.60707 26.9819 9.65526 27.1313 9.75165V6.47454C27.3215 6.28177 27.5389 6.23357 27.7427 6.23357ZM27.1313 17.848V11.7276C26.9683 11.6312 26.8053 11.5348 26.6423 11.5348C26.0309 11.5348 25.7456 12.8842 25.7456 15.1492C25.7456 17.1733 25.9766 18.6191 26.52 18.6191C26.7645 18.5709 26.9683 18.2818 27.1313 17.848ZM30.8401 15.8721H28.8702C28.9517 17.6553 29.237 18.4745 29.794 18.4745C30.1337 18.4745 30.4733 18.2336 30.7722 17.7035C30.745 18.2818 30.7178 19.0529 30.6771 19.6794C30.3918 20.1131 30.1065 20.3059 29.7669 20.3059C28.7344 20.3059 28.2453 18.2818 28.2453 14.9083C28.2453 11.9685 28.6257 9.60707 29.6038 9.60707C30.4869 9.60707 30.8673 11.6312 30.8673 14.1372C30.8673 14.8119 30.8673 15.2938 30.8401 15.8721ZM28.8702 14.0408H30.2559C30.2559 12.4022 30.0114 11.4384 29.5902 11.4384C29.1419 11.4866 28.911 12.3541 28.8702 14.0408ZM33.0001 9.75165C33.0001 10.4263 32.973 11.1974 32.9458 11.6312C32.7964 11.583 32.6605 11.5348 32.4839 11.5348C32.3345 11.5348 32.185 11.583 32.0356 11.6312V20.1131H31.4242V10.1854C31.6824 9.84803 32.1307 9.60707 32.4703 9.60707C32.6469 9.65526 32.8643 9.65526 33.0001 9.75165Z" fill="#EA1D25"/>
</svg>
