<svg width="33" height="21" viewBox="0 0 33 21" fill="none" xmlns="http://www.w3.org/2000/svg">
<g clip-path="url(#clip0_1808_686)">
<path d="M31.4027 0.697326L23.4344 0.695312H23.4322C23.426 0.695312 23.4201 0.696372 23.4141 0.696372C22.3194 0.728793 20.9559 1.57831 20.7077 2.62575L16.9393 18.7582C16.691 19.8155 17.3664 20.6757 18.4532 20.6915H26.8244C27.8944 20.6403 28.9345 19.8006 29.1785 18.765L32.947 2.63242C33.1993 1.56454 32.5077 0.697326 31.4027 0.697326Z" fill="#01798A"/>
<path d="M16.9394 18.7582L20.7077 2.6257C20.956 1.57826 22.3195 0.728747 23.4141 0.696326L20.2458 0.694419L14.5377 0.693359C13.44 0.715079 12.0588 1.57053 11.8106 2.62581L8.04116 18.7582C7.79192 19.8154 8.46847 20.6757 9.55447 20.6915H18.4533C17.3665 20.6757 16.6911 19.8154 16.9394 18.7582" fill="#024381"/>
<path d="M8.04118 18.7581L11.8106 2.62565C12.0588 1.57038 13.44 0.714927 14.5377 0.693207L7.22523 0.691406C6.12138 0.691406 4.70609 1.55671 4.45378 2.62565L0.684369 18.7581C0.661482 18.8565 0.648669 18.9531 0.641113 19.0474V19.3466C0.714922 20.1173 1.32324 20.6785 2.19767 20.6913H9.55449C8.46849 20.6756 7.79194 19.8154 8.04118 18.7581" fill="#DD0228"/>
<path d="M14.6919 12.4486H14.8303C14.9574 12.4486 15.043 12.4072 15.0832 12.3255L15.4428 11.8049H16.4057L16.205 12.1473H17.3595L17.213 12.6721H15.8391C15.6809 12.9024 15.486 13.0106 15.2519 12.9978H14.5363L14.6919 12.4486M14.5338 13.2005H17.0635L16.9022 13.7706H15.8848L15.7296 14.3207H16.7196L16.5584 14.8907H15.5684L15.3384 15.7036C15.2815 15.8396 15.3564 15.9006 15.5618 15.8868H16.3686L16.2191 16.4166H14.6701C14.3765 16.4166 14.2758 16.2541 14.3678 15.9283L14.6619 14.8908H14.0291L14.1899 14.3208H14.8227L14.9779 13.7707H14.373L14.5338 13.2005V13.2005ZM18.5713 11.8008L18.5316 12.1346C18.5316 12.1346 19.0087 11.788 19.4421 11.788H21.0434L20.431 13.9329C20.3802 14.1781 20.1624 14.3 19.7778 14.3H17.9627L17.5376 15.8061C17.5129 15.8868 17.5477 15.9282 17.6392 15.9282H17.9964L17.8651 16.3957H16.9572C16.6087 16.3957 16.4637 16.2943 16.5212 16.0906L17.7227 11.8008H18.5713V11.8008ZM19.9275 12.4072H18.4981L18.327 12.986C18.327 12.986 18.5651 12.8198 18.963 12.8138C19.3597 12.8078 19.8125 12.8138 19.8125 12.8138L19.9275 12.4072ZM19.4095 13.7498C19.5152 13.7637 19.5745 13.7233 19.5815 13.6277L19.669 13.3227H18.2375L18.1174 13.7498H19.4095ZM18.4441 14.4428H19.2692L19.2538 14.7883H19.4735C19.5845 14.7883 19.6396 14.7539 19.6396 14.686L19.7047 14.4625H20.3905L20.299 14.7883C20.2214 15.06 20.0161 15.2018 19.6823 15.2156H19.2427L19.2407 15.8061C19.2327 15.9007 19.3209 15.9489 19.5031 15.9489H19.9161L19.7828 16.4166H18.7919C18.5141 16.4293 18.3778 16.3013 18.3808 16.0297L18.4441 14.4428M8.44506 8.94332C8.33314 9.47392 8.07371 9.88141 7.67126 10.1708C7.27243 10.4552 6.75818 10.598 6.12839 10.598C5.53573 10.598 5.10131 10.4523 4.82403 10.16C4.63173 9.95229 4.53613 9.68847 4.53613 9.36956C4.53613 9.23765 4.55245 9.09589 4.58497 8.94342L5.25594 5.81331H6.26922L5.60757 8.90783C5.58864 8.98555 5.57945 9.0652 5.58019 9.14505C5.5791 9.30355 5.61983 9.43345 5.70218 9.53485C5.82221 9.68551 6.01702 9.7602 6.28828 9.7602C6.60005 9.7602 6.85696 9.68646 7.05637 9.53771C7.25579 9.39001 7.38599 9.18044 7.44447 8.90772L8.10832 5.81299H9.11656L8.44506 8.94332ZM12.7008 7.71185H13.4944L12.8727 10.5055H12.0806L12.7008 7.71185ZM12.9506 6.69408H13.7513L13.6017 7.37217H12.8011L12.9506 6.69408ZM14.1969 10.2928C13.9893 10.1008 13.8845 9.842 13.8835 9.51323C13.8835 9.45708 13.887 9.39319 13.8948 9.32326C13.9024 9.25238 13.9121 9.18351 13.9258 9.11952C14.0198 8.66573 14.2203 8.30549 14.529 8.03966C14.8373 7.77288 15.2092 7.63906 15.6447 7.63906C16.0013 7.63906 16.2841 7.73558 16.4912 7.92841C16.6982 8.12241 16.8019 8.38411 16.8019 8.7169C16.8019 8.7739 16.7974 8.83991 16.7897 8.91079C16.7808 8.98067 16.7698 9.05027 16.7567 9.11952C16.6647 9.56642 16.4648 9.92273 16.156 10.1836C15.8472 10.4463 15.4763 10.5772 15.044 10.5772C14.6859 10.5773 14.404 10.4828 14.1969 10.2928M15.7093 9.73965C15.8493 9.59301 15.9494 9.37051 16.0105 9.07427C16.0197 9.02797 16.0278 8.97977 16.0328 8.93156C16.0379 8.8843 16.0399 8.84002 16.0399 8.79965C16.0399 8.62737 15.9946 8.49356 15.9036 8.39905C15.8131 8.30359 15.6845 8.25633 15.5181 8.25633C15.2983 8.25633 15.1192 8.33103 14.9789 8.48074C14.8374 8.63045 14.7371 8.85676 14.674 9.15798C14.6654 9.20428 14.6583 9.25058 14.6517 9.29582C14.6467 9.34212 14.6451 9.38535 14.6461 9.42476C14.6461 9.59608 14.6914 9.72799 14.7824 9.82144C14.873 9.915 15.0011 9.96119 15.1696 9.96119C15.3904 9.96109 15.5694 9.88724 15.7093 9.73965Z" fill="white"/>
<path d="M23.4323 0.695271L20.2458 0.694336L23.4142 0.696309C23.4201 0.696309 23.4261 0.695271 23.4323 0.695271Z" fill="#E02F41"/>
<path d="M20.246 0.694314L14.5816 0.691406C14.5674 0.691406 14.5526 0.692341 14.5378 0.693276L20.246 0.694314" fill="#2E4F7D"/>
<path d="M21.9511 12.4718L22.1424 11.8202H23.11L23.0683 12.0594C23.0683 12.0594 23.5626 11.8202 23.9187 11.8202H25.1151L24.925 12.4718H24.7368L23.8343 15.545H24.0226L23.8435 16.1553H23.6553L23.577 16.4201H22.6399L22.7181 16.1553H20.8696L21.0497 15.545H21.2349L22.1382 12.4718H21.9511M22.995 12.4718L22.7489 13.3035C22.7489 13.3035 23.1702 13.147 23.5334 13.1027C23.6135 12.8124 23.7183 12.4718 23.7183 12.4718H22.995ZM22.6349 13.6934L22.3877 14.5646C22.3877 14.5646 22.8546 14.3421 23.1751 14.3235C23.2676 13.9868 23.3602 13.6935 23.3602 13.6935H22.6349V13.6934ZM22.8159 15.545L23.0009 14.913H22.2788L22.0926 15.545H22.8159ZM25.1559 11.7798H26.0656L26.1042 12.1046C26.0981 12.1872 26.149 12.2267 26.2569 12.2267H26.4176L26.255 12.7768H25.5864C25.3313 12.7895 25.2 12.6951 25.1877 12.4914L25.1559 11.7798ZM24.8893 12.9601H27.8357L27.6627 13.5508H26.7247L26.5638 14.0999H27.5011L27.327 14.6896H26.2833L26.0472 15.0352H26.5581L26.6761 15.7271C26.6901 15.796 26.7532 15.8295 26.8611 15.8295H27.0197L26.853 16.3993H26.2914C26.0003 16.4132 25.8499 16.3187 25.8376 16.1149L25.7022 15.4829L25.2373 16.1553C25.1274 16.3453 24.9584 16.4338 24.7306 16.4201H23.873L24.0397 15.85H24.3074C24.4173 15.85 24.5088 15.8029 24.5911 15.7073L25.3188 14.6896H24.3808L24.5547 14.0999H25.5721L25.7338 13.5508H24.7155L24.8893 12.9601M9.37858 7.71054H10.0943L10.0124 8.11411L10.1151 7.99894C10.3472 7.75875 10.6289 7.63966 10.9616 7.63966C11.2628 7.63966 11.4799 7.72432 11.6164 7.89458C11.7506 8.06484 11.7873 8.30016 11.7237 8.60233L11.3294 10.5061H10.5938L10.9498 8.78054C10.9865 8.60233 10.9763 8.46947 10.9198 8.38376C10.864 8.29815 10.7571 8.25587 10.6029 8.25587C10.4137 8.25587 10.2544 8.31288 10.1247 8.42614C9.99445 8.54035 9.90849 8.69886 9.86622 8.90059L9.53813 10.5061H8.80103L9.37858 7.71054ZM17.5864 7.71054H18.3028L18.2214 8.11411L18.3229 7.99894C18.5552 7.75875 18.838 7.63966 19.1697 7.63966C19.4708 7.63966 19.6883 7.72432 19.8238 7.89458C19.9573 8.06484 19.9957 8.30016 19.9306 8.60233L19.5378 10.5061H18.8013L19.1575 8.78054C19.1941 8.60233 19.1838 8.46947 19.1278 8.38376C19.0698 8.29815 18.965 8.25587 18.8115 8.25587C18.6221 8.25587 18.4635 8.31288 18.3322 8.42614C18.202 8.54035 18.1155 8.69886 18.0749 8.90059L17.7452 10.5061H17.0091L17.5864 7.71054ZM21.1271 5.97803H23.2067C23.6064 5.97803 23.9158 6.06565 24.1283 6.23782C24.3399 6.41222 24.4458 6.66215 24.4458 6.98796V6.99781C24.4458 7.05979 24.4416 7.12972 24.4355 7.20547C24.4249 7.2824 24.4114 7.35891 24.3949 7.43486C24.3032 7.86597 24.0907 8.21254 23.7621 8.4753C23.4323 8.7371 23.0418 8.86901 22.5921 8.86901H21.4769L21.1321 10.506H20.1665L21.1271 5.97803M21.6469 8.08169H22.5717C22.8127 8.08169 23.004 8.02744 23.1436 7.92022C23.2821 7.81194 23.3736 7.64655 23.4242 7.42214C23.4323 7.38072 23.4374 7.34332 23.4436 7.30888C23.4466 7.27646 23.4507 7.24383 23.4507 7.21247C23.4507 7.05195 23.3918 6.93583 23.2736 6.86293C23.1557 6.78898 22.9705 6.7537 22.7141 6.7537H21.9287L21.6469 8.08169ZM28.7677 11.0465C28.4624 11.6745 28.1715 12.0406 28.0007 12.2108C27.8296 12.3793 27.4908 12.771 26.6749 12.7414L26.7453 12.2622C27.4319 12.0574 27.8031 11.135 28.0149 10.7266L27.7625 7.71838L28.2936 7.7115H28.7392L28.7872 9.59849L29.6223 7.7115H30.4679L28.7677 11.0465M26.4034 7.93887L26.0675 8.16232C25.7165 7.89659 25.3961 7.73216 24.7776 8.00975C23.9352 8.38768 23.2311 11.2867 25.5509 10.3319L25.683 10.4835L26.5957 10.5062L27.195 7.87201L26.4034 7.93887ZM25.8843 9.37896C25.7378 9.79736 25.4104 10.0739 25.1539 9.99517C24.8975 9.91836 24.8059 9.51479 24.9546 9.09543C25.1011 8.67608 25.4307 8.4005 25.685 8.47922C25.9414 8.55603 26.0339 8.9596 25.8843 9.37896Z" fill="white"/>
</g>
<defs>
<clipPath id="clip0_1808_686">
<rect width="32.36" height="20" fill="white" transform="translate(0.640137 0.691406)"/>
</clipPath>
</defs>
</svg>
